<svg width="624" height="156" viewBox="0 0 624 156" fill="none" xmlns="http://www.w3.org/2000/svg">
<path fill-rule="evenodd" clip-rule="evenodd" d="M0 4.21582V153.212H14.0228V134.332H14.4449C24.3556 148.777 39.0135 155.84 57.1491 155.84C90.6761 155.84 116.093 131.277 116.093 98.6967C116.093 71.7015 97.9532 40.4854 57.5705 40.4854C41.0116 40.4854 25.0953 46.92 15.2875 61.9996H14.866V4.21582H0ZM57.5705 53.9832C82.243 53.9832 101.222 73.0714 101.222 98.6967C101.222 123.786 81.0823 142.348 57.1491 142.348C33.2149 142.348 14.0228 123.053 14.0228 98.9046C14.0228 73.7064 32.7935 53.9832 57.5705 53.9832Z" fill="#536E4D"/>
<path fill-rule="evenodd" clip-rule="evenodd" d="M124.732 43.1319H138.756V59.0424H139.183C145.19 47.1387 157.312 40.2786 170.81 40.7V55.5718C156.683 56.4041 139.604 65.6903 139.604 87.9442V153.213H124.732V43.1319Z" fill="#536E4D"/>
<path fill-rule="evenodd" clip-rule="evenodd" d="M281.53 43.1312H267.397V62.2074H267.08C253.796 41.86 233.235 40.4854 223.745 40.4854C184.311 40.4854 165.229 71.2756 165.229 97.4269C165.229 131.704 191.166 155.84 224.168 155.84C248.107 155.84 260.756 142.129 267.08 132.645H267.397V153.212H281.53V43.1312ZM223.745 53.9831C248.736 53.9831 267.397 73.9139 267.397 98.9045C267.397 123.053 248.315 142.348 224.168 142.348C200.655 142.348 180.095 123.786 180.095 98.6967C180.095 73.0714 199.812 53.9831 223.745 53.9831Z" fill="#536E4D"/>
<path fill-rule="evenodd" clip-rule="evenodd" d="M291.225 43.1312H305.357V59.0417H305.675C314.217 46.5033 327.287 40.4854 341.732 40.4854C366.722 40.4854 389.818 55.9878 389.818 95.2145V153.212H374.947V95.2145C374.947 87.1981 374.311 53.9831 339.946 53.9831C324.648 53.9831 306.091 61.7907 306.091 92.7837V153.212H291.225V43.1312Z" fill="#536E4D"/>
<path fill-rule="evenodd" clip-rule="evenodd" d="M514.654 43.1312H500.527V62.2074H500.1C486.816 41.86 466.359 40.4854 456.865 40.4854C417.43 40.4854 398.354 71.2756 398.354 97.4269C398.354 131.704 424.286 155.84 457.293 155.84C481.221 155.84 493.879 142.129 500.1 132.645H500.527V153.212H514.654V43.1312ZM456.865 53.9831C481.856 53.9831 500.527 73.9139 500.527 98.9045C500.527 123.053 481.428 142.348 457.293 142.348C433.769 142.348 413.214 123.786 413.214 98.6967C413.214 73.0714 432.937 53.9831 456.865 53.9831Z" fill="#536E4D"/>
<path fill-rule="evenodd" clip-rule="evenodd" d="M525.418 43.1312H539.436V59.0417H539.851C548.295 46.5033 561.37 40.4854 575.924 40.4854C600.914 40.4854 624 55.9878 624 95.2145V153.212H609.128V95.2145C609.128 87.1981 608.493 53.9831 574.128 53.9831C558.84 53.9831 540.278 61.7907 540.278 92.7837V153.212H525.418V43.1312Z" fill="#536E4D"/>
<path fill-rule="evenodd" clip-rule="evenodd" d="M403.832 24.2516C403.723 25.9383 401.62 28.7855 397.93 28.7855C393.603 28.7855 391.392 26.0419 391.392 21.1962H408.048C408.048 13.1798 404.784 7.90625 398.247 7.90625C390.647 7.90625 387.273 13.4973 387.273 20.6648C387.273 27.203 391.074 32.0544 397.404 32.0544C401.094 32.0544 402.561 31.2112 403.625 30.4715C406.569 28.5773 407.621 25.3077 407.73 24.2516H403.832ZM391.392 18.1355C391.392 14.6581 394.129 11.384 397.721 11.384C402.364 11.384 403.832 14.6581 404.051 18.1355H391.392Z" fill="#536E4D"/>
<path fill-rule="evenodd" clip-rule="evenodd" d="M431.254 31.4241H427.344V17.3958C427.344 13.3876 426.292 11.384 422.493 11.384C420.28 11.384 416.492 12.7584 416.492 18.978V31.4241H412.582V8.54198H416.272V11.8109C417.127 10.5459 419.338 7.90625 423.237 7.90625C426.719 7.90625 431.254 9.38519 431.254 15.8137V31.4241Z" fill="#536E4D"/>
<path fill-rule="evenodd" clip-rule="evenodd" d="M450.444 8.54175H454.66L446.02 31.4239H441.902L433.568 8.54175H438.004L443.906 27.2027H444.004L450.444 8.54175Z" fill="#536E4D"/>
<path fill-rule="evenodd" clip-rule="evenodd" d="M457.936 4.42966V0H461.834V4.42966H457.936ZM461.834 31.4239H457.936V8.54179H461.834V31.4239Z" fill="#536E4D"/>
<path fill-rule="evenodd" clip-rule="evenodd" d="M471.954 31.4241H468.055V8.54198H471.735V12.3366H471.844C473.334 9.70271 475.327 7.90625 478.175 7.90625C478.699 7.90625 478.919 7.90626 479.225 8.01664V12.0191H477.758C474.165 12.0191 471.954 14.762 471.954 18.1355V31.4241Z" fill="#536E4D"/>
<path fill-rule="evenodd" clip-rule="evenodd" d="M480.805 19.9258C480.805 25.8337 484.079 32.0544 491.459 32.0544C498.732 32.0544 501.995 25.8337 501.995 19.9258C501.995 14.0227 498.732 7.90625 491.459 7.90625C484.079 7.90625 480.805 14.0227 480.805 19.9258ZM484.802 19.9258C484.802 16.8701 485.864 11.2856 491.459 11.2856C496.936 11.2856 497.988 16.8701 497.988 19.9258C497.988 22.9862 496.936 28.6812 491.459 28.6812C485.864 28.6812 484.802 22.9862 484.802 19.9258Z" fill="#536E4D"/>
<path fill-rule="evenodd" clip-rule="evenodd" d="M524.988 31.4241H521.187V17.3958C521.187 13.3876 520.026 11.384 516.238 11.384C514.025 11.384 510.226 12.7584 510.226 18.978V31.4241H506.426V8.54198H510.017V11.8109H510.127C510.96 10.5459 513.073 7.90625 516.971 7.90625C520.552 7.90625 524.988 9.38519 524.988 15.8137V31.4241Z" fill="#536E4D"/>
<path fill-rule="evenodd" clip-rule="evenodd" d="M530.682 8.54198H534.263V11.8109H534.372C535.216 10.5459 537.219 7.90625 541.337 7.90625C545.345 7.90625 546.703 10.4369 547.338 11.5976C549.244 9.4891 550.82 7.90625 554.303 7.90625C556.833 7.90625 561.366 9.17158 561.366 15.6055V31.4241H557.567V16.6623C557.567 13.4973 556.624 11.384 553.351 11.384C550.076 11.384 547.974 14.4448 547.974 17.5055V31.4241H544.075V15.6055C544.075 13.7058 543.329 11.384 540.593 11.384C538.38 11.384 534.481 12.7584 534.481 18.978V31.4241H530.682V8.54198Z" fill="#536E4D"/>
<path fill-rule="evenodd" clip-rule="evenodd" d="M582.559 24.2516C582.45 25.9383 580.347 28.7855 576.656 28.7855C572.33 28.7855 570.119 26.0419 570.119 21.1962H586.775C586.775 13.1798 583.511 7.90625 576.973 7.90625C569.373 7.90625 566 13.4973 566 20.6648C566 27.203 569.8 32.0544 576.229 32.0544C579.82 32.0544 581.288 31.2112 582.351 30.4715C585.297 28.5773 586.347 25.3077 586.457 24.2516H582.559ZM570.119 18.1355C570.119 14.6581 572.856 11.384 576.447 11.384C581.091 11.384 582.559 14.6581 582.767 18.1355H570.119Z" fill="#536E4D"/>
<path fill-rule="evenodd" clip-rule="evenodd" d="M609.982 31.4241H606.072V17.3958C606.072 13.3876 604.912 11.384 601.221 11.384C599.009 11.384 595.22 12.7584 595.22 18.978V31.4241H591.311V8.54198H595.001V11.8109C595.855 10.5459 598.067 7.90625 601.965 7.90625C605.448 7.90625 609.982 9.38519 609.982 15.8137V31.4241Z" fill="#536E4D"/>
<path fill-rule="evenodd" clip-rule="evenodd" d="M620.31 11.7067V26.5727C620.31 28.3634 621.898 28.3634 622.631 28.3634H624V31.4238C622.631 31.5281 621.47 31.7359 621.152 31.7359C617.363 31.7359 616.509 29.5241 616.509 26.7806V11.7067H613.355V8.54171H616.509V2.21167H620.31V8.54171H624V11.7067H620.31Z" fill="#536E4D"/>
</svg>
