<svg width="49" height="49" viewBox="0 0 49 49" fill="none" xmlns="http://www.w3.org/2000/svg">
<circle cx="24.5" cy="24.5" r="24" stroke="#B5D4AB"/>
<path d="M27.12 19C28.0967 19.1906 28.9944 19.6683 29.698 20.3719C30.4017 21.0756 30.8794 21.9733 31.07 22.95M27.12 15C29.1492 15.2254 31.0416 16.1342 32.4862 17.577C33.9309 19.0198 34.842 20.911 35.07 22.94M23.297 26.8631C22.0954 25.6615 21.1466 24.3028 20.4506 22.8532C20.3907 22.7285 20.3608 22.6662 20.3378 22.5873C20.2561 22.3069 20.3148 21.9627 20.4848 21.7253C20.5326 21.6584 20.5898 21.6013 20.7041 21.487C21.0537 21.1374 21.2285 20.9626 21.3428 20.7868C21.7738 20.1239 21.7738 19.2693 21.3428 18.6064C21.2285 18.4307 21.0537 18.2559 20.7041 17.9062L20.5092 17.7114C19.9778 17.1799 19.7121 16.9142 19.4267 16.7699C18.8591 16.4828 18.1889 16.4828 17.6213 16.7699C17.3359 16.9142 17.0702 17.1799 16.5387 17.7114L16.3811 17.869C15.8515 18.3986 15.5867 18.6634 15.3844 19.0235C15.16 19.423 14.9986 20.0435 15 20.5017C15.0012 20.9146 15.0813 21.1969 15.2415 21.7613C16.1025 24.7947 17.727 27.6571 20.115 30.045C22.503 32.433 25.3653 34.0575 28.3987 34.9185C28.9632 35.0787 29.2454 35.1588 29.6583 35.16C30.1165 35.1614 30.737 35 31.1365 34.7756C31.4966 34.5733 31.7614 34.3085 32.291 33.7789L32.4486 33.6213C32.9801 33.0898 33.2458 32.8241 33.3902 32.5387C33.6772 31.9712 33.6772 31.3009 33.3902 30.7333C33.2458 30.448 32.9801 30.1822 32.4486 29.6508L32.2538 29.4559C31.9042 29.1063 31.7294 28.9315 31.5536 28.8172C30.8907 28.3862 30.0361 28.3862 29.3732 28.8172C29.1975 28.9315 29.0226 29.1063 28.673 29.4559C28.5587 29.5702 28.5016 29.6274 28.4348 29.6752C28.1973 29.8453 27.8531 29.904 27.5727 29.8222C27.4938 29.7992 27.4315 29.7693 27.3068 29.7094C25.8572 29.0134 24.4985 28.0646 23.297 26.8631Z" stroke="#98A24C" stroke-width="2" stroke-linecap="round" stroke-linejoin="round"/>
</svg>
