<svg width="174" height="87" viewBox="0 0 174 87" fill="none" xmlns="http://www.w3.org/2000/svg">
<g clip-path="url(#clip0_676_2)">
<path fill-rule="evenodd" clip-rule="evenodd" d="M266.48 -81.7108L265.427 -82.2336C267.013 -82.7639 267.902 -82.2336 269.49 -82.7639C267.902 -82.2336 267.902 -82.2336 266.48 -81.7108ZM251.821 -79.2361C250.767 -77.3026 250.234 -78.7052 249.354 -79.2361C250.768 -79.7681 253.235 -79.7681 254.647 -80.2904C253.235 -79.7681 253.235 -79.7681 251.821 -79.2361ZM-65.2691 241.06C-70.0293 241.06 -66.1498 235.58 -68.6178 233.125L-70.2045 233.637C-70.5624 234.7 -70.5624 237.175 -70.0293 238.585C-71.6263 236.644 -70.5624 232.244 -74.0938 231.694C-75.5059 232.244 -73.571 235.58 -73.0299 237.175C-74.0938 236.644 -75.5059 237.175 -75.5059 237.175C-76.0384 235.58 -74.9751 233.637 -76.9197 232.759L-78.5064 233.289C-78.8643 234.169 -77.9836 234.7 -77.4505 236.112C-82.3962 233.637 -79.9282 228.873 -77.9836 224.823C-77.9836 224.823 -76.5704 224.473 -75.5059 224.823C-76.5704 226.764 -77.9836 229.751 -76.5704 231.694L-74.975 231.181C-74.975 228.873 -73.571 225.884 -72.6811 223.943L-71.0944 223.411C-72.1492 225.353 -73.0299 227.296 -70.5624 229.751C-69.6811 227.809 -69.6811 225.353 -68.6178 223.411C-68.6178 223.411 -67.2034 222.878 -66.3239 223.411C-67.2034 225.353 -68.2685 227.296 -67.2034 230.302C-66.6732 229.239 -65.7919 229.751 -65.2691 228.708C-64.2052 226.764 -67.7365 223.943 -60.3153 223.943C-61.9027 229.239 -64.728 235.067 -65.2691 241.06ZM-85.7524 235.58C-85.3956 232.244 -84.3408 227.809 -80.983 225.884C-82.9276 227.296 -82.3962 231.347 -83.2769 233.289C-83.2769 233.289 -82.9276 234.7 -81.8728 235.232C-83.2769 235.58 -84.3409 235.232 -85.7524 235.58ZM-87.6981 234.7C-89.2849 235.232 -90.6981 235.765 -92.1199 236.112C-89.6428 233.637 -90.6981 228.359 -85.3956 227.296C-86.2855 229.239 -87.6981 232.244 -87.6981 234.7ZM118.274 -41.828C120.218 -43.2386 120.568 -44.119 121.632 -46.0617C122.163 -44.651 121.099 -42.7084 121.632 -41.296C120.568 -41.828 119.154 -41.296 118.274 -41.828ZM308 -89.1244C307.111 -89.6467 307.111 -89.6467 306.055 -90.1781C305.697 -86.6503 302.698 -85.7705 300.753 -86.6503C299.698 -87.1818 301.285 -90.1781 299.166 -91.0574C298.808 -90.1781 299.34 -88.5844 298.808 -87.7132C296.864 -86.2928 293.331 -86.6503 290.506 -85.7705C290.864 -86.6503 291.396 -87.7132 290.506 -88.2355C291.928 -88.5844 294.396 -88.5844 295.276 -90.701C292.809 -90.5271 290.864 -89.1244 290.506 -93L288.918 -92.6436C290.506 -90.5271 286.443 -87.7132 289.452 -86.1189C285.562 -88.2355 282.561 -84.7066 277.792 -84.7066C276.727 -85.2385 276.727 -85.2385 275.847 -85.7705C274.259 -82.7639 271.435 -84.1762 269.839 -83.6539C270.37 -84.7065 270.37 -84.7065 269.316 -85.2385C270.903 -85.5863 272.315 -86.1189 273.38 -88.0616C272.315 -88.5844 270.903 -88.0616 268.958 -86.6503C269.316 -87.7132 271.26 -89.1244 271.784 -90.0042C268.958 -89.1244 267.902 -91.9474 264.536 -92.4697C262.949 -91.9474 265.957 -90.5271 265.427 -89.6467C265.427 -87.1817 261.537 -91.5899 261.537 -89.1244C262.068 -87.5296 264.536 -87.5296 266.48 -86.6503C265.427 -87.1818 264.013 -86.6503 262.601 -86.1189C263.482 -85.5864 265.957 -85.5863 267.013 -85.2385L267.371 -83.6539C264.536 -80.2904 260.656 -84.7065 258.712 -83.1214C256.234 -80.8212 253.235 -82.2336 249.877 -80.2904C247.409 -80.2904 245.813 -79.7681 243.519 -79.7681C245.464 -81.1787 247.409 -82.5906 247.409 -85.0641C246.878 -86.6503 243.868 -85.5863 242.466 -82.5905C241.933 -84.1763 242.996 -86.1189 244.933 -87.5296L244.4 -88.9419C242.466 -90.0042 241.401 -85.5863 239.988 -87.5296C240.52 -88.5844 241.401 -90.5271 240.52 -90.8846C239.456 -91.4149 238.576 -89.4722 238.043 -88.5844C235.566 -90.8846 231.154 -91.9474 227.796 -90.0042C230.632 -88.4094 233.099 -88.5844 236.631 -88.0616C235.566 -88.5844 233.099 -88.5844 232.749 -87.5296C231.685 -85.5863 235.043 -85.0641 239.456 -86.6503L239.988 -85.0641C238.576 -84.5338 235.043 -85.064 234.694 -84.1763C234.163 -80.6479 239.456 -84.1763 241.051 -82.2336C240.52 -78.7053 236.631 -83.1214 235.566 -81.1788C237.511 -80.1159 239.988 -80.1159 241.933 -79.2361C238.043 -78.7052 233.621 -77.3026 229.209 -75.7077C229.741 -76.7706 228.687 -77.3026 229.209 -78.1727C229.741 -79.2361 232.219 -79.2361 232.749 -80.1159L232.219 -81.7108C230.805 -81.1788 229.209 -80.6479 227.796 -80.1159L227.264 -81.7108C228.687 -82.0586 231.154 -82.0586 231.154 -84.5338C230.632 -86.1189 228.329 -86.1189 225.852 -83.6539C225.32 -85.064 229.209 -88.0616 225.852 -88.4094C223.384 -88.4094 223.384 -86.1189 222.852 -85.0641C217.908 -87.5296 212.083 -87.8865 207.66 -84.0012C211.192 -83.4789 215.605 -82.5905 219.494 -85.5863C220.385 -85.064 221.439 -84.5338 222.33 -84.0012C219.494 -83.1214 217.908 -82.5906 215.082 -81.5363C217.549 -79.2361 221.439 -82.0586 224.265 -83.1214L224.797 -81.7108C223.384 -81.1788 220.907 -81.1788 221.439 -79.593C222.852 -77.6504 224.265 -80.6479 225.852 -81.1788L226.392 -79.7681C224.797 -79.2361 223.384 -78.7052 221.972 -78.1727C222.852 -77.6504 224.797 -76.7706 226.392 -77.3026C225.852 -76.2403 226.741 -75.7077 227.796 -75.3599C225.852 -76.2403 223.917 -74.8279 222.503 -74.2971L223.384 -73.7651C220.907 -73.7651 218.962 -72.3544 216.494 -72.3544C217.018 -73.2337 217.018 -73.2337 215.962 -73.7651C216.494 -74.8279 218.439 -76.2403 218.962 -77.3026C215.962 -78.7053 214.55 -73.2337 212.605 -76.7706C212.083 -78.1727 219.494 -78.1727 213.67 -81.1788C212.605 -81.5363 211.55 -79.5931 211.192 -78.7053C206.78 -77.119 210.137 -81.5363 207.129 -83.1214C205.184 -84.0012 205.726 -80.1159 202.891 -81.5363C203.239 -82.5906 204.303 -84.5338 203.239 -85.0641C201.303 -85.9439 201.303 -81.0048 198.827 -83.4789L198.478 -85.0641C197.414 -85.413 196.001 -85.0641 195.478 -84.0012L196.001 -82.5905C191.057 -85.064 187.167 -82.0586 183.636 -80.1159C181.691 -78.5308 185.231 -78.1727 185.231 -78.1727C189.112 -81.0048 193.001 -81.5363 197.414 -80.6479C196.001 -80.1159 195.478 -84.0012 193.001 -79.0616C197.414 -78.1727 201.303 -81.0049 205.184 -79.0616C202.891 -79.0616 201.303 -78.7052 199.359 -77.119C202.359 -75.7077 205.726 -77.6504 208.192 -77.6504C206.78 -77.119 203.239 -77.6504 202.891 -74.2971C205.184 -74.2971 208.715 -73.7651 210.137 -76.7706C211.192 -76.2403 210.66 -75.1763 211.725 -74.8279C209.247 -74.8279 206.78 -74.8279 205.726 -72.7108C206.248 -71.2996 210.66 -72.7108 213.67 -73.7651C213.137 -72.8847 214.027 -72.3544 215.082 -71.8224C208.192 -70.4118 202.891 -66.8828 196.001 -65.4716C196.533 -68.8255 199.891 -68.2941 202.359 -70.7682C198.827 -73.7651 196.533 -66.3514 194.588 -69.8792C193.533 -70.2367 196.533 -73.7651 198.827 -73.7651C197.946 -74.2971 197.946 -74.2971 196.882 -74.6449C194.414 -74.6449 192.469 -73.2337 192.112 -69.8792C191.057 -70.2367 190.525 -71.8224 190.525 -71.8224C191.057 -72.7108 192.469 -73.2337 193.001 -74.2971L192.469 -75.7077C190.525 -76.5881 189.112 -76.2403 188.057 -71.8224C187.167 -72.1799 187.168 -72.1799 186.112 -72.7108C186.634 -73.7651 188.057 -76.5881 187.167 -77.119C185.754 -76.5881 184.168 -73.7651 181.691 -73.7651C182.223 -74.6449 181.691 -76.0567 181.342 -77.6504C179.755 -77.119 178.865 -75.1763 178.333 -74.1135C175.866 -76.5881 176.93 -78.5308 173.389 -76.5881C174.452 -76.0567 173.92 -75.1763 174.984 -74.6449C171.453 -72.7108 172.508 -77.119 170.03 -77.119C170.03 -77.119 168.085 -75.5338 170.03 -74.6449C168.619 -74.1135 164.564 -76.0567 164.206 -72.7108C164.206 -72.7108 166.141 -71.6485 166.682 -72.7108C166.141 -71.6485 165.619 -70.7682 166.682 -70.2367C168.976 -70.2367 170.03 -72.1799 171.453 -72.7108C170.921 -71.6485 170.921 -71.6485 170.563 -70.7682C171.453 -70.2367 172.508 -69.7059 173.92 -72.7108C173.92 -72.7108 175.334 -73.2337 176.387 -72.7108C175.866 -71.6485 174.984 -72.1799 174.452 -71.2996L174.984 -69.7059C177.452 -69.7059 177.278 -74.6449 182.223 -72.1799C180.81 -71.8224 178.865 -70.2367 177.452 -69.7059L177.81 -68.2941C181.874 -68.8255 184.69 -72.18 188.58 -70.2367C185.754 -69.3569 184.168 -68.8255 181.342 -67.7627L181.874 -66.3514C185.231 -65.82 188.231 -69.3569 192.112 -67.4143C190.525 -66.8829 188.231 -66.8829 187.167 -64.9488C189.112 -66.3514 191.057 -65.4716 193.533 -65.4716C189.112 -61.4118 183.286 -59.4692 177.81 -58.5894C179.929 -60.0006 181.342 -60.532 182.223 -62.4747L181.874 -63.8859C179.929 -62.4747 177.81 -60.881 175.866 -59.4692C175.866 -59.4692 174.984 -60.0006 173.92 -60.532C174.452 -61.4118 175.866 -61.9433 176.387 -63.0061L175.866 -64.4173C173.389 -64.4173 174.452 -61.4119 171.976 -61.4119C168.619 -61.9433 174.452 -66.3514 169.508 -66.3514C168.976 -65.2977 168.085 -63.3545 167.563 -62.4747L165.619 -63.3545C166.141 -64.4173 167.032 -66.3514 167.563 -67.2404C167.032 -68.8255 164.564 -68.8255 164.206 -67.7627C163.674 -66.8829 163.674 -64.4173 163.151 -63.3545C162.261 -63.8859 159.261 -62.8237 160.675 -65.82L162.261 -66.3514L161.728 -67.7627C159.261 -67.7627 158.381 -63.3545 155.371 -64.7663C154.317 -65.2977 157.839 -67.2404 154.849 -68.8255L153.426 -68.2941C152.904 -67.2404 152.372 -66.3514 152.904 -64.7663C151.84 -65.2977 150.427 -64.7663 149.537 -65.2977L150.959 -65.82L150.427 -67.2404C149.537 -67.7627 148.483 -65.82 147.069 -65.2977C141.593 -64.2337 135.235 -63.8859 130.465 -58.9469C135.235 -61.4119 141.235 -60.881 146.015 -63.3545C145.482 -62.2911 145.124 -61.4119 146.015 -60.881C148.483 -60.881 147.069 -65.2977 151.84 -62.8236C153.959 -61.9433 150.427 -60.0006 152.372 -58.9469C153.426 -58.4155 155.371 -60.0006 154.317 -62.8236C155.371 -62.2911 155.904 -63.3545 156.785 -62.8236C156.252 -61.9433 155.371 -60.0006 154.849 -58.9469C155.371 -57.5266 157.839 -57.5265 158.381 -58.4155C157.839 -60.0006 157.839 -62.4747 159.261 -62.8236C160.317 -62.4747 161.206 -61.9433 162.261 -61.4119C162.793 -60.0006 160.317 -57.5266 159.784 -56.4728C160.317 -55.061 161.728 -55.5925 162.261 -56.4728C163.151 -58.4155 163.674 -59.4692 164.738 -61.4119C164.738 -61.4119 165.619 -60.881 166.682 -60.532C166.141 -59.4692 164.738 -58.9469 164.206 -58.058L164.738 -56.4728C168.619 -54.5387 166.682 -60.532 170.03 -60.0006C168.085 -58.4155 167.563 -57.5266 166.682 -55.5925C167.563 -55.061 169.151 -55.5925 169.151 -55.5925C171.095 -59.4692 173.04 -58.5894 175.866 -57.0037C168.085 -53.6498 162.793 -50.122 154.849 -46.7676C153.959 -47.299 153.426 -48.7102 152.372 -49.2331C154.491 -50.6534 157.317 -51.7071 160.317 -52.5961C162.261 -53.9976 159.784 -53.9976 158.729 -54.5387C155.904 -53.6498 153.426 -48.7102 149.537 -50.6534C150.427 -52.5961 153.959 -54.5387 152.904 -55.061C149.895 -58.9469 152.015 -50.6534 146.547 -52.0647C147.602 -53.9976 149.895 -56.4728 147.95 -57.5265C144.602 -57.8829 147.602 -51.5321 141.235 -53.4748C141.593 -54.5387 142.658 -56.4728 143.18 -57.5265L141.235 -58.4155C140.713 -57.5265 139.648 -55.41 139.3 -54.5387C139.3 -54.5387 137.703 -53.9976 136.823 -54.5387C137.171 -55.41 138.767 -55.9403 136.3 -58.4155C135.768 -57.3526 135.768 -55.061 133.291 -55.061C132.76 -56.4728 132.411 -57.8829 130.815 -57.3527C129.401 -57.0037 129.943 -55.41 130.815 -55.061C129.943 -55.41 128.347 -57.3527 126.403 -55.9403L126.933 -54.5387C123.044 -53.9976 119.154 -53.4748 115.275 -52.9445C115.275 -52.9445 114.742 -52.0647 114.211 -51.0018C119.697 -52.0647 123.577 -52.5961 128.869 -53.4748C128.52 -52.5961 127.457 -50.6534 126.933 -49.5894C129.401 -49.5894 129.943 -50.6534 131.346 -53.4748C131.346 -53.4748 132.76 -53.9976 133.824 -53.4748C131.879 -52.0647 130.465 -51.5321 129.401 -49.5894L129.943 -48.1788C133.291 -47.6468 133.824 -53.4748 137.171 -53.1184C134.877 -50.6534 132.411 -48.1788 130.998 -45.1813C135.235 -46.5936 135.768 -52.5961 141.593 -52.0647C138.245 -50.122 137.703 -46.7676 135.41 -44.2935C136.3 -43.7609 136.823 -44.651 137.703 -44.2935C140.713 -45.1813 140.713 -50.122 143.712 -51.1757C143.712 -51.1757 144.602 -50.6534 145.657 -50.122C144.602 -48.1788 141.593 -47.1165 140.181 -44.2935C144.07 -42.3508 145.124 -49.0592 148.483 -48.7102C146.015 -46.2361 145.124 -44.2935 141.768 -42.3509C142.658 -41.828 143.712 -41.296 143.712 -41.296C146.015 -43.7609 147.602 -46.7676 150.427 -47.6468C150.427 -47.6468 150.959 -46.2361 152.015 -45.7036C146.547 -42.3508 140.713 -37.9427 135.41 -36.8878C128.52 -35.4675 136.823 -42.3509 133.824 -43.7609C131.879 -44.651 131.879 -39.8853 129.943 -38.3002C123.577 -37.7676 129.943 -43.2386 128.869 -46.2361C127.998 -46.5936 126.933 -47.1165 126.575 -46.2361C126.575 -43.7609 125.522 -41.828 124.631 -39.8853C122.163 -42.1855 126.054 -45.1813 124.458 -47.1165C120.568 -49.0592 118.101 -44.119 115.806 -41.6444C116.687 -43.7609 117.751 -45.7036 116.156 -47.6468C115.275 -48.0043 113.861 -45.1813 113.861 -42.7084L112.265 -42.1855C111.743 -43.5876 115.275 -45.7036 112.265 -47.1165L110.852 -46.5936C110.33 -45.7036 110.33 -43.2386 109.799 -42.1855C107.854 -43.2386 108.908 -45.1813 108.385 -46.5936C105.908 -49.0592 106.44 -45.1813 106.44 -42.7084C105.386 -43.2386 105.028 -44.651 103.963 -45.1813C103.084 -45.5308 102.551 -44.651 102.028 -43.5876L102.551 -42.1855C101.497 -42.7084 99.5517 -43.5876 98.671 -44.119C97.0842 -43.5876 97.6065 -42.1855 98.671 -41.6444C92.6619 -42.1855 88.2401 -38.3002 82.9479 -37.2373C82.9479 -37.2373 82.4148 -36.3575 81.8834 -35.2941C84.8925 -33.8823 86.2955 -36.7053 88.7818 -36.7053C91.7806 -37.7676 93.7253 -39.1806 97.6065 -39.7108C97.0842 -38.8225 97.0842 -38.8225 96.1933 -39.1806L96.7263 -37.7676C99.0191 -37.7676 99.5517 -41.1232 103.084 -40.7657C102.551 -39.7108 101.497 -37.7676 102.551 -37.2373C105.908 -36.8878 103.441 -41.6444 107.854 -40.7657C106.973 -38.8225 105.028 -37.2373 103.963 -35.2941C108.385 -34.4149 108.908 -40.2428 112.797 -40.7657C112.797 -38.3002 109.449 -36.3575 108.385 -34.4149C112.797 -33.3509 112.265 -39.7108 117.22 -39.7108C115.275 -38.3002 114.742 -37.4101 113.861 -35.2941L114.211 -33.8823C116.329 -35.2941 118.274 -36.8878 119.697 -39.7108C120.568 -39.3533 120.568 -39.3533 121.632 -38.8225C119.697 -37.4101 117.751 -35.825 116.329 -33.0025C120.751 -31.9397 121.099 -37.7676 124.989 -38.3002C124.109 -36.3575 122.696 -35.825 121.632 -33.8823L122.163 -32.4717C124.631 -32.4717 126.054 -35.4675 126.933 -37.4101C127.998 -36.8878 129.053 -36.3575 129.053 -36.3575C129.053 -33.8823 126.575 -33.8823 124.989 -33.3509C124.109 -31.4082 126.575 -31.4083 126.575 -31.4083C128.52 -33.0025 129.401 -34.9452 130.998 -35.4675C130.998 -35.4675 131.879 -34.9452 132.933 -34.4149C125.522 -31.9397 120.218 -23.6559 112.449 -22.5931C113.861 -25.5889 114.742 -27.5315 117.22 -29.9965L116.687 -31.4083C113.33 -29.4742 111.385 -25.5889 109.972 -22.5931C108.908 -23.1148 108.027 -23.6559 106.973 -24.1782C108.385 -24.5357 111.916 -28.9439 108.908 -30.529L107.504 -29.9965C106.973 -28.9439 107.854 -28.5944 107.504 -27.5315C106.44 -25.5889 105.908 -24.5357 101.497 -25.5889C103.614 -27.0001 102.551 -29.9965 102.551 -32.4717C102.028 -33.8823 100.606 -33.3509 100.083 -32.4717C99.2018 -30.3545 99.5517 -28.9439 99.5517 -26.4687L98.1379 -26.1209C98.1379 -28.4119 99.5517 -33.8823 95.6613 -33.3509C93.7252 -31.9397 96.1933 -29.4742 95.1396 -27.5315C95.1396 -27.5315 93.7252 -27.0001 92.8365 -27.5315C92.8365 -29.9965 91.2498 -31.9397 89.836 -33.8823C88.7818 -34.4149 86.8372 -32.8297 87.3594 -31.4083C87.8914 -29.9965 90.7173 -28.4119 90.3588 -27.5315C86.4793 -24.5357 86.8372 -30.3545 84.0016 -31.9397C84.0016 -31.9397 82.4148 -31.4083 82.0569 -30.3545C81.0022 -28.4119 84.3594 -27.889 84.0016 -27.0001C82.4148 -26.4687 84.0015 -22.0605 79.0575 -29.4742C79.0575 -29.4742 77.6449 -28.9439 77.1215 -27.889C77.9936 -27.5315 77.6449 -26.4687 78.5353 -25.9464C77.1215 -25.4149 74.1129 -27.0001 73.7551 -23.4723C74.1129 -22.0605 77.1215 -23.1148 78.5353 -23.4723C77.9936 -22.5931 76.5906 -22.0605 78.5353 -20.9982C81.0021 -21.1716 80.4702 -25.0574 82.9479 -25.0574C82.4148 -24.0037 79.0575 -22.0605 82.4148 -21.5297C85.9468 -21.1716 84.0016 -27.0001 89.304 -25.5889C87.3594 -24.0037 85.9468 -23.4723 84.8926 -21.5297L85.4234 -20.1179C89.304 -20.6493 89.836 -26.4687 96.1933 -24.5357C94.2486 -23.1148 91.2498 -22.0605 89.304 -20.6493C88.9553 -19.587 89.304 -18.1752 89.304 -18.1752C93.7252 -19.587 96.7264 -25.5889 103.084 -23.6559C100.083 -22.5931 96.7264 -20.6493 94.2486 -18.1752L94.7812 -16.764C98.1379 -18.7066 101.67 -20.6493 105.028 -22.5931C105.028 -22.5931 105.908 -22.0605 106.973 -21.7133C103.963 -20.6493 102.028 -19.2381 100.083 -17.6529L100.606 -16.2422C103.963 -18.1752 106.44 -20.6493 110.852 -19.7706C103.084 -16.2422 98.671 -9.88174 90.8999 -6.52729C91.7806 -8.47051 95.3125 -10.4132 92.304 -14.2996L90.8999 -13.767C89.836 -11.8244 91.4227 -7.41621 88.4239 -6.35337L86.4793 -7.41622C87.0107 -8.47051 90.8999 -8.81889 87.0107 -10.7615C84.5347 -10.7615 84.5347 -8.47051 84.0016 -7.41622C82.9479 -7.94878 82.0569 -8.29659 82.0569 -8.29659C82.0569 -10.7615 84.8925 -11.8244 84.0016 -14.8207C82.9479 -15.1788 83.4787 -16.2422 82.598 -16.764L81.0022 -16.2422C80.4702 -12.7048 82.0569 -10.7615 79.5895 -8.29659L77.6449 -9.35944C78.5353 -11.3021 76.5907 -14.6474 74.646 -15.7097C74.1129 -14.6474 73.7551 -13.767 73.7551 -13.767C74.1129 -12.3558 76.2328 -11.3021 75.1769 -9.35944C71.8104 -7.41622 70.7557 -12.7048 70.7557 -15.1788L68.8196 -16.2422C68.8196 -16.2422 68.2888 -15.1788 67.7557 -14.2996C68.2888 -12.7048 68.8196 -11.3021 69.3424 -9.88175C68.2888 -10.2393 67.7557 -9.35945 66.875 -9.88175C67.7557 -11.8244 65.8111 -12.7048 65.4532 -14.2996C64.3984 -14.6474 62.9852 -14.1245 62.9852 -14.1245C61.0405 -12.7048 63.8664 -11.3021 64.3984 -9.88175C62.9852 -9.35945 61.3893 -8.8189 60.5177 -9.35944C59.0959 -11.3021 59.4538 -14.6474 56.9772 -14.6474C55.5646 -14.1245 55.5646 -11.6505 58.0406 -9.35944C54.1513 -6.35338 55.0326 -10.7615 52.2158 -12.1819C51.1519 -12.7048 50.6199 -11.6505 49.7387 -12.1819C50.2706 -10.7615 51.6747 -8.81889 52.7387 -8.29659C49.7387 -7.23375 44.2627 -8.81889 44.7855 -4.94214C44.2627 -3.88842 48.326 -6.88481 50.2706 -5.83109C49.7387 -4.94216 48.6753 -2.8256 49.7387 -2.46809C52.2158 -2.46809 52.2158 -7.41621 56.6279 -6.35337C55.0326 -5.83107 53.0874 -4.41073 53.6194 -2.9995C54.1513 -1.41322 55.5646 -1.94578 56.096 -2.9995C57.5092 -5.83108 59.9869 -8.2966 63.5085 -7.76404C61.3893 -6.35338 59.9869 -3.35702 59.0959 -1.41323C62.9851 0.529418 61.9218 -4.94214 64.3984 -4.94214C64.9298 -5.83107 65.4532 -6.8848 65.8111 -7.76404C67.3978 -8.2966 68.2888 -7.94878 69.3424 -7.41622C67.3978 -5.83108 65.8111 -2.99951 64.9298 -1.05686L65.4532 0.529434C68.8196 -1.41321 68.2888 -5.47357 71.8104 -7.41622C73.2322 -7.94878 74.2882 -7.41623 75.1769 -6.88481C73.2322 -5.47358 71.8104 -2.46809 69.8755 -1.05686C68.8196 0.877235 71.2876 0.877258 71.2876 0.877258C73.7551 -1.58826 77.1215 -3.53093 77.6449 -6.88481C78.5353 -6.35339 79.5895 -6.00613 79.5895 -6.00613C79.0575 -2.46808 75.1769 -1.94578 74.646 1.40867C79.5895 1.40867 79.5895 -3.53093 82.9479 -5.47358C82.0569 -3.53093 80.6528 -2.99951 79.5895 -1.05686L80.1123 0.344681C84.0016 -0.00256681 81.5341 -7.41622 89.836 -4.41073C83.4787 0.877249 78.7082 5.8254 72.3509 11.2964C72.3509 11.2964 71.2876 10.7661 70.4063 10.2336C72.351 8.8229 71.8104 4.93645 71.2876 3.35131C69.8755 1.40866 69.8755 3.88275 69.3424 4.93647C69.3424 7.23663 69.8755 8.8229 67.9309 10.2336C67.9309 10.2336 66.343 10.7661 65.4532 10.2336C65.4532 7.76804 65.4532 5.29396 65.4532 2.9938C64.3984 2.46238 62.9852 2.9938 62.9852 2.9938C61.0405 4.40503 65.4532 7.76803 63.5085 9.35374C58.5725 11.8187 61.5736 5.8254 59.9869 3.88275C59.0959 3.35133 57.5092 6.34768 57.5092 8.82289C56.6279 8.2909 56.0959 9.35374 55.2061 8.82289C57.1513 7.41052 56.096 4.40504 54.6833 2.46239C53.6194 1.94009 52.7387 1.40867 52.7387 1.40867C51.1519 1.94009 50.794 2.99381 53.0874 5.46788C53.6193 6.88025 53.2718 7.76803 52.7387 8.82289C51.1519 9.35374 50.2706 8.82288 49.2067 8.29089C48.8488 6.88023 49.7387 2.46239 47.2621 2.46239C45.8494 2.99381 47.2621 7.41051 46.9042 8.29089C43.3729 10.2335 43.3729 5.46789 41.9688 3.52524C40.3729 1.59228 40.3729 3.88275 40.0241 4.93647C39.4922 6.00045 40.0241 7.41052 40.3729 8.82289C39.4922 8.2909 38.9602 9.35374 38.0795 8.82289C38.9602 6.88024 37.0156 6.00043 36.4836 4.40503L35.071 4.93647C34.0156 6.88026 35.071 7.41052 35.6029 8.82289C33.1258 8.82289 32.071 6.00043 29.6035 6.00043L28.7137 7.9431C28.7137 7.9431 29.6035 8.46537 30.6583 8.82289C28.1817 11.2964 25.365 7.41052 22.3565 8.46537C22.3565 8.46537 22.8884 9.88573 23.7691 10.4086C18.9986 12.8815 12.9992 12.3512 9.64192 16.7594C14.5774 16.7594 18.4666 13.7613 22.3565 13.2299C21.3017 15.1737 14.5774 16.7594 21.3017 17.6472C24.8239 18.1792 23.2371 11.2964 29.2457 11.8187C29.2457 14.2939 25.365 17.2897 27.8324 17.1164C30.6583 18.7021 29.7771 10.7661 34.5476 10.7661C33.6669 12.7088 31.1903 15.1737 31.1903 17.6472C31.1903 17.6472 33.1258 18.7021 33.6669 17.6472C36.1349 15.1737 35.6029 8.8229 40.9048 10.2336C40.0241 12.3513 38.9602 14.2939 38.0795 16.2365C38.0795 16.2365 38.9602 16.7594 40.547 16.2365C44.4368 15.7046 38.0795 8.82289 46.9042 10.7661C43.3729 12.7088 41.4368 16.5844 40.9048 20.1122C41.4368 21.5234 43.3728 20.1122 43.9134 19.0499C46.9042 15.7046 45.8494 10.2336 53.2718 10.2336C50.2707 11.2964 50.794 15.1737 47.2621 17.1164L47.7941 18.527C51.6747 18.1792 53.2718 12.7088 55.5646 10.2336C57.1513 9.70214 58.0405 10.2335 59.0959 10.7661C55.5645 12.7088 55.7392 17.6472 52.2158 19.5899L52.7387 20.9925C56.6279 18.1792 58.0406 10.2336 64.9298 11.2964C62.4538 13.7614 60.5177 15.1737 59.0959 18.1792C64.0411 17.9956 65.4532 10.2336 70.4063 12.7088C66.875 14.6417 65.4532 17.6472 62.9852 20.1122C62.4538 20.9925 60.5177 22.4123 59.0959 22.9352C58.2152 24.8778 56.6279 25.4104 55.7392 27.353C54.1513 27.8833 53.2718 29.826 51.8574 30.3488C50.794 32.2915 49.9128 34.2341 48.326 34.7667C47.4373 34.2341 46.3814 33.7039 45.4927 33.3464C48.8489 31.4037 49.3819 27.8833 50.794 24.8778C49.7387 24.53 48.8488 23.998 48.8488 23.998C47.4373 26.9955 45.8494 32.2915 43.0247 33.3464C39.4922 35.289 41.9688 27.8833 43.3729 25.0614C43.3729 25.0614 41.4368 23.998 40.9048 25.0614C40.0241 26.9955 38.6023 29.826 38.6023 32.2915C34.7228 30.3489 38.9602 26.4732 36.1349 25.0614C35.6029 30.8808 35.6029 33.3463 29.2457 31.4037C30.3004 29.4685 33.1258 25.9407 30.6583 25.9407C27.8324 24.53 28.3656 33.3464 23.4204 30.8808C21.4752 30.001 23.4204 25.9407 21.8245 23.998C19.8799 25.5832 20.9432 28.4056 20.9432 30.8808L19.5305 31.4037C20.9432 28.4056 17.054 26.4732 18.4666 23.6502L17.054 23.998C15.9992 26.1157 15.9992 28.4056 17.054 31.4037C15.9992 30.8808 14.5774 31.4037 14.5774 31.4037C14.054 30.001 13.5226 26.1157 11.0546 26.1157C9.64192 26.4732 10.1648 30.5324 11.5774 32.4665C10.1648 32.8235 9.10997 32.4665 7.69731 32.8235C7.69731 30.5324 8.75209 28.4056 7.16477 26.4732C6.27551 28.5892 7.16477 31.4037 6.27551 33.3464C4.33032 34.9406 6.27552 30.8808 3.8075 30.8808C2.39484 31.4037 2.39482 31.4037 1.86286 32.4665L2.39484 33.8766C0.450216 35.289 -3.97157 34.4092 -5.55832 37.4147C-2.54978 38.8259 0.808098 34.4092 3.8075 35.8193C3.27554 36.8833 1.34006 38.2945 2.75272 40.2371C5.75212 36.8833 7.69731 32.8235 13.1733 34.4092C11.2287 35.8193 8.22013 36.8833 7.16477 38.8259L7.69731 40.2371C13.1733 39.1743 13.1733 31.9437 20.9432 33.3464C17.5859 35.289 12.6413 37.7625 14.054 42.1701C17.9438 39.1743 20.4118 34.4092 24.8239 32.8235C22.3565 35.289 19.5306 38.8259 20.0637 42.7027C24.3011 41.1175 22.8884 34.4092 27.3005 32.8235C28.7137 32.2915 30.6583 33.3464 31.7222 33.8766C28.7137 34.7667 28.3656 38.2945 27.3005 40.2371C27.3005 40.2371 27.8324 41.649 28.7137 42.1701C30.3005 39.1743 30.6583 35.8193 33.1258 33.3464C33.6669 32.2915 35.6029 33.3464 36.6674 33.8766C35.071 36.6997 33.6669 39.7052 32.2451 42.7027C32.2451 42.7027 32.7782 44.1127 33.6669 44.6453C35.071 41.6489 36.1349 37.2316 38.6023 34.7667C39.1354 33.8766 41.0801 34.7667 41.9688 35.289C40.0241 36.6997 39.1354 38.6423 38.0795 40.585C41.0801 39.7051 42.4922 36.6997 44.4368 35.289C44.4368 35.289 45.4927 35.8193 46.3814 36.1768C39.4922 44.9931 30.833 52.9388 25.0071 62.2865C23.9432 61.7637 23.4204 60.1785 23.4204 60.1785C24.4763 55.7618 29.7771 52.4068 28.7137 47.1194C28.7137 47.1194 25.8878 45.5257 25.8878 47.9998C25.8878 52.9388 21.9986 55.9357 20.9432 60.1785C20.0637 59.821 18.9986 59.2896 18.119 58.7673C21.9986 55.9357 22.3565 49.9333 23.4204 45.5257L21.4752 44.6453C18.119 49.0535 20.5853 56.2932 14.5774 58.2359C15.1185 54.8814 18.1191 51.5275 15.9992 47.9998C15.6413 49.0535 14.5774 48.5306 14.054 49.5849C14.054 51.8765 13.6967 55.4129 12.6413 57.3469C11.2287 57.8784 9.28406 56.8247 7.69731 57.3469C8.7521 55.4129 10.1648 52.4068 11.2287 50.4738C11.5774 49.5849 10.6967 49.0535 9.64192 48.5306L8.22015 49.0535C9.28407 52.059 9.28406 54.3494 6.81604 56.8246H4.33031C2.39482 53.4702 5.22014 50.1163 4.33031 47.1194L2.92679 47.6422C1.34004 50.4738 3.27553 54.0016 1.86286 56.8246C0.450205 57.3469 -2.02636 57.3469 -3.43046 57.8784C-3.43046 55.4128 -0.0817409 50.9961 -3.43046 48.1737C-5.02634 50.9961 -4.49438 54.8814 -5.02634 58.4098C-5.90704 60.3524 -9.79686 60.885 -11.3836 58.9412C-11.3836 56.4671 -9.43899 52.5915 -10.3283 49.5849C-11.9156 52.5915 -12.7963 56.9986 -13.3282 60.3524C-13.3282 60.3524 -15.7963 60.3524 -17.2089 60.885C-16.1541 58.9412 -16.6861 57.3469 -17.2089 55.9357C-18.6307 54.0016 -19.1535 57.3469 -19.1535 57.3469C-15.2643 64.2292 -22.1621 63.3494 -26.0428 66.1718C-22.5114 69.1785 -19.6855 63.3494 -16.1541 63.7063C-17.7409 64.2292 -19.1535 64.7606 -18.6307 66.1718L-16.6861 67.2358C-13.6775 63.7063 -11.7415 59.821 -7.32027 60.885C-9.43898 62.2865 -9.79686 63.3494 -10.8516 65.292L-10.3283 66.7032C-6.96241 64.7606 -5.02636 60.885 -0.604584 59.2896C-2.02638 62.2865 -5.37566 64.2292 -5.90705 67.5836C-0.963024 65.292 0.981607 58.7673 6.81604 59.2896C4.33033 61.7637 -0.604578 64.2292 0.981598 68.6459C6.27551 67.5836 4.87141 60.885 9.28405 59.2896C10.6967 58.7673 11.7618 59.2896 12.6413 59.821C10.6967 63.7063 4.8714 65.6404 5.92733 71.1211C9.81657 68.115 10.6967 63.7063 14.5774 60.71C15.6413 58.7673 17.054 60.71 17.054 60.71C16.522 64.2292 10.1648 67.0608 11.7618 71.4689C15.6413 68.6459 17.054 58.2359 22.8884 63.7063C17.5859 72.0003 10.3388 79.4146 5.92733 88.2298C4.8714 87.7086 2.92681 86.6446 1.51472 87.1761C4.33033 83.8228 3.98157 79.9363 5.92733 75.8771C4.8714 75.5293 3.45933 75.8771 3.45933 75.8771C2.9268 79.4146 2.03695 83.8228 -0.429924 86.2871C-0.429924 86.2871 -2.02635 86.8186 -2.90763 86.2871C-0.963007 82.4104 1.5147 77.4719 -0.429924 73.9339C-3.97157 76.051 -0.963025 82.4104 -4.84257 85.2334C-4.84257 85.2334 -6.439 85.7654 -7.32027 85.2334C-6.78717 81.879 -3.97157 78.3512 -4.84257 75.5293C-5.37567 73.9339 -7.32029 75.5293 -7.85225 76.4085C-8.38364 79.9363 -7.85225 83.8228 -9.26491 84.3531C-14.7415 85.2334 -7.85224 78.8826 -11.7415 76.94C-13.1444 79.9363 -12.2734 82.943 -13.1444 84.8856L-14.7415 85.2334C-17.2089 82.9429 -15.6222 79.9363 -16.6861 76.94C-17.2089 77.9937 -18.0987 77.4719 -18.6307 78.5251C-18.6307 80.9997 -18.6307 83.2908 -17.2089 85.2334C-18.0987 84.8856 -19.5114 85.2334 -19.5114 85.2334C-20.0434 83.8227 -18.6307 80.9997 -20.0434 78.8826L-21.6313 79.4146C-22.5114 81.3572 -21.9794 82.943 -21.9794 85.4079C-23.0433 84.8856 -23.5759 85.7654 -24.456 85.4079C-26.4006 84.3531 -21.9794 80.4677 -25.5108 79.9363C-26.9326 80.4677 -28.3452 83.4732 -26.4006 86.8185C-27.4554 86.2871 -27.8133 87.3505 -28.8772 86.8185C-27.9874 84.8856 -29.9331 83.8228 -30.2899 82.4104L-31.8778 82.9429C-31.3452 84.353 -30.8133 85.7654 -30.2899 87.3505L-31.8778 87.8814C-32.7579 87.3506 -31.8778 85.4079 -32.7579 84.8856C-33.8127 84.353 -34.3446 85.4079 -34.7025 86.2871L-34.3446 87.8814L-35.7579 88.2298C-36.6471 87.8814 -36.2893 86.8186 -37.1791 86.2871C-38.235 85.9382 -38.5923 86.8186 -39.1151 87.8814C-38.235 88.2298 -38.5923 89.2932 -37.7025 89.8235C-40.1796 92.2884 -41.0598 86.8185 -44.0597 90.3458L-43.5364 91.7661L-42.1151 91.2359C-44.5917 93.7088 -49.3622 93.7088 -51.3068 97.5867C-46.5375 97.5867 -43.005 93.1688 -38.5923 91.7661C-39.1151 92.6465 -40.1796 94.5812 -39.1151 95.1114C-35.2345 94.5812 -37.1791 88.7606 -30.2899 89.8235C-30.8133 90.7033 -32.7579 92.1156 -33.2898 93.1688C-32.2259 93.7088 -32.2259 93.7088 -31.3452 94.2317C-30.8133 90.7033 -26.9326 87.7086 -23.5759 88.2298C-25.5108 89.8234 -26.4006 91.7661 -27.4554 93.7087L-26.9326 95.1114C-23.0433 92.1157 -23.5759 85.7654 -16.6861 86.8185C-18.0987 89.6507 -20.0434 91.2359 -20.5753 94.5812C-20.5753 94.5812 -18.6307 95.644 -18.0987 94.5812C-16.6861 91.5837 -16.6861 89.2932 -14.2095 86.8185C-13.6775 85.7654 -11.7415 86.8186 -10.6776 87.1761C-13.1444 89.6507 -15.6222 92.1156 -16.1541 95.644C-16.1541 95.644 -14.2095 96.5221 -13.6775 95.644C-13.1444 92.1156 -10.6776 89.6507 -8.38364 87.1761C-7.85225 86.2871 -5.90706 87.1761 -4.84257 87.7086C-7.32029 90.173 -9.2649 91.5837 -9.79686 95.1114C-9.79686 95.1114 -9.26491 96.5221 -8.21012 97.0541C-6.78719 91.5837 -2.37568 85.2334 3.45933 90.7032C-0.963019 97.0541 -5.37565 103.415 -8.73179 110.288C-9.79685 109.773 -12.0902 109.773 -13.1444 109.224C-11.7415 106.402 -9.79687 102.352 -12.2734 100.06C-14.5668 102.352 -12.6222 108.346 -17.0337 109.773C-18.0987 106.768 -15.6222 104.46 -16.6861 101.472L-18.0987 102.002C-19.5114 104.825 -18.6307 107.833 -19.5114 109.773C-20.0434 110.819 -21.9794 109.773 -23.3909 110.288C-21.9794 107.283 -20.5753 104.46 -21.0987 100.409L-22.5114 100.94C-23.924 103.947 -25.3361 106.933 -24.988 110.819C-25.8687 110.288 -27.2819 110.819 -27.2819 110.819C-28.3452 107.833 -25.8687 105.338 -26.9326 102.517C-28.3452 105.338 -28.3452 107.833 -29.7482 110.819L-31.3452 111.351C-31.3452 108.876 -30.2899 106.933 -31.3452 103.947C-32.2259 105.888 -32.7579 109.408 -33.638 111.351L-35.2345 111.698C-34.7025 110.819 -33.638 108.876 -34.1711 107.283L-36.1157 106.402C-38.0507 107.833 -35.2345 111.698 -40.5278 112.761C-39.6471 110.819 -38.5923 108.876 -40.1796 106.933C-40.5278 107.833 -41.5917 107.465 -42.1151 108.346C-43.005 110.288 -37.7025 111.698 -44.9496 114.174C-44.9496 111.883 -44.0598 109.773 -44.9496 106.933C-47.417 109.408 -45.4815 112.761 -46.3622 114.704L-47.949 115.236C-48.4821 113.824 -46.5375 109.773 -48.8388 109.773C-50.7749 111.351 -47.417 116.649 -52.3616 116.649C-51.8388 115.749 -51.3068 114.704 -50.7749 113.824L-52.9021 112.761C-53.7834 114.704 -53.2515 116.299 -54.3063 118.242L-55.728 118.59C-56.784 118.242 -56.784 115.749 -58.1961 116.299C-59.6087 116.649 -57.1407 119.122 -57.6641 120.185C-60.1407 122.64 -64.0299 123.172 -66.4979 125.463C-67.0305 126.526 -66.4979 127.938 -65.0858 127.59C-63.1412 125.995 -61.0214 124.585 -59.0865 123.172C-59.6087 124.053 -60.6635 125.995 -59.6087 126.526C-56.2509 127.058 -56.784 120.699 -53.7834 119.634C-53.2515 121.065 -55.1961 125.116 -52.7195 124.95C-50.7749 123.52 -53.2515 118.59 -47.949 117.692C-48.8388 119.634 -52.3616 124.053 -48.8388 127.058C-46.8942 123.008 -47.949 117.692 -41.5917 114.704C-39.6471 118.059 -46.0044 121.065 -42.473 124.053C-40.5278 120.185 -40.5278 112.761 -36.6471 114.704C-34.1711 114.704 -39.9953 119.122 -36.6471 122.127C-34.1711 119.634 -37.7025 114.174 -30.8133 112.761C-31.1711 116.116 -34.7025 118.059 -33.638 121.065C-28.3452 120.002 -32.7579 111.698 -24.456 112.231C-25.8687 115.236 -24.8139 118.059 -28.8772 121.065C-29.2265 122.127 -28.3452 122.457 -28.8772 123.52C-24.8139 120.515 -24.8139 115.584 -22.8693 111.698C-22.8693 111.698 -20.5753 111.698 -19.5114 112.231C-17.5668 115.584 -22.5114 118.059 -22.8693 121.578C-19.5114 119.634 -16.512 116.116 -17.0337 112.231C-14.5668 112.231 -12.6222 110.819 -9.79686 112.231C-14.5668 119.47 -18.4566 127.405 -23.3909 134.812C-24.2819 134.297 -26.7585 134.297 -27.8133 133.767C-25.8687 132.356 -23.3909 129.881 -22.3373 127.938L-22.8693 126.343C-26.4006 128.471 -26.7585 131.823 -30.2899 133.767C-30.2899 131.291 -29.7482 130.412 -27.2819 127.938C-26.7585 126.893 -27.8133 126.343 -27.2819 125.463C-32.7579 126.526 -30.6392 132.356 -33.1158 134.812C-33.1158 134.812 -34.7025 135.177 -35.5838 134.812C-34.1711 131.823 -34.7025 127.938 -32.2259 125.463C-33.1158 124.95 -34.7025 125.463 -34.7025 125.463C-38.5923 128.471 -36.6471 136.754 -40.5278 134.812C-41.4176 134.297 -38.0507 129.881 -39.9953 128.818C-43.005 127.405 -41.941 132.868 -43.3623 135.692L-44.9496 136.241C-46.3622 134.297 -43.8857 131.823 -44.9496 129.001C-45.8303 128.471 -46.8942 127.938 -47.417 129.001C-48.8388 131.823 -47.417 133.767 -46.3622 136.754C-47.417 136.241 -47.7749 137.304 -48.8388 136.754C-48.8388 134.297 -44.4176 132.868 -48.2972 130.926L-49.8942 131.291C-50.7749 133.419 -50.7749 135.692 -50.7749 138.182C-53.2515 135.692 -49.3622 132.869 -51.8388 130.412L-53.2515 130.926C-53.2515 133.419 -53.7834 136.754 -53.7834 139.227C-54.6641 138.697 -55.1961 139.76 -56.2509 139.227C-56.599 137.817 -51.8388 135.361 -56.599 135.361C-57.6641 134.812 -58.1961 138.182 -58.1961 140.64L-59.6087 141.172C-58.5448 139.227 -60.6635 135.874 -62.0853 136.241C-64.9112 137.304 -60.1407 139.76 -61.0214 141.703C-64.0299 145.058 -64.0299 140.292 -65.966 139.227L-67.3883 139.76C-68.4426 141.703 -64.0299 142.582 -65.966 144.178C-68.4426 144.178 -71.8004 141.172 -73.745 142.765L-73.2131 144.178C-72.3318 144.708 -69.8552 144.708 -68.9654 145.058C-70.3872 148.044 -74.2679 143.645 -76.7444 146.12L-76.2125 147.531C-75.3324 148.044 -73.745 147.531 -72.8552 148.044C-75.6908 151.581 -82.0469 151.929 -83.6348 157.41L-81.515 158.289C-79.2125 155.999 -77.6354 152.994 -74.7998 151.929C-75.1486 152.994 -76.2125 154.934 -75.1486 155.467L-73.745 154.934C-72.8552 152.994 -74.7998 149.474 -69.3233 148.593C-69.8552 149.474 -71.2685 152.479 -70.3872 152.994C-66.8467 153.359 -68.4426 146.651 -64.5528 146.12C-65.4426 148.044 -66.4979 149.986 -65.966 151.416C-65.4426 152.993 -64.0299 152.479 -63.498 151.416C-63.498 148.943 -64.9112 146.998 -62.966 145.588C-62.4346 144.708 -61.5533 145.058 -61.0214 144.178C-62.4346 146.998 -65.4426 150.537 -62.4346 154.404L-61.0214 153.874C-59.0865 149.986 -61.5533 142.582 -56.0774 141.703C-57.6641 144.526 -59.6087 148.593 -56.0774 151.416L-54.6641 150.884C-53.7834 146.468 -56.2509 139.227 -49.3622 140.127C-48.2972 143.113 -50.2429 146.998 -49.3622 149.986C-47.417 146.12 -47.7749 142.05 -47.417 138.697C-46.8942 137.634 -44.4176 137.634 -43.3623 138.182C-42.473 141.172 -44.4176 145.058 -43.3623 148.044L-41.941 147.531C-41.4176 143.993 -41.4176 141.703 -41.0598 138.182C-40.5278 137.304 -38.0507 137.304 -38.0507 137.304C-35.0604 141.172 -38.0507 144.526 -37.5284 148.411C-36.9964 147.53 -36.1157 148.044 -35.5838 146.999C-34.1711 143.993 -36.9964 140.127 -35.5838 137.304C-35.0604 136.241 -32.7579 136.241 -31.6934 136.754C-30.6392 137.122 -31.6934 139.227 -33.638 140.64C-34.1711 141.519 -33.1158 142.05 -33.638 143.113C-29.7482 142.582 -31.1711 138.182 -29.2265 136.754C-27.8133 136.241 -25.8687 137.122 -24.2819 136.754C-29.2265 146.468 -34.5284 157.244 -39.473 167.106C-39.9953 167.986 -42.2978 167.986 -43.3623 167.655C-44.4176 164.651 -41.4176 161.13 -41.941 157.244C-41.941 157.244 -42.473 155.814 -43.3623 155.302C-45.2983 159.187 -44.4176 164.651 -47.2435 167.986L-49.1881 167.106C-47.7749 164.118 -46.3622 161.295 -47.2435 158.289C-47.7749 161.644 -52.1875 163.238 -50.7749 167.655C-51.6647 167.106 -52.1875 167.986 -53.0774 167.655C-52.7195 164.118 -50.2429 159.352 -51.6647 157.244C-55.1961 151.929 -53.6002 158.82 -54.1322 159.7C-54.1322 162.175 -55.5454 165.163 -54.6641 167.986L-56.0774 168.536C-58.022 165.163 -56.0774 161.295 -57.1407 158.289L-58.5448 158.82C-61.5533 162.175 -58.022 165.163 -58.5448 168.536L-59.9666 169.048C-59.9666 166.593 -59.6087 163.238 -61.0214 161.295L-62.4346 161.828C-64.0299 164.651 -59.9666 166.593 -62.4346 169.048L-63.8473 169.599C-65.966 166.226 -61.9026 163.238 -64.0299 159.7L-65.4426 160.233C-65.966 163.77 -67.3883 166.593 -66.8467 170.643C-70.7365 168.536 -64.9112 164.118 -70.3872 165.163C-71.8004 165.713 -69.8552 169.048 -69.8552 171.541C-72.6811 170.111 -71.8004 165.713 -74.2679 165.713C-76.2125 167.106 -72.3318 169.048 -72.3318 171.541C-72.3318 171.541 -73.745 172.054 -74.2679 172.934C-75.1486 170.111 -77.0938 169.048 -79.0384 168.169C-80.1023 170.111 -79.5703 171.541 -76.5704 173.117C-79.5703 173.997 -82.0469 171.541 -83.9927 173.117C-84.5144 173.997 -83.4596 174.529 -82.5697 175.059C-84.5144 176.472 -88.4042 174.529 -88.9361 177.882C-88.4042 179.46 -86.4596 177.882 -85.0463 177.517C-86.9915 178.947 -88.9361 180.338 -89.8168 182.283C-90.3499 183.345 -89.8168 184.756 -88.4042 184.223C-84.8722 182.283 -83.4596 179.46 -80.1023 177.517C-80.983 179.46 -82.0469 181.402 -82.0469 183.893C-77.0938 181.402 -79.5703 173.997 -72.6811 175.059C-74.6257 176.472 -76.5704 177.882 -76.5704 180.338C-76.5704 180.338 -76.2125 181.768 -75.1486 182.283C-74.6257 178.947 -70.7365 175.94 -69.3233 172.934C-69.3233 172.934 -67.9106 172.587 -66.8467 172.934C-66.8467 175.409 -70.7365 178.397 -68.2685 178.397C-65.4426 179.825 -66.3239 172.054 -62.4346 171.541C-62.4346 173.997 -63.8473 176.82 -64.9112 178.947C-63.8473 179.295 -62.966 179.825 -62.966 179.825C-60.4894 177.352 -63.8473 172.054 -57.1407 170.479C-55.022 173.997 -61.3793 176.82 -58.022 179.825C-57.49 176.472 -57.1407 172.934 -54.6641 170.479C-54.6641 170.479 -53.0774 170.111 -52.1875 170.479C-54.6641 172.934 -53.6002 175.94 -54.1322 179.295L-52.1875 180.338L-51.1328 178.397C-53.0774 174.876 -49.7195 172.934 -50.7749 169.928C-49.1881 169.599 -48.2972 169.928 -46.7104 169.599C-48.2972 172.421 -49.7195 175.409 -49.7195 177.882C-49.1881 179.295 -47.7749 178.762 -47.2435 177.882C-46.7104 174.347 -45.8303 172.421 -44.4176 169.599C-43.8857 168.536 -41.941 169.599 -40.8857 169.928C-44.7755 177.882 -46.1796 185.654 -50.0688 193.59C-50.0688 193.59 -52.5448 193.59 -53.6002 193.059C-51.6647 191.464 -51.6647 186.698 -54.1322 186.698C-55.5454 187.231 -54.1322 191.647 -56.0774 193.059C-56.0774 193.059 -57.49 193.59 -58.5448 193.059C-60.4894 191.996 -56.599 189.173 -58.5448 188.109C-60.4894 187.231 -61.0214 190.584 -60.8467 193.059C-61.3793 193.939 -62.4346 193.59 -63.8473 194.122C-62.966 191.996 -62.966 189.704 -63.3239 188.109C-63.8473 186.698 -65.4426 187.231 -65.7919 188.109C-68.2685 190.584 -62.966 194.469 -68.7913 194.122C-71.2685 194.122 -68.2685 190.584 -69.6811 188.641L-71.2685 189.173C-69.6811 191.116 -70.2045 194.469 -71.6263 195.002C-74.0938 195.002 -72.6811 189.704 -75.6908 190.584C-76.0384 191.647 -75.6908 193.059 -74.0938 195.002C-77.0938 196.064 -77.0938 191.116 -79.5703 191.116C-80.983 191.647 -80.1023 194.634 -77.0938 196.064C-79.0384 197.457 -80.451 195.515 -81.515 195.002C-82.0469 193.59 -83.4596 191.647 -84.5144 193.59C-85.9373 194.122 -83.4596 196.577 -81.515 197.457C-83.4596 196.577 -85.9373 196.577 -87.3403 197.109C-88.7529 197.457 -88.4042 199.052 -87.3403 199.4C-86.4596 199.95 -85.9373 199.052 -84.8722 199.4C-88.4042 201.343 -92.8168 202.938 -94.7614 206.823L-92.6427 207.868C-90.6981 206.291 -89.2849 203.47 -86.4596 202.405C-87.8722 205.411 -88.7529 207.356 -90.3499 210.177C-90.3499 210.177 -89.8168 211.754 -88.7529 212.121C-86.2855 207.356 -84.8722 201.893 -80.1023 199.4C-82.9276 202.938 -83.4596 206.291 -81.8728 210.691C-81.515 209.646 -79.9282 209.297 -79.9282 209.297C-80.451 205.411 -79.5703 200.995 -75.6908 198.007C-77.0938 200.995 -77.6354 204.348 -77.9836 207.704L-76.0384 208.766C-74.0938 204.881 -75.6908 200.463 -72.6811 196.945C-72.6811 196.945 -71.2685 196.412 -70.2045 196.945C-70.7365 200.463 -72.1492 203.286 -72.1492 205.761C-71.6263 207.171 -70.2045 206.823 -69.6811 205.761C-69.1486 202.405 -69.6811 198.52 -67.2034 196.064C-66.8467 195.002 -64.9112 196.064 -63.8473 196.412C-65.2691 199.4 -67.2034 203.286 -66.8467 207.171C-60.8467 207.704 -65.2691 201.893 -62.4346 200.83C-61.9027 199.95 -61.9027 197.457 -62.4346 196.064C-60.8467 195.515 -59.9666 196.064 -58.5448 195.515C-58.022 199.4 -60.8467 202.773 -61.3793 206.291C-55.022 205.761 -58.9015 198.887 -56.0774 195.515C-54.4815 195.002 -52.5448 195.882 -51.1328 195.515C-54.1322 203.818 -57.49 213.182 -59.4346 221.815C-66.3239 223.411 -58.9015 218.462 -63.3239 215.127C-64.3792 217.067 -64.3792 219.525 -65.2691 221.467C-69.6811 217.948 -64.3792 214.577 -67.7365 211.589C-69.1486 214.577 -69.6811 217.948 -67.7365 221.467L-69.1486 221.998C-68.6178 218.462 -71.0944 216.007 -73.571 213.697C-75.1486 216.519 -69.6811 217.948 -71.6263 221.998L-73.0299 222.348C-76.0384 220.936 -76.5704 217.067 -79.0384 214.577C-81.8728 218.112 -76.5704 219.525 -77.0938 222.878C-79.0384 219.525 -82.3962 218.993 -84.8722 216.519C-85.3956 217.582 -85.7524 218.462 -85.7524 218.462C-84.3409 220.588 -82.3962 221.467 -80.983 223.411C-84.3408 222.878 -87.8722 217.582 -89.2849 220.588C-91.2301 221.998 -86.2855 221.998 -84.8722 223.943C-88.2301 225.884 -91.2301 219.525 -94.5874 221.467C-95.1102 222.53 -95.6421 223.411 -94.5874 223.943C-92.6427 224.986 -91.7615 225.353 -89.2849 225.353C-91.2301 229.404 -93.7061 224.473 -95.6421 225.884C-96.1838 226.929 -96.532 227.809 -96.532 227.809C-96.1838 229.404 -94.5874 228.873 -93.1747 228.359C-95.1102 229.751 -98.1193 230.814 -99 232.759L-98.4766 234.169C-96 234.169 -95.1102 229.751 -91.7615 230.302C-92.6427 232.244 -92.1199 233.637 -93.1747 235.765C-94.0543 235.232 -96 234.169 -96.532 235.232C-97.0548 236.112 -96 236.644 -95.1102 237.175C-96.532 237.707 -99 237.707 -99 240.162C-98.4766 241.592 -97.0548 241.06 -96.532 240.162C-97.0548 241.06 -97.9446 243.003 -97.0548 243.535C-93.5234 244.048 -94.5874 238.585 -92.1199 238.585C-91.5788 240.162 -92.6427 242.106 -92.1199 243.535C-91.2301 244.048 -90.6981 243.003 -89.6427 243.535C-91.2301 241.592 -91.2301 239.118 -89.2849 237.707C-87.6981 237.175 -86.8083 237.707 -85.2216 237.175C-85.7524 238.055 -88.2301 240.53 -86.2855 241.592C-83.8175 241.592 -83.8175 239.118 -82.9276 237.175C-81.8728 237.522 -80.8089 238.055 -80.8089 238.055C-80.451 239.65 -85.2216 242.106 -81.3409 244.048C-80.451 241.94 -79.9282 238.585 -78.5064 238.055C-74.4517 237.522 -76.9197 242.471 -77.9836 244.415C-76.9197 244.928 -76.0384 245.478 -76.0384 245.478C-74.0938 243.865 -74.0938 241.593 -74.0938 239.118C-73.0299 239.465 -72.1492 239.998 -71.0944 240.53C-73.0299 241.94 -76.3866 246.356 -74.0938 248.814C-73.0299 249.364 -73.0299 246.871 -71.0944 245.478C-70.0293 243.535 -69.1486 239.118 -66.1498 243.003C-73.3877 267.361 -66.1498 248.996 -74.2679 273.007C-70.3872 274.949 -73.2131 277.59 -70.3872 279C-64.0299 254.11 -68.6178 274.767 -62.2605 249.876C-61.204 250.244 -61.204 250.244 -60.3153 250.757C-58.9015 252.699 -60.8467 256.585 -57.8479 258.16C-56.784 256.053 -55.9027 254.11 -58.3707 251.819C-51.4804 252.699 -55.3702 260.47 -53.9581 264.868C-53.4255 266.464 -51.4804 264.868 -51.4804 264.868C-52.0135 261.002 -50.417 257.997 -51.4804 255.172C-50.417 255.705 -48.4821 254.11 -49.0129 257.647C-48.4821 261.533 -47.949 265.419 -49.0129 269.819L-47.6008 269.286C-46.0044 266.464 -46.0044 261.533 -45.6562 257.997C-41.5917 262.413 -38.235 267.874 -38.7664 273.704L-37.1791 273.172C-37.1791 270.697 -36.8218 267.361 -36.8218 264.868C-34.3446 267.361 -32.7579 269.286 -29.9331 270.697C-29.4006 269.819 -29.9331 268.242 -29.9331 268.242C-32.4091 265.933 -34.3446 264.868 -36.8218 262.413C-35.2345 261.883 -32.4091 263.476 -32.4091 261.002L-33.8127 259.058C-36.2893 259.058 -38.235 260.47 -39.6471 261.002C-39.2989 259.938 -40.1796 259.59 -41.2441 259.058C-39.2989 257.647 -37.7025 254.642 -34.8766 253.579C-35.7579 253.232 -36.2892 251.636 -36.2892 251.636C-39.2989 252.699 -40.1796 257.117 -43.1785 257.997C-44.0597 257.647 -45.6562 255.705 -44.5917 253.579C-43.7116 251.636 -41.2441 251.636 -39.6471 251.306C-40.711 250.757 -41.2441 249.181 -41.2441 249.181C-44.0597 250.244 -46.1796 249.364 -46.5375 255.172C-48.4821 254.11 -50.417 253.232 -52.3616 252.187C-50.9575 251.636 -47.0683 251.306 -47.0683 248.814C-48.4821 246.871 -52.0134 251.306 -54.8393 249.694C-52.0134 248.814 -49.0129 245.295 -50.0688 242.471C-52.9022 243.351 -53.9581 247.751 -56.784 248.814C-58.3707 249.364 -58.3707 249.364 -59.2594 248.814C-56.9569 246.356 -52.5448 244.928 -53.9581 240.53C-57.3148 242.471 -58.9015 245.478 -61.204 247.751C-59.4346 236.644 -56.9569 224.291 -52.0135 214.577C-51.6647 213.532 -52.0135 217.067 -50.5997 216.519C-50.5997 218.993 -52.0135 221.815 -50.5997 223.758L-49.1881 223.411C-47.6008 220.405 -48.655 217.397 -48.655 215.127C-42.8303 215.457 -46.1796 222.348 -44.2344 225.701C-42.6556 222.878 -42.2978 219.342 -43.1785 216.519C-42.2978 217.067 -41.2441 217.397 -41.2441 217.397C-40.711 221.283 -41.2441 224.823 -40.711 228.708C-39.2989 225.701 -36.8218 223.228 -39.2989 218.462C-38.4085 218.993 -38.4085 218.993 -37.3543 219.342C-35.4097 222.878 -39.8223 226.764 -37.8771 230.118L-36.2892 229.751C-34.8766 226.764 -34.8766 224.29 -34.3446 220.935C-33.4651 221.283 -33.4651 221.283 -32.4091 221.815C-29.9331 226.764 -34.3446 230.649 -33.8127 234.517C-29.0524 232.062 -29.9331 226.764 -29.5753 223.228C-26.5747 227.114 -30.9971 231.181 -29.0524 234.517L-27.4554 234.004C-26.0428 231.181 -26.0428 228.708 -27.1078 225.701C-26.0428 226.233 -25.1626 226.764 -25.1626 226.764C-24.1067 229.586 -27.9874 232.574 -24.6398 235.58C-23.5759 233.454 -23.5759 231.181 -22.6952 229.239C-20.2174 231.529 -22.1621 235.58 -19.6855 237.89C-18.6307 235.947 -18.6307 233.454 -19.1535 232.062C-16.6861 234.517 -15.7963 237.522 -13.3282 239.832C-12.2734 240.345 -10.8516 239.832 -11.3836 238.403C-11.9156 237.01 -12.7963 236.46 -13.8602 235.947C-12.7963 236.46 -9.97094 235.397 -9.43898 234.517C-9.97094 233.125 -13.8602 233.454 -15.7963 232.574C-14.3933 232.062 -12.2734 235.397 -12.2734 230.649C-11.9156 229.586 -16.3379 231.181 -18.2728 230.118C-15.7962 230.118 -14.3933 229.586 -12.4487 228.176C-11.9156 227.114 -13.8602 226.233 -13.8602 226.233C-15.7962 227.644 -18.2728 227.644 -19.6855 228.176C-19.6855 228.176 -20.7506 227.644 -21.6313 227.114C-20.2175 224.291 -14.7415 225.701 -16.3379 223.758C-17.2089 220.77 -21.0987 226.233 -25.1626 224.291C-23.5759 223.758 -20.7506 225.171 -20.2175 221.815C-21.6313 219.892 -25.1626 224.291 -27.6306 221.815C-26.0427 221.283 -23.218 220.405 -21.6313 219.892C-24.1067 217.397 -27.6306 219.342 -30.464 220.405C-31.5205 219.892 -31.5204 219.892 -32.4091 219.342C-29.5753 218.462 -28.5193 214.062 -30.464 213C-32.4091 212.121 -30.9971 216.519 -32.9417 217.948C-33.4651 218.828 -34.8766 219.342 -35.4097 217.948C-35.4097 215.457 -32.9417 215.457 -32.0513 213.532C-31.5204 212.469 -32.0513 211.056 -33.4651 211.589C-35.4097 213 -36.4736 214.942 -37.3543 216.885C-38.4085 216.519 -39.2989 216.007 -39.2989 216.007C-39.2989 213.532 -35.9325 211.589 -37.8771 210.526C-39.8223 209.646 -39.2989 213.532 -41.2441 214.942C-41.2441 214.942 -42.2978 214.577 -43.1785 214.062C-40.3532 213 -37.8771 208.234 -41.2441 205.228C-41.7669 208.583 -43.7116 214.942 -49.1881 213.532C-45.6562 211.589 -45.2983 208.234 -43.7116 205.228C-43.7116 205.228 -44.2344 203.818 -45.2983 203.286C-46.7104 206.291 -48.655 210.177 -51.1328 212.634C-50.5996 206.658 -47.7749 200.83 -46.1796 195.515C-46.1796 195.515 -43.7116 195.515 -42.8303 195.882C-41.4176 197.824 -42.8303 200.83 -40.8857 201.893C-39.8223 199.768 -38.9411 197.824 -41.4176 195.515C-35.9325 194.469 -36.4736 200.28 -34.5284 203.818C-32.5838 202.223 -32.9417 198.355 -34.5284 196.412C-33.4651 196.945 -30.9971 196.945 -30.1061 197.292C-27.6306 199.768 -28.5193 201.71 -27.6306 204.716L-26.0428 204.166C-25.1626 202.223 -24.6398 201.343 -27.1078 198.887C-21.8042 197.824 -24.6398 203.653 -22.6952 207.171L-21.2734 206.658C-20.2175 204.716 -20.7505 203.286 -20.7505 200.83C-15.7962 200.83 -19.6855 206.108 -17.3921 208.583L-15.7963 208.051C-15.2643 207.171 -15.2643 204.716 -15.7963 203.286C-11.0269 203.103 -15.2643 209.646 -10.8516 210.526C-9.43898 209.993 -9.43897 207.538 -9.97093 206.108C-7.49378 208.583 -3.61367 210.526 -1.13709 213C-0.0817351 213.532 0.276115 212.469 0.808075 211.406C-0.081759 211.056 -1.66905 209.114 -2.54975 208.583C-1.13709 208.051 1.34006 210.526 2.75272 207.538L2.21104 206.108C-0.604582 204.716 -3.08173 206.989 -6.09141 205.596C-4.14622 206.658 -1.66907 204.166 -0.604584 202.223C-5.02636 201.178 -8.90703 204.166 -12.9715 202.223C-11.0269 200.83 -8.90704 201.71 -6.61425 201.71C-6.61425 201.71 -5.02634 201.178 -4.66961 200.28C-8.55885 198.355 -11.3836 199.235 -14.9161 201.178C-15.7962 200.83 -16.8607 200.28 -17.7409 199.768C-14.9161 198.887 -12.4487 198.887 -9.97093 196.412C-11.0269 195.882 -11.9156 195.349 -11.9156 195.349C-14.9161 196.412 -17.7409 199.768 -22.6952 197.292C-20.2174 194.819 -15.4469 194.819 -16.8607 190.419C-20.7505 193.407 -23.7488 196.945 -28.1615 195.882C-26.5747 192.875 -22.6952 192.527 -22.3373 188.989C-26.7585 188.109 -27.1078 193.939 -29.0524 195.349C-29.0524 195.349 -30.997 194.469 -32.0513 193.939C-31.5204 190.584 -28.6946 189.539 -26.2265 187.048C-25.1626 185.103 -27.6306 185.103 -27.6306 185.103C-30.997 187.048 -31.5204 190.584 -33.9959 193.059L-33.4651 194.469C-34.5284 193.939 -35.9325 194.469 -36.9964 193.939C-36.4736 190.584 -30.6392 188.641 -33.9959 185.654L-35.4097 186.168C-35.9325 189.539 -38.4085 194.469 -42.8303 193.407C-41.4176 190.584 -38.9411 188.109 -38.4085 184.59L-40.8857 184.756C-40.3531 188.641 -44.2344 189.173 -44.7755 192.527C-41.767 184.223 -38.4085 177.352 -35.5838 169.048C-31.5205 170.991 -37.5284 175.409 -33.4651 177.352C-33.4651 174.876 -34.5284 171.871 -32.0513 169.416C-32.0513 169.416 -30.6392 169.048 -29.5753 169.416C-31.1711 172.421 -32.0513 176.82 -29.0524 178.232C-28.6946 174.876 -30.6392 171.541 -27.2819 169.416C-25.694 169.048 -24.8139 169.416 -23.7488 169.928C-25.1626 172.934 -25.694 176.287 -25.1626 180.172C-24.8139 179.295 -23.218 178.762 -23.218 178.762C-24.2819 175.757 -23.218 173.814 -21.8042 170.991C-21.8042 170.991 -20.3927 170.478 -19.3288 170.991C-20.7505 173.814 -23.218 178.762 -20.3927 182.648C-18.4566 178.762 -19.8596 174.347 -17.3921 171.871C-17.3921 171.871 -15.4469 172.934 -14.3933 173.302C-17.9247 175.409 -17.3921 181.768 -15.4469 185.103C-13.5023 181.237 -16.3379 177.352 -13.5023 173.814C-6.61423 174.876 -11.9156 180.705 -11.9156 185.654C-8.55886 183.71 -8.03602 180.172 -7.67815 176.82C-6.61423 177.187 -4.66961 178.232 -3.61368 178.762C-4.14621 182.117 -7.14504 185.654 -9.08966 189.539C-3.61368 188.476 -4.66962 183.18 -1.66907 179.642C-0.256974 181.585 -3.08173 185.103 -1.66907 187.048L-0.256966 186.533C0.276135 185.471 0.276115 183.18 0.808075 182.117C4.68876 184.058 1.34004 188.476 2.21104 191.464L4.15568 192.361C6.1003 190.934 5.22016 187.926 5.22016 185.471C10.5129 187.048 7.69731 192.875 10.5129 196.76C11.5774 194.819 9.99009 192.875 11.0546 190.934C13.5226 193.407 15.9992 195.699 18.8245 197.292C19.3565 196.23 19.3565 196.23 19.8799 195.349C16.8799 193.754 15.9992 190.934 14.054 189.869C15.4672 189.356 17.4119 190.419 18.4666 188.476L17.9438 187.048C15.4672 189.356 13.5226 188.476 10.5129 187.048C11.9347 186.533 14.9353 185.471 16.3474 184.938C12.9992 182.117 8.57802 186.003 5.22016 183.18C7.5141 183.18 10.5129 182.117 13.5226 181.053L12.9992 179.642C9.64194 179.11 6.1003 181.053 2.75272 180.705C6.1003 178.762 10.5129 179.642 12.9992 177.187C8.57802 173.814 4.68876 179.11 0.808075 179.642L-0.787796 177.699C2.21104 174.347 6.10028 176.287 9.4587 174.347L9.10997 172.751C5.04664 173.302 1.15683 173.814 -2.725 176.82C-2.725 176.82 -4.66963 175.757 -5.55832 175.244C-3.25525 172.751 0.276138 170.826 4.15568 170.296C3.10146 169.928 3.63228 168.883 2.75272 168.351C-0.256961 171.871 -5.20042 169.416 -7.67815 174.347C-8.55885 173.814 -9.61308 173.302 -10.5035 172.934C-9.61308 170.826 -8.03604 170.478 -5.20044 169.416C-4.66962 168.536 -3.78835 166.41 -3.25525 165.53C-7.14506 168.536 -11.5577 174.876 -16.512 169.928C-14.0354 167.471 -11.5577 164.998 -7.67815 164.466L-8.21012 163.055C-12.4487 162.175 -14.9161 166.94 -17.3921 169.416C-17.3921 169.416 -19.3288 168.536 -20.3927 167.986C-17.9247 165.53 -15.98 161.644 -12.0902 161.13C-12.9715 160.58 -13.5023 159.188 -13.5023 159.188C-17.9247 160.58 -20.3927 167.986 -26.2265 167.471C-22.8693 165.53 -21.8042 161.13 -18.9794 157.759C-25.3361 158.289 -23.7488 167.471 -32.0513 167.106C-31.6934 163.585 -27.2819 162.175 -25.694 159.188C-25.3361 158.289 -25.694 156.695 -27.2819 157.244C-30.6392 159.188 -32.5838 163.055 -34.5284 167.106C-29.7482 157.244 -25.3361 148.411 -20.3927 138.697C-15.98 142.05 -20.3927 145.936 -19.8596 149.823C-15.0891 147.348 -16.512 143.113 -17.0337 139.062C-12.0902 139.062 -18.9794 143.113 -15.0891 145.058L-13.5023 144.526C-13.1444 143.462 -13.1444 141.007 -12.6222 140.127C-11.5577 140.64 -11.5577 140.64 -10.6776 141.007C-13.5023 144.526 -14.0354 147.878 -13.5023 151.764C-12.9715 153.359 -11.0269 151.764 -10.6776 150.884C-10.1547 147.348 -10.6776 143.462 -8.21012 141.007C-8.21012 141.007 -6.26493 142.05 -5.20044 142.582L-6.26493 142.05C-5.73297 145.936 -10.1547 149.823 -7.14505 153.689C-5.20043 149.823 -6.61423 145.405 -3.78834 142.05C-2.72499 142.582 -0.787794 143.462 0.0917664 143.993C-2.72499 147.348 -2.2016 151.233 -3.25525 155.632C2.56891 156.182 -1.31062 149.291 0.0917664 146.468C0.634 145.405 0.63401 142.948 2.03697 144.893C3.63227 146.833 0.633994 150.353 2.21104 152.296L3.63226 151.764C4.51353 149.823 4.15568 148.411 4.15568 145.936C5.04665 146.468 5.04664 146.468 6.10029 146.833C4.51354 149.823 4.15566 153.177 3.63226 156.695C3.63226 156.695 4.15567 158.125 5.04665 158.637C6.99127 154.752 4.51353 149.823 8.0449 147.878C11.9347 147.348 7.5141 151.233 10.5129 152.809L11.9347 152.296C12.4575 151.233 11.4033 150.884 11.9347 149.823C12.4575 153.689 9.45872 157.244 11.4033 160.58C12.9992 162.523 12.9992 160.067 13.3485 159.188C13.3485 156.695 13.3485 151.764 14.4022 152.296C19.3565 152.296 14.4022 159.517 16.3474 163.055L17.7612 162.523C18.8245 160.58 20.2366 157.574 18.292 154.239C24.6493 156.182 20.2366 162.523 21.8245 166.94C22.1812 165.878 23.2372 166.41 23.7691 165.346C24.6492 163.403 23.7691 160.58 23.7691 158.125C28.5385 160.58 27.1264 165.878 27.6589 169.763C28.5385 167.821 30.6583 166.41 29.6035 163.403C30.4831 163.935 31.5482 164.466 31.5482 164.466C31.5482 166.94 29.6035 170.826 32.071 173.302C32.9511 171.357 32.9511 168.883 34.0156 166.94C36.4836 169.231 37.3735 172.236 39.85 174.694C40.9048 175.244 42.3181 174.694 41.7861 173.302C40.9048 170.296 37.9054 168.883 36.4836 166.94C38.9602 166.94 40.9048 167.821 42.8495 166.41C39.8501 164.833 37.0156 163.403 34.0156 164.466C32.9511 163.935 32.603 162.523 31.5482 161.992C35.4289 161.46 37.9054 163.935 41.7861 163.403C38.9602 159.517 32.9511 159.004 29.0716 159.517C29.0716 159.517 28.5385 158.125 27.6589 157.574C31.5482 157.062 34.5476 158.637 38.4283 158.125L37.9054 156.529C34.0156 154.587 29.6035 156.182 24.6492 156.182C28.1818 154.239 32.4203 155.119 36.4836 154.587L35.9608 153.177C31.5482 152.296 27.6589 152.644 23.2371 154.239C24.6492 151.233 27.6589 150.171 29.6035 148.778C29.6035 148.778 29.6035 146.285 28.0077 146.833C25.7137 149.291 22.7041 150.354 21.3017 153.177C20.2366 152.644 19.7058 151.233 19.7058 151.233C20.2366 150.354 23.2371 149.291 22.704 147.878C20.2366 145.405 19.3565 152.296 16.8799 149.823C19.1824 147.348 22.7041 147.878 24.1184 144.893L23.595 143.462C19.1824 144.893 14.4022 149.823 9.9901 146.468C11.9347 142.398 15.2932 140.457 19.1824 139.942C15.2932 138 9.99009 141.519 8.0449 145.405C6.10028 144.526 5.04664 143.993 3.10145 142.948C5.57746 138 10.5129 140.457 14.4022 137.634C9.45873 135.177 4.51354 137.634 1.68765 141.007C-0.787789 143.462 -0.787777 141.007 -1.85284 140.457C0.634017 138.182 3.98158 136.057 6.99126 135.177C8.39422 134.646 6.99126 132.704 6.99126 132.704C2.56891 134.114 -0.787779 136.241 -4.32029 140.64C-4.32029 140.64 -6.26492 139.577 -7.14505 139.062C-6.78718 138.182 -6.26491 137.122 -5.73295 136.241C-3.78833 134.646 -1.31061 132.171 1.51472 131.291L1.15684 129.696C-4.84255 129.348 -5.20044 137.634 -11.5577 138.182C-10.6776 133.767 -5.20044 132.704 -4.84257 129.348C-5.20044 127.773 -8.2101 128.818 -8.73179 129.881C-10.1547 132.704 -12.0902 134.297 -13.5023 137.122C-13.5023 137.122 -15.98 137.122 -17.0337 136.754C-15.98 132.356 -13.5023 129.881 -10.6776 126.343C-12.6222 125.463 -13.6775 127.405 -14.0354 128.286C-12.6222 123.008 -7.67815 118.059 -5.37566 113.109C-5.37566 113.109 -3.78833 112.596 -2.90763 113.109C-3.78833 117.527 -7.67814 120.515 -7.32027 124.4C-3.25523 121.412 -3.25525 116.649 -0.429924 113.109C1.5147 116.649 -4.84256 119.47 -0.429924 123.008C1.15682 120.002 0.634 116.116 3.10145 113.642C2.56892 116.997 3.10145 121.065 0.0917664 124.4C5.57746 123.338 4.51355 118.059 5.04665 114.539C5.92735 115.054 7.87197 116.116 7.87197 116.116C7.87197 118.59 3.98159 123.887 7.87197 123.338C9.45872 122.825 6.99126 118.059 9.4587 115.584L11.4033 116.464C10.8708 120.002 11.4033 123.887 8.39422 127.223C9.45871 127.773 10.8708 127.223 10.8708 127.223C13.3485 124.95 11.9347 120.515 12.2835 116.997C13.3485 117.527 14.76 116.997 15.816 117.527C16.6961 120.515 16.3474 123.887 13.8793 126.343C14.76 126.893 15.816 127.223 15.816 127.223C18.292 124.768 17.2378 121.945 17.7612 118.407C18.6407 118.939 20.2366 118.407 20.2366 118.407C21.6504 122.825 17.7612 125.83 18.292 129.696C22.7041 128.286 20.2366 120.882 22.704 120.882C28.5385 118.939 22.1812 126.893 23.595 131.108C23.595 131.108 24.6493 131.641 25.5397 132.171C26.0631 128.818 25.5396 124.768 28.0077 122.293C29.4197 121.945 31.0065 123.887 30.4831 124.768C29.4198 126.71 29.0716 130.229 30.4831 132.171C31.5482 132.704 31.8969 131.641 32.9511 132.171C31.8969 129.166 32.9511 127.223 31.8969 124.4C37.3735 125.83 37.3735 130.596 36.3096 134.994C37.3735 135.526 38.7856 134.994 38.7856 134.994C39.85 133.052 41.253 130.229 37.9054 127.223C43.7307 127.773 41.253 134.994 43.1976 138.532C44.2627 138.879 44.7855 138 45.6753 138.532C45.6753 136.057 43.1976 133.584 44.2627 131.641C46.2073 130.229 47.0874 135.526 49.5549 135.526C48.1519 138.532 50.0966 139.412 51.1519 142.398C51.4995 141.337 52.5646 139.412 52.0326 138C55.0326 141.885 55.0326 146.833 59.9869 149.108C60.3345 148.228 60.8664 147.163 60.8664 147.163C59.4538 145.222 56.9772 142.765 55.9224 139.942C56.9772 140.457 58.399 142.398 59.802 139.412L59.4538 138C58.399 137.469 55.5645 138.532 54.5092 138L53.9772 136.424C56.4544 136.424 57.5092 136.937 59.802 136.937C59.802 136.937 60.3345 136.057 60.8664 134.994C57.5092 134.482 53.9772 136.424 50.6199 133.584C53.0874 133.584 53.9772 136.424 56.4544 131.641C52.5646 132.171 48.1519 133.584 44.6114 128.103C47.62 129.696 50.62 128.653 53.9772 129.166C52.0326 125.83 46.2073 125.28 42.6668 127.223L40.7222 126.178C42.6668 122.293 47.62 127.223 49.5549 123.338C46.2073 122.825 42.6668 122.293 37.9054 124.768C37.9054 124.768 37.3735 123.338 36.3096 122.825C39.3084 121.945 42.6668 119.819 46.5561 119.47L46.2073 117.875C41.7861 116.997 38.2542 121.412 34.3649 121.945C31.8969 121.945 30.4831 120.002 28.0077 120.002C31.8969 116.997 35.4288 117.527 39.85 118.407C39.85 118.407 40.1994 117.527 40.7222 116.464C35.7867 113.989 30.4831 117.527 25.0071 118.407C24.1184 118.059 22.1812 116.997 21.1173 116.464C25.5397 115.054 30.4831 115.054 34.3649 112.048C33.309 111.534 31.3644 110.654 29.9523 111.168C28.0077 112.596 25.5397 112.596 22.5311 113.642C21.1173 113.989 20.5854 115.054 19.1824 115.584C16.6961 118.059 16.6961 115.584 15.816 115.054C19.1824 113.109 22.1812 109.591 26.063 109.224L25.5397 107.648C24.4763 107.283 24.1184 108.163 23.0625 107.648C18.6407 109.224 15.816 115.054 10.3388 113.642C13.3485 112.596 11.7618 108.163 17.2378 107.283C17.2378 107.283 17.7612 106.238 18.119 105.338C12.2835 104.825 11.7618 110.654 8.39422 112.596C6.99126 113.109 5.92735 112.596 5.04665 112.231C5.39425 108.711 9.8166 107.283 11.4033 104.295C5.92735 102.883 3.98158 109.224 2.56892 112.231C1.5147 111.698 -0.429924 110.654 -0.429924 110.654C0.0917622 107.283 5.39423 106.238 5.92733 102.883L3.98158 101.82C1.5147 104.295 -1.85284 106.238 -1.85284 111.168C-2.90763 110.654 -2.90764 110.654 -3.78834 110.288C0.634007 103.947 3.98157 97.0541 9.28405 91.0608C9.28405 93.5263 8.93588 97.0541 9.81658 99.8771C12.8154 98.9973 12.2835 94.9387 11.2287 92.1156C13.6967 92.1156 16.1738 92.1156 17.2378 92.6465C18.119 95.4689 16.6961 98.4665 15.2932 101.288C18.6407 99.3469 19.1824 96.0015 19.5305 92.4634C20.5853 92.9937 20.5853 92.9938 21.6504 93.5263C23.9432 96.0015 19.7058 99.8771 21.6504 100.94C24.4763 102.352 24.4763 97.4116 23.9432 93.5263C25.0071 94.0583 27.4848 94.0583 28.3655 94.4061C30.4831 97.9442 26.4209 100.94 26.9426 104.825C31.3644 103.232 29.9523 98.8143 30.3004 95.4689C36.8404 94.9387 32.7782 102.883 34.3649 107.118L35.7867 106.768C36.3095 103.232 36.8404 99.8771 36.8404 97.4116C37.7313 97.9442 39.6663 98.8143 40.7222 99.3469C41.6109 102.352 38.7856 105.705 39.6663 108.711L41.253 108.163C42.6668 105.173 42.6668 102.7 42.6668 100.409C47.9681 101.82 42.6668 107.648 43.1976 111.534L45.1428 112.596C47.62 110.104 45.1428 105.173 47.62 102.7C48.5013 103.232 50.4459 104.295 51.4995 104.643C51.4995 107.118 46.556 109.591 50.0965 112.596L51.4995 112.048C51.4995 109.591 52.0326 106.238 52.9139 106.585C57.8568 106.585 56.8031 113.476 56.4544 116.997L58.399 117.875L59.2712 115.934C58.9218 114.539 57.3351 112.596 59.802 110.104C61.2158 112.048 64.2243 113.476 64.7563 114.869C65.2791 116.464 61.7466 118.407 63.3345 120.35C67.2237 122.293 61.2158 114.539 69.1683 118.407L67.7557 118.754C66.7009 120.882 65.8111 122.825 67.2237 124.768L68.6369 124.235C69.1683 123.172 69.1683 120.882 69.6917 119.819C71.6363 120.882 72.1683 122.293 73.581 124.235C74.4708 124.768 76.0575 124.235 75.5256 122.825C73.0581 120.35 70.5816 117.875 68.1039 115.419C69.1683 115.934 71.6363 115.934 73.0581 115.419L72.5262 113.989C70.0485 111.534 66.1689 114.539 63.1604 110.471C64.2243 110.984 66.7009 110.984 68.1039 110.471L67.573 109.058C64.2243 108.528 61.2158 107.118 58.7478 107.118C62.2791 105.173 65.2791 109.058 68.6369 107.118L68.1039 105.705C64.2243 106.053 60.6924 103.232 56.8031 106.238C55.9224 105.705 56.4544 104.643 55.3899 104.295C56.8031 103.762 61.2158 104.643 60.6924 103.232C58.7477 99.8771 52.9139 104.295 49.5549 101.288C51.4995 99.8771 54.3351 101.288 55.9224 100.757C56.27 99.8771 58.399 98.292 55.9224 98.292C53.4447 98.292 52.0326 98.8143 49.5549 98.8143C47.62 97.9441 49.0332 102.352 45.6753 99.3469C47.9681 96.8791 51.4995 97.4116 53.9772 94.9387C52.9139 94.4061 51.8574 93.8838 50.4459 94.4061C47.0874 93.8838 43.5555 100.757 39.6663 96.3493C41.6109 94.9387 44.6114 93.8838 47.62 92.9937L47.0874 91.5837C42.144 91.5837 38.2542 96.879 33.309 94.4061C35.2536 90.5305 39.6663 91.5837 42.6668 90.5305L42.144 89.1181C41.0801 88.5873 40.1994 88.0559 38.7856 88.5873C34.3649 89.998 31.3644 96.0015 25.8878 92.1156C29.9523 89.1181 33.8421 88.5873 37.7314 85.5909C36.6674 85.2334 35.7867 84.702 34.3649 85.2334C28.3656 87.176 24.4763 92.4635 18.119 90.5305C22.5311 89.1182 23.595 84.702 28.3655 84.702C28.3655 84.702 30.833 82.2279 28.3655 82.2279C26.9426 82.7588 25.5396 83.2907 23.9432 83.8227C21.4752 86.1132 17.5859 89.1181 13.6967 89.6507C14.76 85.2334 19.1824 83.8227 22.5311 81.705C20.5854 80.8161 20.0637 81.705 18.6407 82.2279C16.6961 83.8227 15.1185 84.1706 13.1733 85.7654C11.7618 86.2871 13.6967 89.6507 10.3388 89.1181C17.054 82.7588 20.5854 73.4116 26.9426 68.1151C28.3656 72.5318 25.5397 75.8771 26.9426 80.2938L28.3655 79.7624C28.8878 76.4085 30.833 72.5318 28.8878 69.0034C30.833 70.0577 32.2451 69.5263 34.7228 69.5263C32.7782 73.4116 34.7228 76.9399 32.7782 80.8161C37.1897 79.2401 35.7867 74.8228 36.1349 71.4689C37.1897 69.5263 39.1354 70.4061 40.1994 70.9364C42.144 74.4653 38.6023 78.8826 40.1994 83.2907C43.5555 81.1736 43.5555 76.4085 42.144 72.0003C43.0247 72.3487 44.6114 72.0004 45.4927 72.3488C47.0875 76.7655 47.9682 79.7624 47.0874 84.1706C47.0874 84.1706 49.0332 85.0595 49.3819 84.1706C50.9687 81.1736 49.382 76.7655 48.5013 73.9339C55.3899 74.8228 53.4447 83.6477 53.8026 87.5336C58.2152 86.1132 54.8585 80.6428 55.3899 77.2975C62.1045 78.1773 58.7477 85.0595 60.3345 89.4671C60.6924 88.5873 61.7466 88.9357 62.2791 88.0559C62.2791 85.5909 62.2791 83.1169 62.1045 80.6428C68.1039 81.1736 63.1604 86.1132 65.105 89.4671C66.7009 91.4109 67.573 89.4671 68.1039 88.5873C68.9948 86.4707 67.573 84.5281 67.0496 83.1168C73.0581 83.6477 68.9948 88.9357 71.1129 92.4634C72.5262 94.4061 72.5262 91.9412 73.0581 90.8783C73.4069 89.9979 73.0582 88.5873 72.5262 86.993C75.8749 87.5336 73.4069 92.4635 75.8749 94.9387L77.4708 94.4061C77.8195 93.3513 77.8195 90.8783 77.4708 89.4671C81.36 91.4109 79.4154 95.2962 79.4154 97.7594L81.36 98.8143C82.7727 98.292 82.7727 95.8265 82.2407 94.4061C83.3046 94.7636 84.1768 95.2962 84.1768 95.2962C84.1768 97.7594 80.8281 99.6947 84.7179 101.637L86.2955 101.122C86.6522 100.244 86.2955 98.8143 86.6522 97.7594C88.2401 99.6946 88.598 101.122 90.7173 102.187C91.6071 102.7 93.0198 102.187 92.6619 100.757C91.0746 98.6392 88.2401 97.2371 86.6522 95.2962C89.1299 95.2962 92.6619 98.292 91.6071 92.821C92.1299 91.9412 88.2401 92.4635 85.2407 93.3513C84.1768 92.821 83.8281 91.4109 82.7727 90.8783C84.1768 90.3458 85.7727 92.4634 87.7173 88.4037C83.828 86.4707 80.8281 92.4634 78.3504 87.5336C79.7642 86.993 84.1768 88.0559 84.1768 85.5909C82.7727 83.6477 78.8835 86.4707 76.4154 86.4707C75.3515 86.1132 75.0028 84.5281 75.0028 84.5281C75.8749 82.5854 81.36 83.9955 81.36 81.705C79.7642 79.7624 75.8749 82.5854 73.0581 83.6477C71.9942 83.1169 70.0485 82.2279 68.9948 81.705C70.9394 80.1102 73.9389 79.2401 76.9388 78.1773L76.4154 76.7655C72.8744 76.2346 70.0485 79.7624 67.0496 80.6428C66.1689 80.2938 64.2243 79.2401 63.1604 78.7087C65.637 76.2346 68.9948 76.7655 70.5816 73.7594C65.637 73.7594 63.1604 78.7087 58.2152 76.2346C59.802 73.4116 63.6923 75.3542 65.105 72.3488C62.1045 70.9364 59.2711 74.292 56.27 75.3542C55.3899 74.8228 53.2717 73.9339 52.3905 73.4116C55.3899 72.3487 57.6838 72.3488 60.1598 69.8838C57.3351 68.4635 53.2718 71.4689 50.4459 72.3488C49.3819 72.0004 49.382 72.0004 48.5013 71.4689C49.382 69.5263 52.9139 69.8838 54.3351 67.0608C49.9128 65.9979 47.9681 70.0577 44.9693 70.9364C44.0886 70.4061 40.1994 70.9364 42.4921 68.4634C44.4368 67.0608 47.4373 65.9979 50.4459 65.1181C49.3819 64.5867 49.9128 63.5227 48.8488 63.1755C45.4927 62.6429 43.5555 66.5293 40.547 67.5836L39.6663 69.5263C38.6023 69.0034 37.7313 68.4635 36.6674 68.1151C38.6023 66.5294 39.1355 65.6404 41.0801 64.0553C42.4922 63.7063 43.0247 65.1181 44.4368 62.1126C40.0241 61.2328 37.1897 64.5867 34.1897 68.1151C32.7782 68.4635 30.833 67.5836 29.7771 67.0608C31.7222 63.1755 35.2536 61.2328 38.6023 59.2896C33.309 57.7045 31.3644 64.2292 27.8324 66.1718C31.7223 60.71 35.6029 55.4129 40.547 50.4738C40.547 50.4738 41.6109 50.9961 42.4921 51.3537C43.5555 54.3494 40.0241 56.2932 43.5555 59.2896C44.9693 56.2932 44.9693 53.8192 44.9693 51.3537C46.0332 51.8765 47.4373 51.3537 47.4373 51.3537C48.326 54.3494 44.4368 57.3469 46.9042 59.6471L48.5013 59.2896C48.5013 56.8246 50.794 54.3494 49.9128 51.3537C50.794 51.8765 51.8574 52.4068 52.7387 52.7643C54.8585 56.2932 50.794 59.2896 51.8574 62.1126C56.27 60.71 54.8585 56.2932 55.2061 52.7643C61.5736 52.4068 56.27 60.7099 58.2152 64.0553L59.6284 63.5227C60.1598 60.1785 60.6924 56.8246 60.6924 54.3494C67.0496 56.2932 61.5737 62.1126 62.1045 65.9979C66.5171 64.5867 63.5086 58.2359 67.0496 56.2932C67.9309 56.6496 69.8755 57.7045 69.8755 57.7045C69.5177 61.0578 66.5171 67.0608 70.0485 69.8838C70.4063 69.0034 70.9394 67.9406 70.9394 67.9406C68.9948 64.5867 69.5176 61.0578 71.9942 58.5848C71.9942 58.5848 73.9388 59.6471 74.819 60.1785C73.4069 63.0004 71.9942 68.4635 75.3515 71.2939C75.8749 70.4061 76.4154 69.3512 76.4154 69.3512C75.3515 66.5293 74.819 62.6429 76.7636 61.0578C77.8195 61.5898 79.7641 62.6429 80.8281 63.0004C80.8281 65.4659 76.4154 69.3512 79.7642 72.3488C81.186 69.3512 80.8281 65.4659 82.2407 64.9431C87.5432 64.0553 81.1859 69.3512 83.3046 72.8802L85.2407 73.7594C87.1853 72.3487 85.5986 67.9406 87.1853 67.4086C91.6071 68.4634 88.0666 72.8802 90.0112 76.2346C91.0746 74.292 91.6071 73.2365 91.6071 70.7636C94.9644 71.2939 96.3685 75.702 94.0745 78.1773C94.9644 78.7087 94.9644 78.7087 96.0192 79.2401C95.4872 77.6447 99.377 77.1144 96.3685 75.702C99.909 76.2346 99.377 82.0529 104.853 80.9997C105.202 80.1102 104.321 79.5879 103.266 79.0571C105.202 80.1102 105.734 79.0571 106.266 78.1773C103.266 76.7655 100.432 77.6447 98.4872 74.2919C99.377 74.8228 101.844 74.6392 102.726 72.7063C102.376 71.2939 100.79 71.8168 97.9638 72.7063C97.9638 72.7063 96.9005 72.3487 96.0192 71.8168C96.9005 72.3487 99.377 72.3488 99.909 71.2939C99.377 67.4086 94.9644 71.2939 92.4787 68.821C93.5426 69.3512 94.4239 69.8838 95.4872 67.9406L94.9644 66.3554C92.4787 66.5293 91.0746 66.8857 89.13 65.9979C90.0112 66.5293 92.4787 66.5293 92.4787 64.0553C90.5426 60.5275 86.6522 65.9979 83.654 62.1126C85.2407 61.5898 88.0666 63.0004 88.0666 60.5275C86.6522 58.5848 82.7727 61.5897 79.7642 60.1785C82.2407 60.1785 84.7179 60.1785 86.6522 58.5848C83.654 57.1719 79.7641 57.7045 76.7636 58.5848C75.8749 58.2359 75.8749 58.2359 74.819 57.7045C76.7636 56.2932 81.1859 57.1719 81.1859 54.7069C79.2413 51.3536 74.819 57.7044 70.9394 55.7618C72.3509 55.2292 74.819 55.2292 74.819 52.7643C74.819 52.7643 73.9389 52.2335 72.8744 51.8765C70.4063 51.8765 69.5177 56.2932 65.105 52.7643C67.573 52.7643 69.8755 52.7643 72.3509 50.2908C71.4623 49.9333 71.4623 49.9333 70.4063 49.411C66.5171 49.9333 63.1604 54.3494 59.6284 51.3537C62.1045 51.3537 64.0411 49.9333 65.9857 48.3481C61.0406 48.3481 57.6838 52.7643 52.7387 50.4738C55.2061 47.9998 60.1598 50.4738 62.6376 45.5257C56.6279 44.9931 51.8574 49.9333 46.0332 49.411C47.4373 46.588 50.2706 45.5257 51.8574 42.5276C46.3814 41.1175 46.3814 48.5306 42.4921 48.8784C47.4373 44.1128 49.9128 34.2342 58.5725 33.7039C57.6838 35.6465 54.6833 39.1743 57.1513 41.6489C58.5725 38.6423 59.0959 35.289 61.0405 33.7039C61.0405 33.7039 62.9852 34.7667 64.0411 35.1145C64.0411 37.5795 59.0959 40.0547 62.6376 43.0602L64.0411 42.5276C64.0411 40.0547 64.5725 36.6997 66.5171 35.1145C67.3978 35.6465 69.3424 36.6996 70.4063 37.0572C70.4063 39.5221 67.9309 41.9973 67.0496 43.94L68.9948 44.9931C70.4063 41.9973 70.9395 38.6423 72.8744 37.0572C72.8744 37.0572 74.819 38.1194 75.6997 38.6423C73.7551 40.0547 72.8744 41.9973 71.8104 43.94L72.3509 45.5257C76.7636 46.4135 71.8104 36.6997 80.6528 41.1175C78.7082 42.5276 78.1774 43.408 77.2967 45.5257L77.8195 46.9358C80.2961 46.9358 80.6528 41.1175 83.654 42.5276C85.0655 44.4708 78.7082 47.4683 82.598 49.411C85.0655 49.411 85.5986 45.8826 85.5986 43.408C91.0746 44.9931 84.7179 47.8259 88.0666 50.8217L89.4878 50.2908C90.0112 49.411 89.4878 47.8258 90.0112 46.9358C93.9005 48.8784 90.5426 50.8217 91.4227 53.6441C91.9558 55.2293 93.9005 53.6441 94.4239 52.7643L93.9005 51.3537C94.9644 51.7015 94.9644 51.7015 95.8451 52.2334C94.9644 54.1767 94.9644 56.6496 95.4872 58.0523C95.8451 59.6471 97.9638 58.0523 98.3131 57.1719C98.8451 56.1096 97.7903 55.5868 97.4318 54.1767C100.258 58.0523 104.321 62.4701 107.147 66.3554C108.734 68.2884 108.734 65.9979 109.092 64.9431C108.734 63.5227 106.615 62.4701 106.266 61.0578C107.679 60.5275 108.734 61.0578 109.092 59.9949L108.734 58.5848C106.615 57.5294 103.79 58.5848 102.726 55.5868C103.79 56.1096 104.321 57.5294 106.615 55.2292C104.67 54.1767 101.322 53.6441 99.377 52.7643C100.79 52.2334 102.202 51.7015 102.726 50.8217C100.79 49.7685 99.377 50.2908 96.9005 50.2908L96.3685 48.8784C97.4318 49.2359 99.377 50.2908 99.7246 49.2359L99.377 47.8259C97.4318 46.9358 95.3126 45.8826 92.4787 46.9358L91.9559 45.3506C93.0198 45.8826 94.4239 45.3507 96.3685 43.94C93.3679 42.5276 90.5426 45.8826 88.0666 43.408C90.5426 43.408 91.9558 42.8766 93.9005 41.4648C91.9558 40.585 88.9553 38.9998 87.5432 41.9973C86.6522 41.4648 86.6522 41.4648 85.5986 40.9425C87.0107 40.585 88.9553 38.9998 90.0112 37.0572C87.0107 38.1194 84.1768 41.4648 80.6528 38.6423C82.598 37.0572 85.5986 36.1768 88.0666 33.7039C85.0655 34.5825 80.6529 33.7039 78.7082 37.5795C78.7082 37.5795 77.8195 37.0572 76.7636 36.6997C79.7641 35.6465 82.057 33.1713 84.1768 31.7612C80.1123 29.826 77.2967 33.1713 75.6997 36.1768C74.819 35.6465 73.7551 35.1145 72.8744 34.7667C73.7551 32.649 75.6997 31.2383 77.6449 29.826C78.1774 28.7637 80.1123 27.353 77.6449 27.353C74.819 28.4056 71.8104 31.7612 70.4063 34.7667C69.3424 34.2341 67.3978 33.1713 66.5171 32.8235C68.4617 28.7637 72.8744 29.826 74.819 25.9407C69.3424 24.3555 68.4617 31.2383 64.0411 32.8235C62.6376 33.1713 60.5177 32.2915 59.6284 31.7612C61.5736 27.8833 67.3978 28.4056 69.8755 23.4678C66.875 24.3556 64.5725 26.8205 61.5736 27.8833C67.3978 23.4678 71.8104 17.1164 77.6449 12.7088C77.6449 15.1737 76.7636 17.1164 75.6997 19.0499C76.7636 19.5899 78.1774 19.0499 78.1774 19.0499C79.2413 17.1164 79.5895 16.0615 80.6528 14.1189H83.1209C84.0016 17.1164 81.5341 19.5899 80.6528 21.5234C84.0016 21.8815 85.9468 17.9956 85.0655 15.1737C91.9558 16.0615 83.1209 21.5234 85.9468 22.9352C88.0666 23.8241 88.0666 19.0499 90.0112 17.4733C90.8999 17.9956 91.9558 18.527 92.8365 19.0499C91.4227 21.8815 92.4787 24.8778 90.0112 27.353C90.8999 27.8833 92.4787 27.353 92.4787 27.353C94.4239 25.7668 94.7812 22.4123 94.7812 19.9388C95.8451 20.4697 96.7263 20.9925 96.7263 20.9925C96.3685 24.3555 92.8365 26.2891 93.3679 30.1749C96.3685 29.2957 96.3685 24.3555 98.3131 22.9352C99.2018 23.2927 101.148 24.3555 101.148 24.3555C100.79 27.7009 98.3131 30.1749 96.9005 33.1713C100.79 32.649 101.322 29.2957 102.726 26.2891C103.614 26.8205 104.148 28.2323 104.148 28.2323C102.726 31.2384 100.79 35.1145 103.266 35.1145C106.092 36.5257 103.614 29.2957 105.559 30.1749C112.092 32.1176 103.614 36.5257 105.202 40.9425C108.027 40.0547 108.56 36.5257 109.624 34.5825C110.504 35.1145 111.036 36.5257 111.036 36.5257C110.147 38.4684 109.092 40.411 108.211 42.3537C108.211 42.3537 110.147 43.408 110.504 42.3537C111.036 41.4648 112.092 39.5221 112.449 38.4684C112.972 40.0547 114.036 40.4111 113.513 41.4648C112.449 43.408 110.504 47.2933 112.092 49.2359C112.972 49.7685 114.568 46.7619 114.917 43.408C115.981 46.4135 116.513 47.8258 117.393 50.6477C118.449 51.17 119.338 51.7014 119.871 50.6477C119.338 49.2359 118.981 47.8258 118.981 45.3506L119.338 46.7619C120.393 47.2933 121.815 46.7619 121.274 45.3506C120.925 43.94 119.871 43.408 118.981 42.8766L117.393 43.408L116.861 41.9973C118.981 42.8766 120.925 43.94 122.87 42.3537L122.338 40.9425C119.871 40.9425 115.981 41.4648 114.917 38.4684C117.393 38.4684 119.338 39.5221 121.274 37.937L120.925 36.5257C118.807 35.4715 115.981 36.5258 114.036 35.6465C112.972 35.1145 113.513 34.0602 112.449 33.5288C115.449 32.649 118.449 36.5257 121.815 34.5825L121.274 33.1713C117.393 31.2383 112.449 33.5288 108.56 29.2957C112.092 29.6435 115.981 31.5862 119.338 29.6435L118.807 28.2323C113.513 26.8205 108.56 29.2957 103.614 24.3555C108.027 22.9352 112.449 26.2891 116.329 25.7668C112.972 20.4697 105.559 22.9352 100.258 21.3501C103.614 21.8815 107.147 22.4123 110.504 20.4697L109.972 18.8845C104.67 17.4733 100.258 21.35 95.8451 17.9956C98.671 16.9419 102.202 17.4733 105.028 16.5844C104.148 16.0615 103.614 14.4678 103.614 14.4678C98.671 14.6417 95.3126 19.0499 90.0112 14.9992C93.3679 13.0566 96.7264 16.0615 99.7246 12.5252C96.3685 12.1762 91.9558 11.1139 87.8914 14.1189C87.8914 14.1189 87.0107 13.5874 85.9468 13.0566C87.8914 11.6448 90.8999 10.7661 92.304 7.76803C88.4239 8.2909 85.9467 13.0566 81.5341 12.1762C83.4787 10.7661 85.5986 9.17071 86.4793 7.23662L85.9468 5.82539C82.598 5.29397 82.0569 11.1139 78.7082 10.7661C84.5347 6.34768 88.4239 0.87725 95.3125 -2.9995C96.7263 -3.53092 97.7903 -2.99951 98.671 -2.46809C98.1379 -1.58828 96.1933 -0.17646 95.8451 0.877258L96.1933 2.2879C98.671 -0.176469 103.084 -4.06233 105.028 -0.525421C105.028 1.76619 101.148 4.76254 102.202 7.76803C106.615 6.17434 102.551 -0.525418 110.504 0.877258C109.972 1.76619 103.614 4.76254 108.027 8.11699C109.092 6.17434 109.449 2.8199 112.449 1.76618C113.33 2.28791 114.394 2.81989 115.449 3.35131C112.449 4.23169 111.916 7.76802 111.036 9.70212C111.916 10.0596 111.916 10.0597 112.972 10.5814C113.861 8.63873 114.394 5.29396 117.393 4.23169C118.274 4.76254 120.218 5.65149 120.218 5.65149C120.218 8.11701 118.274 9.70214 117.393 11.6448C117.393 11.6448 119.338 12.5252 119.871 11.6448C120.751 9.70214 121.274 8.63873 122.163 6.70521C123.219 7.23663 123.76 8.63871 123.76 8.63871C123.76 11.1139 120.218 13.0566 122.338 13.9455C124.283 14.9992 124.283 10.0597 125.164 10.5814C132.585 10.5814 126.227 13.5874 125.696 16.9419L126.227 18.3531C128.695 18.3531 130.117 15.5306 130.998 13.5874C132.062 13.9455 132.585 15.5307 132.585 15.5307C131.521 17.4733 130.117 20.2958 129.053 22.239C129.053 22.239 129.585 23.8241 130.64 24.3555C130.64 24.3555 132.062 23.8241 132.585 22.7613C132.585 20.2958 132.585 17.8217 133.998 17.4733C138.419 18.3531 133.998 22.239 133.466 25.7668C133.998 27.1694 135.585 26.6466 135.942 25.7668C136.474 24.7039 137.529 22.7613 137.887 21.8815C138.419 23.2927 138.942 24.7039 139.823 25.2256L141.418 24.7039C142.3 22.7613 140.364 21.8815 139.823 20.2958C141.768 21.35 142.832 21.8815 145.299 19.4074C142.3 17.8217 137.529 20.2958 135.942 15.879C137.887 16.9419 140.887 18.3531 142.832 16.9419L142.3 15.3465C139.474 13.9455 135.41 14.4678 132.933 12.0023C134.53 11.4709 136.997 11.4709 138.419 11.1139C135.41 9.52823 132.933 9.52823 130.117 10.5814C130.117 10.5814 129.585 9.17071 128.52 8.63871C130.998 8.63871 133.998 10.0596 135.41 7.053C131.521 5.12005 127.641 10.5814 123.219 4.76254C125.696 4.76254 126.575 2.81989 130.465 4.76254C130.465 4.76254 132.062 4.2317 132.585 3.17741C128.172 2.28791 124.631 1.76617 121.274 3.70882C120.218 3.1774 119.338 2.8199 118.274 2.2879C121.274 1.23476 124.109 0.344685 127.109 -0.707893C126.054 -1.24046 125.696 -2.64199 125.696 -2.64199C121.632 -2.11969 120.218 0.877234 116.329 1.23474C115.275 0.877234 115.275 0.877242 114.394 0.344681C117.393 -0.707896 119.697 -3.18311 122.696 -4.06235C121.632 -4.58465 121.632 -4.58464 120.751 -5.12575C117.751 -4.06234 115.806 -2.64199 112.449 -0.707893L110.504 -1.58827C110.504 -4.06234 112.449 -5.47358 114.917 -5.47358C113.861 -6.00614 113.861 -6.00614 112.972 -6.52729C110.504 -6.52729 108.56 -4.94215 108.027 -1.58827C106.092 -2.64199 104.148 -3.53091 101.67 -3.53091C103.614 -4.94214 106.092 -4.94214 107.504 -7.94877C103.084 -9.00135 101.67 -3.53091 97.2572 -4.58463C99.7246 -6.88479 102.551 -10.4131 106.092 -12.3558C110.852 -12.3558 111.916 -19.238 116.329 -18.1752C115.275 -16.2422 112.797 -13.767 113.861 -10.9446C116.861 -11.8244 115.806 -17.2954 118.807 -18.1752C119.697 -17.8274 121.632 -16.764 122.696 -16.2422C120.751 -14.8208 118.807 -13.4095 118.807 -10.9446C119.338 -9.53391 120.751 -9.88173 121.274 -10.9446C123.219 -12.3558 121.632 -16.764 127.998 -14.8207C126.575 -12.0068 125.696 -9.88173 124.109 -7.0587L126.054 -6.00613C127.641 -9.00136 128.52 -10.9446 129.943 -13.9421L132.062 -12.8781C132.062 -10.4132 127.109 -5.47357 130.465 -5.12575C133.466 -3.71338 130.465 -9.88175 133.998 -12.0069C134.877 -11.4766 135.942 -10.9446 136.823 -10.4132C137.355 -9.00136 135.41 -7.59127 134.53 -5.64862C134.53 -5.64862 134.877 -4.06234 135.942 -3.71338C136.823 -5.64862 136.823 -7.94879 138.419 -8.47052C144.776 -9.00137 137.355 -4.06234 140.364 -2.64199C141.768 -0.707892 142.832 -5.12574 143.18 -6.17889C147.602 -5.12574 144.244 -0.70789 142.832 2.2879C143.712 2.64542 145.299 2.2879 145.299 2.2879C146.189 0.171919 146.721 -0.707892 147.602 -2.64199C148.666 -2.11969 149.189 -0.707904 150.07 -0.176483L149.189 -0.707893C149.721 0.702196 148.666 2.64541 146.721 4.23169C146.189 5.12005 146.721 6.7052 148.134 6.17435C149.721 5.65149 150.602 3.70883 151.656 1.76618C152.546 2.11457 153.601 2.64542 153.601 2.64542C153.601 5.12006 151.134 7.58557 152.546 9.52822C153.601 10.0596 155.023 7.05302 155.546 6.17435C157.491 7.05302 158.555 10.0597 159.959 12.0023C160.849 12.5252 162.435 12.0023 161.903 10.4086C159.959 7.05301 158.903 4.05722 156.078 2.64542C156.968 3.17741 159.435 3.1774 159.959 2.11456L159.435 0.702194C156.968 0.702194 155.546 1.23476 153.601 0.171921C154.491 0.702201 156.078 0.171925 158.023 -1.24045C156.078 -2.29302 152.546 -0.176463 151.134 -2.11968C152.546 -2.64198 153.959 -3.1831 155.546 -3.71338C152.546 -5.12575 150.07 -2.64199 147.602 -5.12575C149.189 -5.64862 150.602 -6.17889 152.546 -7.59126C151.656 -8.12154 151.656 -8.12156 150.602 -8.47052C147.244 -9.00137 145.657 -6.17891 143.18 -8.47052C145.657 -8.47052 148.134 -8.4705 150.07 -10.0642C146.721 -12.8781 143.18 -8.47051 139.3 -10.4132C140.713 -10.9446 144.244 -10.4132 144.776 -13.9421C141.768 -12.8781 138.419 -10.9446 135.942 -13.4095C137.887 -14.8207 140.364 -14.8207 141.768 -17.8274C139.3 -17.8274 135.41 -17.2954 133.998 -14.2996C132.933 -14.8208 132.933 -14.8207 132.062 -15.3527C133.466 -18.3577 135.942 -18.3577 138.767 -19.238C137.887 -19.7706 138.245 -20.8232 137.355 -21.1716C133.998 -21.7133 132.933 -17.2954 129.943 -16.415C128.52 -15.8847 127.641 -16.2422 126.575 -16.764C129.053 -19.238 130.998 -20.6493 133.998 -21.7133C130.465 -22.2356 127.109 -20.3009 124.631 -17.8274C124.631 -17.8274 122.696 -18.7066 121.632 -19.238C122.696 -21.1716 126.054 -20.6493 127.457 -23.6559C124.631 -22.5931 122.163 -22.5931 119.154 -19.238C119.154 -19.238 118.274 -19.7706 117.22 -20.3009C125.164 -23.6559 129.943 -31.0599 138.245 -33.0025C136.3 -31.5919 135.41 -29.4742 133.466 -28.0641C137.887 -27.174 137.887 -31.9397 140.713 -33.0025C141.768 -32.4717 141.768 -32.4717 142.658 -31.9397C139.823 -31.0599 139.3 -27.5315 138.245 -25.5889C139.3 -25.2313 140.364 -24.7085 140.364 -24.7085C142.3 -26.1209 141.768 -29.9965 144.602 -31.0599C145.657 -30.529 146.189 -31.5919 147.069 -31.0599C145.657 -28.0641 143.712 -26.6517 143.18 -23.2984C143.18 -23.2984 145.124 -22.2356 145.657 -23.2984C147.602 -24.7085 147.602 -29.6492 150.959 -29.1167C150.07 -27.174 146.189 -24.1782 149.537 -21.3558L151.134 -21.7133C150.959 -24.1782 152.015 -26.1209 153.078 -28.0641C155.371 -25.7639 152.015 -21.3558 153.959 -20.3009C155.546 -18.3577 156.968 -23.6559 156.968 -26.1209C160.849 -24.1782 156.968 -18.8805 159.959 -17.479C161.38 -15.3527 162.793 -18.3577 161.38 -22.7658C162.261 -22.2356 162.261 -22.2356 163.325 -21.7133C164.738 -19.7706 160.317 -18.3577 163.848 -15.3527C164.206 -16.415 165.27 -18.3577 165.793 -19.4125L167.737 -18.3577C167.737 -15.8847 166.682 -13.9421 167.206 -12.5297C167.737 -11.1191 169.682 -12.5297 170.205 -13.4095C170.746 -14.4724 169.682 -14.9947 170.205 -15.8847C174.628 -14.9947 170.746 -12.0068 172.15 -10.0642C173.04 -9.53391 173.572 -10.5871 174.095 -11.4766C177.984 -9.53391 179.048 -4.23626 183.46 -3.18311C184.874 -3.71339 183.46 -5.64861 182.397 -6.17889C183.46 -5.64861 186.286 -4.23625 186.286 -6.70119C184.874 -8.64384 181.516 -9.1764 178.507 -10.5871C180.984 -10.5871 182.93 -9.53391 184.874 -11.1191C182.397 -13.5931 178.507 -10.5871 175.508 -14.4724C177.452 -13.5931 179.397 -12.5297 181.516 -13.9421L180.984 -15.5364C177.452 -15.8847 174.095 -16.415 171.095 -17.8274C174.095 -18.8805 177.452 -15.8847 180.984 -18.0013L180.452 -19.4125C176.04 -20.3009 170.205 -18.3577 167.206 -22.2355C169.682 -22.2355 171.627 -21.3558 173.572 -20.3009C173.572 -20.3009 174.984 -20.8232 175.508 -21.8872C172.15 -24.7085 168.619 -22.7658 165.27 -23.2984C164.206 -23.8298 163.325 -24.1782 162.261 -24.7085C165.27 -25.7639 168.261 -24.1782 170.205 -25.7639L169.682 -27.174C165.793 -29.1167 162.261 -24.7085 157.839 -28.0641C160.317 -28.0641 163.848 -27.7066 166.141 -30.1806C161.728 -31.0599 158.381 -29.1167 153.959 -29.9965C156.436 -32.4717 160.317 -28.0641 161.728 -33.5345C157.839 -35.4675 154.491 -31.0599 150.07 -32.1233C152.015 -33.5345 153.959 -34.9452 156.436 -34.9452C152.904 -37.9427 149.015 -32.4717 145.657 -33.0025C146.547 -34.9452 148.134 -35.4675 150.959 -36.3575C150.959 -36.3575 151.482 -37.4101 152.015 -38.4741C150.959 -38.8225 150.602 -37.9427 149.537 -38.4741C146.547 -37.4101 143.18 -33.0025 139.3 -34.9452C143.712 -38.8225 149.537 -40.7657 154.849 -44.2935C156.436 -44.8249 158.903 -44.8249 160.849 -43.7609C161.728 -43.2386 159.784 -41.828 161.728 -40.9385C164.206 -40.9385 162.793 -45.3563 166.682 -43.4137C165.619 -41.296 164.206 -38.4741 163.325 -36.5315C166.682 -36.0086 169.15 -38.4741 168.619 -42.3509C169.682 -41.828 169.682 -41.828 170.563 -41.471C171.976 -39.3533 167.737 -35.4675 170.03 -35.4675C173.04 -34.0659 171.976 -39.3533 174.095 -40.9385C174.095 -40.9385 174.984 -40.4167 176.04 -39.8853C176.387 -38.4741 176.387 -36.0086 174.984 -35.4675C173.572 -35.1196 172.15 -34.5888 173.04 -31.5919C176.04 -32.645 176.387 -36.0086 178.865 -38.4741L180.81 -37.4101C181.874 -34.5888 178.507 -32.645 178.507 -30.1806C179.397 -29.6492 180.452 -29.1167 180.984 -30.1806C181.874 -32.1233 182.397 -35.4675 183.286 -35.1196C188.231 -35.1196 184.342 -29.6492 182.397 -28.2374C183.286 -27.7066 185.754 -25.2314 187.699 -31.5919C192.112 -30.7121 189.643 -25.7639 192.643 -24.351C193.707 -23.8298 194.056 -24.8835 194.588 -25.7639C196.175 -23.8298 198.12 -20.4754 198.478 -21.3558C202.009 -23.2984 197.056 -25.7639 195.652 -27.7066C197.056 -28.2374 198.478 -28.7688 199.001 -29.6492C197.056 -30.712 194.588 -28.2374 192.112 -30.7121C193.176 -30.1806 194.588 -30.7121 196.533 -32.1233C193.707 -33.5345 189.644 -30.712 188.231 -35.1196C190.175 -34.0659 193.176 -32.645 195.121 -34.0659L194.588 -35.6511C190.699 -37.5852 186.819 -37.0623 182.755 -39.0055C184.874 -37.9427 185.754 -37.5852 188.231 -39.8853C185.754 -42.3508 181.874 -39.5278 178.865 -40.9385C181.342 -40.9385 182.755 -41.471 184.874 -42.8823C182.397 -45.3563 178.865 -40.9385 174.984 -42.8823C176.387 -43.4137 177.984 -43.7609 178.865 -45.8878C176.387 -45.8878 173.92 -45.7036 172.508 -42.8823C171.627 -43.4137 171.627 -43.4137 170.563 -43.7609C171.095 -44.8249 173.04 -46.2361 173.572 -47.299C172.508 -47.8218 171.095 -47.299 171.095 -47.299C169.682 -44.2935 168.085 -43.7609 165.27 -45.3563C167.206 -46.7676 170.563 -46.2361 171.976 -49.2331C167.206 -49.2331 163.325 -43.7609 158.381 -46.2361C165.27 -50.122 171.627 -53.1184 179.397 -56.6467C180.278 -56.1153 181.342 -55.5924 182.223 -55.061C182.223 -52.5961 180.81 -52.2386 178.865 -50.6534L179.397 -49.2331C181.874 -49.2331 183.286 -52.2386 184.342 -54.1812C185.231 -53.6498 186.286 -53.1184 187.167 -52.5961C186.286 -50.6534 183.286 -49.7645 183.81 -48.1788C184.342 -46.7676 186.819 -49.2331 189.112 -51.7072C189.112 -51.7072 190.175 -51.1757 191.057 -50.6534C190.699 -49.7645 189.644 -47.8218 190.699 -47.299C191.589 -46.7676 192.643 -48.7102 193.176 -49.7645C196.001 -48.3618 192.643 -46.4192 193.176 -44.8249C193.533 -43.4137 195.121 -43.9445 195.478 -44.8249C196.001 -45.8877 195.478 -47.299 196.001 -48.3618C197.056 -47.8219 197.946 -47.299 199.001 -46.7676C198.478 -45.8878 197.056 -45.3563 196.533 -44.476L197.056 -42.8823C199.001 -42.0019 199.542 -47.8219 201.835 -45.3563C202.359 -43.9445 199.542 -40.4167 203.954 -39.5278C204.303 -40.4167 204.835 -41.471 204.303 -42.8823C207.303 -41.471 208.715 -37.0623 211.725 -35.6511C213.137 -38.4741 209.247 -40.5907 209.247 -42.8823C211.192 -42.0019 211.725 -42.8823 212.256 -43.9445C210.311 -44.8249 207.303 -43.9445 205.368 -44.8249C206.78 -45.3563 209.78 -43.9445 209.78 -46.4192C208.192 -48.3618 204.303 -45.3563 202.891 -47.299C204.303 -47.8218 207.303 -46.4192 207.303 -48.8841C205.899 -50.8268 203.423 -48.3618 201.835 -47.8218C200.945 -48.3618 200.945 -48.3618 199.891 -48.8841C202.359 -48.8841 203.954 -49.2331 205.899 -50.8268C202.891 -52.2386 199.891 -51.1757 197.056 -50.2959C198.478 -50.8268 200.945 -50.8268 200.413 -52.2386C199.001 -54.1812 195.478 -52.2386 193.176 -52.2386C194.588 -52.7694 197.414 -53.6498 197.056 -55.061C194.588 -57.5265 192.643 -53.6498 190.175 -53.6498C191.589 -54.1812 195.478 -54.7035 195.121 -56.1153C192.643 -58.5894 189.644 -55.061 187.167 -55.061C188.58 -55.5924 192.112 -55.061 192.643 -58.5894C188.231 -59.4692 185.231 -53.6498 181.342 -58.058C185.754 -59.4692 191.589 -61.4119 196.001 -63.0061C195.478 -61.9433 191.589 -61.4118 195.478 -59.4692C197.946 -59.4692 197.946 -61.9433 198.478 -63.0061C203.781 -63.8859 199.001 -59.1208 201.835 -57.5265L203.423 -58.058C203.781 -59.1208 204.303 -60.0006 203.781 -61.5858C204.835 -61.0635 205.726 -60.532 206.78 -60.0006C206.248 -59.1208 205.368 -57.1776 204.835 -56.1153C204.835 -56.1153 205.368 -54.7035 206.248 -54.1812C207.844 -54.7035 208.715 -56.6467 208.715 -59.1208C210.137 -59.6528 211.725 -62.4747 212.605 -54.7035L214.55 -53.6498C216.146 -54.1812 215.605 -55.7675 215.082 -57.1776C217.018 -56.1153 218.09 -55.7675 217.018 -51.3593C217.018 -51.3593 218.614 -49.4167 221.081 -51.7072L220.558 -53.2923C222.503 -52.2386 223.026 -48.3618 226.392 -47.8218L227.448 -49.7645C224.97 -52.2386 223.026 -53.2923 220.558 -55.7675C223.026 -55.7675 224.97 -54.7035 226.916 -56.1153C223.384 -56.6467 220.558 -58.058 216.494 -57.7101C216.494 -57.7101 216.146 -59.1208 215.082 -59.6528C216.494 -60.0006 217.549 -59.6528 218.614 -59.1208C219.494 -58.5894 220.558 -60.532 220.558 -60.532C217.018 -63.529 213.137 -60.532 209.78 -61.0634C211.192 -61.5857 214.2 -60.0006 213.67 -64.061C213.137 -65.4716 210.137 -61.9433 207.844 -61.9433C206.78 -62.4747 206.78 -62.4747 205.726 -63.0061C207.303 -63.529 208.715 -64.061 210.137 -64.4173C212.083 -66.0036 209.78 -66.0036 208.715 -66.3514C205.726 -65.4716 202.891 -61.9433 197.946 -64.4173C202.359 -68.2941 207.303 -68.2941 212.605 -69.3569C215.082 -69.3569 212.605 -66.8828 213.137 -65.4716C213.67 -64.061 215.082 -64.4173 215.605 -65.4716C216.146 -66.5339 215.605 -67.9468 216.146 -68.8255C220.027 -69.3569 215.605 -65.4716 218.439 -64.061L220.027 -64.4173C220.558 -65.4716 220.027 -66.8829 220.558 -67.9468C223.384 -68.8255 221.972 -63.529 222.503 -62.1183C223.384 -61.5857 224.447 -61.0634 224.97 -62.1183C225.32 -63.0061 218.962 -64.9488 227.796 -65.4716C228.329 -64.061 224.97 -62.1183 227.796 -60.532L229.383 -61.0634C229.741 -62.1183 229.209 -63.529 229.741 -64.5912C230.805 -64.061 231.685 -63.529 232.749 -63.0061C232.219 -62.1183 229.383 -61.0635 232.219 -59.6528C233.272 -59.1208 234.163 -61.0634 234.694 -62.1183C235.75 -61.5857 235.75 -61.5857 236.631 -61.0634C236.098 -60.1757 235.217 -60.7156 234.694 -59.6528C236.098 -57.7102 238.576 -60.1757 240.52 -56.6467C241.575 -56.2978 244.052 -56.2978 243.519 -57.7101C242.996 -59.1208 241.051 -60.1757 239.107 -61.0634C240.52 -61.5857 240.52 -61.5857 242.107 -62.1183C239.107 -63.529 236.631 -63.529 233.622 -64.9488C234.694 -64.5912 235.566 -66.5339 235.566 -66.5339C233.621 -67.4143 230.274 -65.4716 228.329 -66.5339C229.209 -66.0036 230.805 -66.5339 230.274 -67.9468C229.741 -69.3569 228.329 -68.9994 225.32 -67.9468C225.32 -67.9468 224.447 -68.4691 223.384 -68.8255C224.447 -68.4691 225.852 -68.9994 225.32 -70.4118L223.384 -71.2996C220.907 -68.8255 218.09 -70.4118 215.605 -70.4118C220.027 -71.8224 222.852 -72.8847 227.264 -74.2971C227.796 -70.4118 232.219 -71.8225 234.163 -68.4691L236.098 -69.8792C234.163 -70.9421 232.219 -71.8224 230.805 -73.7651C234.694 -71.8224 238.043 -73.7651 238.043 -68.9994C238.576 -67.4143 239.988 -67.9468 240.52 -68.9994C241.051 -69.8792 239.988 -70.4118 239.63 -71.8224C240.52 -71.4746 241.575 -70.9421 242.466 -70.4118L241.575 -68.4691C241.933 -67.0568 244.4 -67.0568 244.933 -67.9468C245.464 -68.9994 244.4 -69.5314 244.933 -70.4118C246.878 -69.5314 246.345 -68.4691 245.987 -67.5887C249.877 -67.9468 252.712 -66.5339 256.234 -63.529C257.124 -63.1812 258.178 -65.1238 258.178 -65.1238C255.711 -67.5887 253.235 -67.5888 250.41 -68.9994C251.298 -68.4691 252.712 -68.9994 254.831 -70.4118C251.821 -71.9969 247.409 -70.4118 244.4 -71.8224C245.464 -71.4746 246.345 -70.9421 247.932 -73.9401C244.4 -74.2971 242.466 -72.8847 239.107 -73.4173C240.52 -73.7651 242.996 -73.9401 242.466 -75.3599C242.466 -75.3599 241.575 -75.8828 240.52 -76.2403C237.162 -76.7706 236.098 -72.3544 231.154 -74.8279C234.694 -76.7706 239.107 -78.1727 242.466 -77.8254C243.519 -77.3026 241.933 -74.2971 244.4 -74.2971C245.987 -74.8279 246.878 -74.2971 245.464 -78.7053C247.932 -78.7053 247.932 -76.2403 248.29 -74.8279L250.41 -73.9401C251.821 -74.2971 250.234 -76.2403 249.877 -77.8254C254.289 -79.2361 253.766 -73.4173 257.124 -72.8847C258.178 -72.3544 260.123 -71.4746 260.123 -73.9401C259.6 -75.3599 258.712 -75.8828 257.656 -76.4131C262.068 -75.3599 265.077 -73.9401 268.958 -71.9969C269.839 -71.4746 270.903 -73.4173 270.903 -73.4173C268.425 -75.8828 265.957 -75.8828 262.601 -76.4131C264.013 -76.7706 264.536 -77.8255 265.077 -78.8883C261.537 -79.2361 258.178 -74.8279 254.647 -77.8254C257.656 -78.7053 258.178 -82.2336 261.537 -81.7108C263.482 -80.8212 265.427 -79.7681 266.48 -76.7706C267.902 -77.3026 267.902 -77.3026 269.49 -77.8254C268.425 -78.3569 268.958 -79.2361 267.902 -79.7681C270.37 -79.7681 271.784 -75.3599 274.259 -75.3599C275.847 -75.8828 275.324 -77.3026 274.259 -77.8254C277.792 -77.3026 279.205 -72.8847 282.561 -75.0024C278.672 -76.945 274.259 -80.2904 269.49 -80.2904C272.315 -81.3532 272.838 -84.7065 277.26 -83.6539C276.727 -82.7639 275.847 -80.8212 276.727 -80.2904C277.792 -79.7681 278.672 -81.7107 279.205 -82.7639C281.15 -81.7107 279.205 -80.2904 279.205 -80.2904C281.682 -77.8254 284.506 -81.3532 286.974 -78.8883C286.974 -81.3532 283.085 -80.8212 283.085 -83.2959L281.682 -82.7639C282.561 -84.7065 285.029 -84.7065 286.626 -85.2385C287.507 -84.7065 288.562 -81.8846 291.396 -82.7639C290.506 -83.2959 289.452 -83.8273 288.918 -85.2385C291.396 -85.2385 294.396 -86.2928 296.864 -86.2928C297.753 -85.7705 297.396 -82.2336 298.808 -82.7639C300.753 -84.3502 295.809 -86.6503 304.643 -87.1817L304.111 -86.2928C305.697 -86.6503 307.643 -88.2355 308 -89.1244Z" fill="white" fill-opacity="0.15"/>
</g>
<defs>
<clipPath id="clip0_676_2">
<rect width="174" height="87" fill="white"/>
</clipPath>
</defs>
</svg>
