<svg width="173" height="87" viewBox="0 0 173 87" fill="none" xmlns="http://www.w3.org/2000/svg">
<g clip-path="url(#clip0_676_32)">
<mask id="mask0_676_32" style="mask-type:alpha" maskUnits="userSpaceOnUse" x="-131" y="0" width="304" height="87">
<path d="M-131 43.5C-131 19.4756 -111.524 0 -87.5 0H129.5C153.524 0 173 19.4756 173 43.5C173 67.5244 153.524 87 129.5 87H-87.5C-111.524 87 -131 67.5244 -131 43.5Z" fill="#98A24C"/>
</mask>
<g mask="url(#mask0_676_32)">
<path fill-rule="evenodd" clip-rule="evenodd" d="M44.52 44.2892L45.573 43.7664C43.987 43.2361 43.098 43.7664 41.51 43.2361C43.098 43.7664 43.098 43.7664 44.52 44.2892ZM59.179 46.7639C60.233 48.6974 60.766 47.2948 61.646 46.7639C60.232 46.2319 57.765 46.2319 56.353 45.7096C57.765 46.2319 57.765 46.2319 59.179 46.7639ZM376.269 367.06C381.029 367.06 377.15 361.58 379.618 359.125L381.205 359.637C381.562 360.7 381.562 363.175 381.029 364.585C382.626 362.644 381.562 358.244 385.094 357.694C386.506 358.244 384.571 361.58 384.03 363.175C385.094 362.644 386.506 363.175 386.506 363.175C387.038 361.58 385.975 359.637 387.92 358.759L389.506 359.289C389.864 360.169 388.984 360.7 388.45 362.112C393.396 359.637 390.928 354.873 388.984 350.823C388.984 350.823 387.57 350.473 386.506 350.823C387.57 352.764 388.984 355.751 387.57 357.694L385.975 357.181C385.975 354.873 384.571 351.884 383.681 349.943L382.094 349.411C383.149 351.353 384.03 353.296 381.562 355.751C380.681 353.809 380.681 351.353 379.618 349.411C379.618 349.411 378.203 348.878 377.324 349.411C378.203 351.353 379.268 353.296 378.203 356.302C377.673 355.239 376.792 355.751 376.269 354.708C375.205 352.764 378.737 349.943 371.315 349.943C372.903 355.239 375.728 361.067 376.269 367.06ZM396.752 361.58C396.396 358.244 395.341 353.809 391.983 351.884C393.928 353.296 393.396 357.347 394.277 359.289C394.277 359.289 393.928 360.7 392.873 361.232C394.277 361.58 395.341 361.232 396.752 361.58ZM398.698 360.7C400.285 361.232 401.698 361.765 403.12 362.112C400.643 359.637 401.698 354.359 396.396 353.296C397.285 355.239 398.698 358.244 398.698 360.7ZM192.726 84.172C190.782 82.7614 190.432 81.881 189.368 79.9383C188.837 81.349 189.901 83.2916 189.368 84.704C190.432 84.172 191.846 84.704 192.726 84.172ZM3 36.8756C3.889 36.3533 3.88901 36.3533 4.94501 35.8219C5.30301 39.3497 8.30199 40.2295 10.247 39.3497C11.302 38.8182 9.715 35.8219 11.834 34.9426C12.192 35.8219 11.66 37.4156 12.192 38.2868C14.136 39.7072 17.669 39.3497 20.494 40.2295C20.136 39.3497 19.604 38.2868 20.494 37.7645C19.072 37.4156 16.604 37.4156 15.724 35.299C18.191 35.4729 20.136 36.8756 20.494 33L22.082 33.3564C20.494 35.4729 24.557 38.2868 21.548 39.8811C25.438 37.7645 28.439 41.2934 33.208 41.2934C34.273 40.7615 34.273 40.7615 35.153 40.2295C36.741 43.2361 39.565 41.8238 41.161 42.3461C40.63 41.2935 40.63 41.2935 41.684 40.7615C40.097 40.4137 38.685 39.8811 37.62 37.9384C38.685 37.4156 40.097 37.9384 42.042 39.3497C41.684 38.2868 39.74 36.8756 39.216 35.9958C42.042 36.8756 43.098 34.0526 46.464 33.5303C48.051 34.0526 45.043 35.4729 45.573 36.3533C45.573 38.8183 49.463 34.4101 49.463 36.8756C48.932 38.4704 46.464 38.4704 44.52 39.3497C45.573 38.8182 46.987 39.3497 48.399 39.8811C47.518 40.4136 45.043 40.4137 43.987 40.7615L43.629 42.3461C46.464 45.7096 50.344 41.2935 52.288 42.8786C54.766 45.1788 57.765 43.7664 61.123 45.7096C63.591 45.7096 65.187 46.2319 67.481 46.2319C65.536 44.8213 63.591 43.4094 63.591 40.9359C64.122 39.3497 67.132 40.4137 68.534 43.4095C69.067 41.8237 68.004 39.8811 66.067 38.4704L66.6 37.0581C68.534 35.9958 69.599 40.4137 71.012 38.4704C70.48 37.4156 69.599 35.4729 70.48 35.1154C71.544 34.5851 72.424 36.5278 72.957 37.4156C75.434 35.1154 79.846 34.0526 83.204 35.9958C80.368 37.5906 77.901 37.4156 74.369 37.9384C75.434 37.4156 77.901 37.4156 78.251 38.4704C79.315 40.4137 75.957 40.9359 71.544 39.3497L71.012 40.9359C72.424 41.4662 75.957 40.936 76.306 41.8237C76.837 45.3521 71.544 41.8237 69.949 43.7664C70.48 47.2947 74.369 42.8786 75.434 44.8212C73.489 45.8841 71.012 45.8841 69.067 46.7639C72.957 47.2948 77.379 48.6974 81.791 50.2923C81.259 49.2294 82.313 48.6974 81.791 47.8273C81.259 46.7639 78.781 46.7639 78.251 45.8841L78.781 44.2892C80.195 44.8212 81.791 45.3521 83.204 45.8841L83.736 44.2892C82.313 43.9414 79.846 43.9414 79.846 41.4662C80.368 39.8811 82.671 39.8811 85.148 42.3461C85.68 40.936 81.791 37.9384 85.148 37.5906C87.616 37.5906 87.616 39.8811 88.148 40.9359C93.092 38.4704 98.917 38.1135 103.34 41.9988C99.808 42.5211 95.395 43.4095 91.506 40.4137C90.615 40.936 89.561 41.4662 88.67 41.9988C91.506 42.8786 93.092 43.4094 95.918 44.4637C93.451 46.7639 89.561 43.9414 86.735 42.8786L86.203 44.2892C87.616 44.8212 90.093 44.8212 89.561 46.407C88.148 48.3496 86.735 45.3521 85.148 44.8212L84.608 46.2319C86.203 46.7639 87.616 47.2948 89.028 47.8273C88.148 48.3496 86.203 49.2294 84.608 48.6974C85.148 49.7597 84.259 50.2923 83.204 50.6401C85.148 49.7597 87.083 51.1721 88.497 51.7029L87.616 52.2349C90.093 52.2349 92.038 53.6456 94.506 53.6456C93.982 52.7663 93.982 52.7663 95.038 52.2349C94.506 51.1721 92.561 49.7597 92.038 48.6974C95.038 47.2947 96.45 52.7663 98.395 49.2294C98.917 47.8273 91.506 47.8273 97.33 44.8212C98.395 44.4637 99.45 46.4069 99.808 47.2947C104.22 48.881 100.863 44.4637 103.871 42.8786C105.816 41.9988 105.274 45.8841 108.109 44.4637C107.761 43.4094 106.697 41.4662 107.761 40.9359C109.697 40.0561 109.697 44.9952 112.173 42.5211L112.522 40.9359C113.586 40.587 114.999 40.9359 115.522 41.9988L114.999 43.4095C119.943 40.936 123.833 43.9414 127.364 45.8841C129.309 47.4692 125.769 47.8273 125.769 47.8273C121.888 44.9952 117.999 44.4637 113.586 45.3521C114.999 45.8841 115.522 41.9988 117.999 46.9384C113.586 47.8273 109.697 44.9951 105.816 46.9384C108.109 46.9384 109.697 47.2948 111.641 48.881C108.641 50.2923 105.274 48.3496 102.808 48.3496C104.22 48.881 107.761 48.3496 108.109 51.7029C105.816 51.7029 102.285 52.2349 100.863 49.2294C99.808 49.7597 100.34 50.8237 99.275 51.1721C101.753 51.1721 104.22 51.1721 105.274 53.2892C104.752 54.7004 100.34 53.2892 97.33 52.2349C97.863 53.1153 96.973 53.6456 95.918 54.1776C102.808 55.5882 108.109 59.1172 114.999 60.5284C114.467 57.1745 111.109 57.7059 108.641 55.2318C112.173 52.2349 114.467 59.6486 116.412 56.1208C117.467 55.7633 114.467 52.2349 112.173 52.2349C113.054 51.7029 113.054 51.7029 114.118 51.3551C116.586 51.3551 118.531 52.7663 118.888 56.1208C119.943 55.7633 120.475 54.1776 120.475 54.1776C119.943 53.2892 118.531 52.7663 117.999 51.7029L118.531 50.2923C120.475 49.4119 121.888 49.7597 122.943 54.1776C123.833 53.8201 123.832 53.8201 124.888 53.2892C124.366 52.2349 122.943 49.4119 123.833 48.881C125.246 49.4119 126.832 52.2349 129.309 52.2349C128.777 51.3551 129.309 49.9433 129.658 48.3496C131.245 48.881 132.135 50.8237 132.667 51.8865C135.134 49.4119 134.07 47.4692 137.611 49.4119C136.548 49.9433 137.08 50.8237 136.016 51.3551C139.547 53.2892 138.492 48.881 140.97 48.881C140.97 48.881 142.915 50.4662 140.97 51.3551C142.381 51.8865 146.436 49.9433 146.794 53.2892C146.794 53.2892 144.859 54.3515 144.318 53.2892C144.859 54.3515 145.381 55.2318 144.318 55.7633C142.024 55.7633 140.97 53.8201 139.547 53.2892C140.079 54.3515 140.079 54.3515 140.437 55.2318C139.547 55.7633 138.492 56.2941 137.08 53.2892C137.08 53.2892 135.666 52.7663 134.613 53.2892C135.134 54.3515 136.016 53.8201 136.548 54.7004L136.016 56.2941C133.548 56.2941 133.722 51.3551 128.777 53.8201C130.19 54.1776 132.135 55.7633 133.548 56.2941L133.19 57.7059C129.126 57.1745 126.31 53.82 122.42 55.7633C125.246 56.6431 126.832 57.1745 129.658 58.2373L129.126 59.6486C125.769 60.18 122.769 56.6431 118.888 58.5857C120.475 59.1171 122.769 59.1171 123.833 61.0512C121.888 59.6486 119.943 60.5284 117.467 60.5284C121.888 64.5882 127.714 66.5308 133.19 67.4106C131.071 65.9994 129.658 65.468 128.777 63.5253L129.126 62.1141C131.071 63.5253 133.19 65.119 135.134 66.5308C135.134 66.5308 136.016 65.9994 137.08 65.468C136.548 64.5882 135.134 64.0567 134.613 62.9939L135.134 61.5827C137.611 61.5827 136.548 64.5881 139.024 64.5881C142.381 64.0567 136.548 59.6486 141.492 59.6486C142.024 60.7023 142.915 62.6455 143.437 63.5253L145.381 62.6455C144.859 61.5827 143.968 59.6486 143.437 58.7596C143.968 57.1745 146.436 57.1745 146.794 58.2373C147.326 59.1171 147.326 61.5827 147.849 62.6455C148.739 62.1141 151.739 63.1763 150.325 60.18L148.739 59.6486L149.272 58.2373C151.739 58.2373 152.619 62.6455 155.629 61.2337C156.683 60.7023 153.161 58.7596 156.151 57.1745L157.574 57.7059C158.096 58.7596 158.628 59.6486 158.096 61.2337C159.16 60.7023 160.573 61.2337 161.463 60.7023L160.041 60.18L160.573 58.7596C161.463 58.2373 162.517 60.18 163.931 60.7023C169.407 61.7663 175.765 62.1141 180.535 67.0531C175.765 64.5881 169.765 65.119 164.985 62.6455C165.518 63.7089 165.876 64.5881 164.985 65.119C162.517 65.119 163.931 60.7023 159.16 63.1764C157.041 64.0567 160.573 65.9994 158.628 67.0531C157.574 67.5845 155.629 65.9994 156.683 63.1764C155.629 63.7089 155.096 62.6455 154.215 63.1764C154.748 64.0567 155.629 65.9994 156.151 67.0531C155.629 68.4734 153.161 68.4735 152.619 67.5845C153.161 65.9994 153.161 63.5253 151.739 63.1764C150.683 63.5253 149.794 64.0567 148.739 64.5881C148.207 65.9994 150.683 68.4734 151.216 69.5272C150.683 70.939 149.272 70.4075 148.739 69.5272C147.849 67.5845 147.326 66.5308 146.262 64.5881C146.262 64.5881 145.381 65.119 144.318 65.468C144.859 66.5308 146.262 67.0531 146.794 67.942L146.262 69.5272C142.381 71.4613 144.318 65.468 140.97 65.9994C142.915 67.5845 143.437 68.4734 144.318 70.4075C143.437 70.939 141.849 70.4075 141.849 70.4075C139.905 66.5308 137.96 67.4106 135.134 68.9963C142.915 72.3502 148.207 75.878 156.151 79.2324C157.041 78.701 157.574 77.2898 158.628 76.7669C156.509 75.3466 153.683 74.2929 150.683 73.4039C148.739 72.0024 151.216 72.0024 152.271 71.4613C155.096 72.3502 157.574 77.2898 161.463 75.3466C160.573 73.4039 157.041 71.4613 158.096 70.939C161.105 67.0531 158.985 75.3466 164.453 73.9353C163.398 72.0024 161.105 69.5272 163.05 68.4735C166.398 68.1171 163.398 74.4679 169.765 72.5252C169.407 71.4613 168.342 69.5272 167.82 68.4735L169.765 67.5845C170.287 68.4735 171.352 70.59 171.7 71.4613C171.7 71.4613 173.297 72.0024 174.177 71.4613C173.829 70.59 172.233 70.0597 174.7 67.5845C175.232 68.6474 175.232 70.939 177.709 70.939C178.24 69.5272 178.589 68.1171 180.185 68.6473C181.599 68.9963 181.057 70.59 180.185 70.939C181.057 70.59 182.653 68.6473 184.597 70.0597L184.067 71.4613C187.956 72.0024 191.846 72.5252 195.725 73.0555C195.725 73.0555 196.258 73.9353 196.789 74.9982C191.303 73.9353 187.423 73.4039 182.131 72.5252C182.48 73.4039 183.543 75.3466 184.067 76.4106C181.599 76.4106 181.057 75.3466 179.654 72.5252C179.654 72.5252 178.24 72.0024 177.176 72.5252C179.121 73.9353 180.535 74.4679 181.599 76.4106L181.057 77.8212C177.709 78.3532 177.176 72.5252 173.829 72.8816C176.123 75.3466 178.589 77.8212 180.002 80.8187C175.765 79.4064 175.232 73.4039 169.407 73.9353C172.755 75.878 173.297 79.2324 175.59 81.7065C174.7 82.2391 174.177 81.349 173.297 81.7065C170.287 80.8187 170.287 75.878 167.288 74.8243C167.288 74.8243 166.398 75.3466 165.343 75.878C166.398 77.8212 169.407 78.8835 170.819 81.7065C166.93 83.6492 165.876 76.9408 162.517 77.2898C164.985 79.7639 165.876 81.7065 169.232 83.6491C168.342 84.172 167.288 84.704 167.288 84.704C164.985 82.2391 163.398 79.2324 160.573 78.3532C160.573 78.3532 160.041 79.7639 158.985 80.2964C164.453 83.6492 170.287 88.0573 175.59 89.1122C182.48 90.5325 174.177 83.6491 177.176 82.2391C179.121 81.349 179.121 86.1147 181.057 87.6998C187.423 88.2324 181.057 82.7614 182.131 79.7639C183.002 79.4064 184.067 78.8835 184.425 79.7639C184.425 82.2391 185.478 84.172 186.369 86.1147C188.837 83.8145 184.946 80.8187 186.542 78.8835C190.432 76.9408 192.899 81.881 195.194 84.3556C194.313 82.2391 193.249 80.2964 194.844 78.3532C195.725 77.9957 197.139 80.8187 197.139 83.2916L198.735 83.8145C199.257 82.4124 195.725 80.2964 198.735 78.8835L200.148 79.4064C200.67 80.2964 200.67 82.7614 201.201 83.8145C203.146 82.7614 202.092 80.8187 202.615 79.4064C205.092 76.9408 204.56 80.8187 204.56 83.2916C205.614 82.7614 205.972 81.349 207.037 80.8187C207.916 80.4692 208.449 81.349 208.972 82.4124L208.449 83.8145C209.503 83.2916 211.448 82.4124 212.329 81.881C213.916 82.4124 213.394 83.8145 212.329 84.3556C218.338 83.8145 222.76 87.6998 228.052 88.7627C228.052 88.7627 228.585 89.6425 229.117 90.7059C226.107 92.1177 224.705 89.2947 222.218 89.2947C219.219 88.2324 217.275 86.8194 213.393 86.2892C213.916 87.1775 213.916 87.1775 214.807 86.8194L214.274 88.2324C211.981 88.2324 211.448 84.8768 207.916 85.2343C208.449 86.2892 209.503 88.2324 208.449 88.7627C205.092 89.1122 207.559 84.3556 203.146 85.2343C204.027 87.1775 205.972 88.7627 207.037 90.7059C202.615 91.5851 202.092 85.7572 198.203 85.2343C198.203 87.6998 201.551 89.6425 202.615 91.5851C198.203 92.6491 198.735 86.2892 193.78 86.2892C195.725 87.6998 196.258 88.5899 197.139 90.7059L196.789 92.1177C194.671 90.7059 192.726 89.1122 191.303 86.2892C190.432 86.6467 190.432 86.6467 189.368 87.1775C191.303 88.5899 193.249 90.175 194.671 92.9975C190.249 94.0603 189.901 88.2324 186.011 87.6998C186.891 89.6425 188.304 90.175 189.368 92.1177L188.837 93.5283C186.369 93.5283 184.946 90.5325 184.067 88.5899C183.002 89.1122 181.947 89.6425 181.947 89.6425C181.947 92.1177 184.425 92.1177 186.011 92.6491C186.891 94.5918 184.425 94.5917 184.425 94.5917C182.48 92.9975 181.599 91.0548 180.002 90.5325C180.002 90.5325 179.121 91.0548 178.067 91.5851C185.478 94.0603 190.782 102.344 198.551 103.407C197.139 100.411 196.258 98.4685 193.78 96.0035L194.313 94.5917C197.67 96.5258 199.615 100.411 201.028 103.407C202.092 102.885 202.973 102.344 204.027 101.822C202.615 101.464 199.084 97.0561 202.092 95.471L203.496 96.0035C204.027 97.0561 203.146 97.4056 203.496 98.4685C204.56 100.411 205.092 101.464 209.503 100.411C207.386 98.9999 208.449 96.0035 208.449 93.5283C208.972 92.1177 210.394 92.6491 210.917 93.5283C211.798 95.6455 211.448 97.0561 211.448 99.5313L212.862 99.8791C212.862 97.5881 211.448 92.1177 215.339 92.6491C217.275 94.0603 214.807 96.5258 215.86 98.4685C215.86 98.4685 217.275 98.9999 218.163 98.4685C218.163 96.0035 219.75 94.0603 221.164 92.1177C222.218 91.5851 224.163 93.1703 223.641 94.5917C223.109 96.0035 220.283 97.5881 220.641 98.4685C224.521 101.464 224.163 95.6455 226.998 94.0603C226.998 94.0603 228.585 94.5917 228.943 95.6455C229.998 97.5881 226.641 98.111 226.998 98.9999C228.585 99.5313 226.998 103.939 231.942 96.5258C231.942 96.5258 233.355 97.0561 233.879 98.111C233.006 98.4685 233.355 99.5313 232.465 100.054C233.879 100.585 236.887 98.9999 237.245 102.528C236.887 103.94 233.879 102.885 232.465 102.528C233.006 103.407 234.409 103.939 232.465 105.002C229.998 104.828 230.53 100.943 228.052 100.943C228.585 101.996 231.942 103.939 228.585 104.47C225.053 104.828 226.998 98.9999 221.696 100.411C223.641 101.996 225.053 102.528 226.107 104.47L225.577 105.882C221.696 105.351 221.164 99.5313 214.807 101.464C216.751 102.885 219.75 103.939 221.696 105.351C222.045 106.413 221.696 107.825 221.696 107.825C217.275 106.413 214.274 100.411 207.916 102.344C210.917 103.407 214.274 105.351 216.751 107.825L216.219 109.236C212.862 107.293 209.33 105.351 205.972 103.407C205.972 103.407 205.092 103.939 204.027 104.287C207.037 105.351 208.972 106.762 210.917 108.347L210.394 109.758C207.037 107.825 204.56 105.351 200.148 106.229C207.916 109.758 212.329 116.118 220.1 119.473C219.219 117.529 215.687 115.587 218.696 111.7L220.1 112.233C221.164 114.176 219.577 118.584 222.576 119.647L224.521 118.584C223.989 117.529 220.1 117.181 223.989 115.238C226.465 115.238 226.465 117.529 226.998 118.584C228.052 118.051 228.943 117.703 228.943 117.703C228.943 115.238 226.107 114.176 226.998 111.179C228.052 110.821 227.521 109.758 228.402 109.236L229.998 109.758C230.53 113.295 228.943 115.238 231.411 117.703L233.355 116.641C232.465 114.698 234.409 111.353 236.354 110.29C236.887 111.353 237.245 112.233 237.245 112.233C236.887 113.644 234.767 114.698 235.823 116.641C239.19 118.584 240.244 113.295 240.244 110.821L242.18 109.758C242.18 109.758 242.711 110.821 243.244 111.7C242.711 113.295 242.18 114.698 241.658 116.118C242.711 115.761 243.244 116.641 244.125 116.118C243.244 114.176 245.189 113.295 245.547 111.7C246.602 111.353 248.015 111.875 248.015 111.875C249.959 113.295 247.134 114.698 246.602 116.118C248.015 116.641 249.611 117.181 250.482 116.641C251.904 114.698 251.546 111.353 254.023 111.353C255.435 111.875 255.435 114.35 252.959 116.641C256.849 119.647 255.967 115.238 258.784 113.818C259.848 113.295 260.38 114.35 261.261 113.818C260.729 115.238 259.325 117.181 258.261 117.703C261.261 118.766 266.737 117.181 266.214 121.058C266.737 122.112 262.674 119.115 260.729 120.169C261.261 121.058 262.325 123.174 261.261 123.532C258.784 123.532 258.784 118.584 254.372 119.647C255.967 120.169 257.913 121.589 257.381 123.001C256.849 124.587 255.435 124.054 254.904 123.001C253.491 120.169 251.013 117.703 247.491 118.236C249.611 119.647 251.013 122.643 251.904 124.587C248.015 126.529 249.078 121.058 246.602 121.058C246.07 120.169 245.547 119.115 245.189 118.236C243.602 117.703 242.711 118.051 241.658 118.584C243.602 120.169 245.189 123 246.07 124.943L245.547 126.529C242.18 124.587 242.711 120.526 239.19 118.584C237.768 118.051 236.712 118.584 235.823 119.115C237.768 120.526 239.19 123.532 241.124 124.943C242.18 126.877 239.712 126.877 239.712 126.877C237.245 124.412 233.879 122.469 233.355 119.115C232.465 119.647 231.411 119.994 231.411 119.994C231.942 123.532 235.823 124.054 236.354 127.409C231.41 127.409 231.411 122.469 228.052 120.526C228.943 122.469 230.347 123 231.411 124.943L230.888 126.345C226.998 125.997 229.466 118.584 221.164 121.589C227.521 126.877 232.292 131.825 238.649 137.296C238.649 137.296 239.712 136.766 240.594 136.234C238.649 134.823 239.19 130.936 239.712 129.351C241.124 127.409 241.124 129.883 241.658 130.936C241.658 133.237 241.124 134.823 243.069 136.234C243.069 136.234 244.657 136.766 245.547 136.234C245.547 133.768 245.547 131.294 245.547 128.994C246.602 128.462 248.015 128.994 248.015 128.994C249.959 130.405 245.547 133.768 247.491 135.354C252.427 137.819 249.426 131.825 251.013 129.883C251.904 129.351 253.491 132.348 253.491 134.823C254.372 134.291 254.904 135.354 255.794 134.823C253.849 133.411 254.904 130.405 256.317 128.462C257.381 127.94 258.261 127.409 258.261 127.409C259.848 127.94 260.206 128.994 257.913 131.468C257.381 132.88 257.728 133.768 258.261 134.823C259.848 135.354 260.729 134.823 261.793 134.291C262.151 132.88 261.261 128.462 263.738 128.462C265.151 128.994 263.738 133.411 264.096 134.291C267.627 136.234 267.627 131.468 269.031 129.525C270.627 127.592 270.627 129.883 270.976 130.936C271.508 132 270.976 133.411 270.627 134.823C271.508 134.291 272.04 135.354 272.92 134.823C272.04 132.88 273.984 132 274.516 130.405L275.929 130.936C276.984 132.88 275.929 133.411 275.397 134.823C277.874 134.823 278.929 132 281.396 132L282.286 133.943C282.286 133.943 281.396 134.465 280.342 134.823C282.818 137.296 285.635 133.411 288.644 134.465C288.644 134.465 288.112 135.886 287.231 136.409C292.001 138.882 298.001 138.351 301.358 142.759C296.423 142.759 292.533 139.761 288.644 139.23C289.698 141.174 296.423 142.759 289.698 143.647C286.176 144.179 287.763 137.296 281.754 137.819C281.754 140.294 285.635 143.29 283.168 143.116C280.342 144.702 281.223 136.766 276.452 136.766C277.333 138.709 279.81 141.174 279.81 143.647C279.81 143.647 277.874 144.702 277.333 143.647C274.865 141.174 275.397 134.823 270.095 136.234C270.976 138.351 272.04 140.294 272.92 142.237C272.92 142.237 272.04 142.759 270.453 142.237C266.563 141.705 272.92 134.823 264.096 136.766C267.627 138.709 269.563 142.584 270.095 146.112C269.563 147.523 267.627 146.112 267.087 145.05C264.096 141.705 265.151 136.234 257.728 136.234C260.729 137.296 260.206 141.174 263.738 143.116L263.206 144.527C259.325 144.179 257.728 138.709 255.435 136.234C253.849 135.702 252.959 136.234 251.904 136.766C255.435 138.709 255.261 143.647 258.784 145.59L258.261 146.993C254.372 144.179 252.959 136.234 246.07 137.296C248.546 139.761 250.482 141.174 251.904 144.179C246.959 143.996 245.547 136.234 240.594 138.709C244.125 140.642 245.547 143.647 248.015 146.112C248.546 146.993 250.482 148.412 251.904 148.935C252.785 150.878 254.372 151.41 255.261 153.353C256.849 153.883 257.728 155.826 259.143 156.349C260.206 158.291 261.087 160.234 262.674 160.767C263.563 160.234 264.619 159.704 265.507 159.346C262.151 157.404 261.618 153.883 260.206 150.878C261.261 150.53 262.151 149.998 262.151 149.998C263.563 152.996 265.151 158.292 267.975 159.346C271.508 161.289 269.031 153.883 267.627 151.061C267.627 151.061 269.563 149.998 270.095 151.061C270.976 152.996 272.398 155.826 272.398 158.292C276.277 156.349 272.04 152.473 274.865 151.061C275.397 156.881 275.397 159.346 281.754 157.404C280.7 155.468 277.874 151.941 280.342 151.941C283.168 150.53 282.634 159.346 287.58 156.881C289.525 156.001 287.58 151.941 289.176 149.998C291.12 151.583 290.057 154.406 290.057 156.881L291.469 157.404C290.057 154.406 293.946 152.473 292.533 149.65L293.946 149.998C295.001 152.116 295.001 154.406 293.946 157.404C295.001 156.881 296.423 157.404 296.423 157.404C296.946 156.001 297.477 152.116 299.945 152.116C301.358 152.473 300.835 156.532 299.423 158.467C300.835 158.823 301.89 158.467 303.303 158.823C303.303 156.532 302.248 154.406 303.835 152.473C304.724 154.589 303.835 157.404 304.724 159.346C306.67 160.941 304.724 156.881 307.192 156.881C308.605 157.404 308.605 157.404 309.137 158.467L308.605 159.877C310.55 161.289 314.972 160.409 316.558 163.415C313.55 164.826 310.192 160.409 307.192 161.819C307.724 162.883 309.66 164.294 308.247 166.237C305.248 162.883 303.303 158.823 297.827 160.409C299.771 161.819 302.78 162.883 303.835 164.826L303.303 166.237C297.827 165.174 297.827 157.944 290.057 159.346C293.414 161.289 298.359 163.763 296.946 168.17C293.056 165.174 290.588 160.409 286.176 158.823C288.644 161.289 291.469 164.826 290.936 168.703C286.699 167.118 288.112 160.409 283.7 158.823C282.286 158.291 280.342 159.346 279.278 159.877C282.286 160.767 282.634 164.294 283.7 166.237C283.7 166.237 283.168 167.649 282.286 168.17C280.7 165.174 280.342 161.819 277.874 159.346C277.333 158.292 275.397 159.346 274.333 159.877C275.929 162.7 277.333 165.705 278.755 168.703C278.755 168.703 278.222 170.113 277.333 170.645C275.929 167.649 274.865 163.232 272.398 160.767C271.865 159.877 269.92 160.767 269.031 161.289C270.976 162.7 271.865 164.642 272.92 166.585C269.92 165.705 268.508 162.7 266.563 161.289C266.563 161.289 265.507 161.819 264.619 162.177C271.508 170.993 280.167 178.939 285.993 188.287C287.057 187.764 287.58 186.179 287.58 186.179C286.524 181.762 281.223 178.407 282.286 173.119C282.286 173.119 285.112 171.526 285.112 174C285.112 178.939 289.001 181.936 290.057 186.179C290.936 185.821 292.001 185.29 292.881 184.767C289.001 181.936 288.644 175.933 287.58 171.526L289.525 170.645C292.881 175.053 290.415 182.293 296.423 184.236C295.882 180.881 292.881 177.528 295.001 174C295.359 175.053 296.423 174.531 296.946 175.585C296.946 177.877 297.303 181.413 298.359 183.347C299.771 183.878 301.716 182.825 303.303 183.347C302.248 181.413 300.835 178.407 299.771 176.474C299.423 175.585 300.303 175.053 301.358 174.531L302.78 175.053C301.716 178.059 301.716 180.349 304.184 182.825H306.67C308.605 179.47 305.78 176.116 306.67 173.119L308.073 173.642C309.66 176.474 307.724 180.002 309.137 182.825C310.55 183.347 313.026 183.347 314.43 183.878C314.43 181.413 311.082 176.996 314.43 174.174C316.026 176.996 315.494 180.881 316.026 184.41C316.907 186.352 320.797 186.885 322.384 184.941C322.384 182.467 320.439 178.592 321.328 175.585C322.916 178.592 323.796 182.999 324.328 186.352C324.328 186.352 326.796 186.352 328.209 186.885C327.154 184.941 327.686 183.347 328.209 181.936C329.631 180.002 330.154 183.347 330.154 183.347C326.264 190.229 333.162 189.349 337.043 192.172C333.511 195.178 330.685 189.349 327.154 189.706C328.741 190.229 330.154 190.761 329.631 192.172L327.686 193.236C324.678 189.706 322.741 185.821 318.32 186.885C320.439 188.287 320.797 189.349 321.852 191.292L321.328 192.703C317.962 190.761 316.026 186.885 311.605 185.29C313.026 188.287 316.376 190.229 316.907 193.584C311.963 191.292 310.018 184.767 304.184 185.29C306.67 187.764 311.605 190.229 310.018 194.646C304.724 193.584 306.129 186.885 301.716 185.29C300.303 184.767 299.238 185.29 298.359 185.821C300.303 189.706 306.129 191.64 305.073 197.121C301.183 194.115 300.303 189.706 296.423 186.71C295.359 184.767 293.946 186.71 293.946 186.71C294.478 190.229 300.835 193.061 299.238 197.469C295.359 194.646 293.946 184.236 288.112 189.706C293.414 198 300.661 205.415 305.073 214.23C306.129 213.709 308.073 212.645 309.485 213.176C306.67 209.823 307.018 205.936 305.073 201.877C306.129 201.529 307.541 201.877 307.541 201.877C308.073 205.415 308.963 209.823 311.43 212.287C311.43 212.287 313.026 212.819 313.908 212.287C311.963 208.41 309.485 203.472 311.43 199.934C314.972 202.051 311.963 208.41 315.843 211.233C315.843 211.233 317.439 211.765 318.32 211.233C317.787 207.879 314.972 204.351 315.843 201.529C316.376 199.934 318.32 201.529 318.852 202.409C319.384 205.936 318.852 209.823 320.265 210.353C325.741 211.233 318.852 204.883 322.741 202.94C324.144 205.936 323.273 208.943 324.144 210.886L325.741 211.233C328.209 208.943 326.622 205.936 327.686 202.94C328.209 203.994 329.099 203.472 329.631 204.525C329.631 207 329.631 209.291 328.209 211.233C329.099 210.886 330.511 211.233 330.511 211.233C331.043 209.823 329.631 207 331.043 204.883L332.631 205.415C333.511 207.357 332.979 208.943 332.979 211.408C334.043 210.886 334.576 211.765 335.456 211.408C337.401 210.353 332.979 206.468 336.511 205.936C337.933 206.468 339.345 209.473 337.401 212.819C338.455 212.287 338.813 213.351 339.877 212.819C338.987 210.886 340.933 209.823 341.29 208.41L342.878 208.943C342.345 210.353 341.813 211.765 341.29 213.351L342.878 213.881C343.758 213.351 342.878 211.408 343.758 210.886C344.813 210.353 345.345 211.408 345.703 212.287L345.345 213.881L346.758 214.23C347.647 213.881 347.289 212.819 348.179 212.287C349.235 211.938 349.592 212.819 350.115 213.881C349.235 214.23 349.592 215.293 348.702 215.823C351.18 218.288 352.06 212.819 355.06 216.346L354.536 217.766L353.115 217.236C355.592 219.709 360.362 219.709 362.307 223.587C357.537 223.587 354.005 219.169 349.592 217.766C350.115 218.647 351.18 220.581 350.115 221.111C346.234 220.581 348.179 214.761 341.29 215.823C341.813 216.703 343.758 218.116 344.29 219.169C343.226 219.709 343.226 219.709 342.345 220.232C341.813 216.703 337.933 213.709 334.576 214.23C336.511 215.823 337.401 217.766 338.455 219.709L337.933 221.111C334.043 218.116 334.576 211.765 327.686 212.819C329.099 215.651 331.043 217.236 331.575 220.581C331.575 220.581 329.631 221.644 329.099 220.581C327.686 217.584 327.686 215.293 325.21 212.819C324.678 211.765 322.741 212.819 321.678 213.176C324.144 215.651 326.622 218.116 327.154 221.644C327.154 221.644 325.209 222.522 324.678 221.644C324.144 218.116 321.678 215.651 319.384 213.176C318.852 212.287 316.907 213.176 315.843 213.709C318.32 216.173 320.265 217.584 320.797 221.111C320.797 221.111 320.265 222.522 319.21 223.054C317.787 217.584 313.376 211.233 307.541 216.703C311.963 223.054 316.376 229.415 319.732 236.288C320.797 235.773 323.09 235.773 324.144 235.224C322.741 232.402 320.797 228.352 323.273 226.06C325.567 228.352 323.622 234.346 328.034 235.773C329.099 232.768 326.622 230.46 327.686 227.472L329.099 228.002C330.511 230.825 329.631 233.833 330.511 235.773C331.043 236.819 332.979 235.773 334.391 236.288C332.979 233.283 331.575 230.46 332.099 226.409L333.511 226.94C334.924 229.947 336.336 232.933 335.988 236.819C336.869 236.288 338.282 236.819 338.282 236.819C339.345 233.833 336.869 231.338 337.933 228.517C339.345 231.338 339.345 233.833 340.748 236.819L342.345 237.351C342.345 234.876 341.29 232.933 342.345 229.947C343.226 231.888 343.758 235.408 344.638 237.351L346.234 237.698C345.702 236.819 344.638 234.876 345.171 233.283L347.116 232.402C349.051 233.833 346.234 237.698 351.528 238.761C350.647 236.819 349.592 234.876 351.18 232.933C351.528 233.833 352.592 233.465 353.115 234.346C354.005 236.288 348.702 237.698 355.95 240.174C355.95 237.883 355.06 235.773 355.95 232.933C358.417 235.408 356.482 238.761 357.362 240.704L358.949 241.236C359.482 239.824 357.537 235.773 359.839 235.773C361.775 237.351 358.417 242.649 363.362 242.649C362.839 241.749 362.307 240.704 361.775 239.824L363.902 238.761C364.783 240.704 364.251 242.299 365.306 244.242L366.728 244.59C367.784 244.242 367.784 241.749 369.196 242.299C370.609 242.649 368.141 245.122 368.664 246.185C371.141 248.64 375.03 249.172 377.498 251.463C378.03 252.526 377.498 253.938 376.086 253.59C374.141 251.995 372.021 250.585 370.086 249.172C370.609 250.053 371.664 251.995 370.609 252.526C367.251 253.058 367.784 246.699 364.783 245.634C364.251 247.065 366.196 251.116 363.72 250.95C361.775 249.52 364.251 244.59 358.949 243.692C359.839 245.634 363.362 250.053 359.839 253.058C357.894 249.008 358.949 243.692 352.592 240.704C350.647 244.059 357.004 247.065 353.473 250.053C351.528 246.185 351.528 238.761 347.647 240.704C345.171 240.704 350.995 245.122 347.647 248.127C345.171 245.634 348.702 240.174 341.813 238.761C342.171 242.116 345.703 244.059 344.638 247.065C339.345 246.002 343.758 237.698 335.456 238.231C336.869 241.236 335.814 244.059 339.877 247.065C340.227 248.127 339.345 248.457 339.877 249.52C335.814 246.515 335.814 241.584 333.869 237.698C333.869 237.698 331.575 237.698 330.511 238.231C328.567 241.584 333.511 244.059 333.869 247.578C330.511 245.634 327.512 242.116 328.034 238.231C325.567 238.231 323.622 236.819 320.797 238.231C325.567 245.47 329.457 253.405 334.391 260.812C335.282 260.297 337.758 260.297 338.813 259.767C336.869 258.356 334.391 255.881 333.337 253.938L333.869 252.343C337.401 254.471 337.758 257.823 341.29 259.767C341.29 257.291 340.748 256.412 338.282 253.938C337.759 252.893 338.813 252.343 338.282 251.463C343.758 252.526 341.639 258.356 344.116 260.812C344.116 260.812 345.703 261.177 346.584 260.812C345.171 257.823 345.703 253.938 343.226 251.463C344.116 250.95 345.703 251.463 345.703 251.463C349.592 254.471 347.647 262.754 351.528 260.812C352.418 260.297 349.051 255.881 350.995 254.818C354.005 253.405 352.941 258.868 354.362 261.692L355.95 262.241C357.362 260.297 354.886 257.823 355.95 255.001C356.83 254.471 357.894 253.938 358.417 255.001C359.839 257.823 358.417 259.767 357.362 262.754C358.417 262.241 358.775 263.304 359.839 262.754C359.839 260.297 355.418 258.868 359.297 256.926L360.894 257.291C361.775 259.419 361.775 261.692 361.775 264.182C364.251 261.692 360.362 258.869 362.839 256.412L364.251 256.926C364.251 259.419 364.783 262.754 364.783 265.227C365.664 264.697 366.196 265.76 367.251 265.227C367.599 263.817 362.839 261.361 367.599 261.361C368.664 260.812 369.196 264.182 369.196 266.64L370.609 267.172C369.545 265.227 371.664 261.874 373.085 262.241C375.911 263.304 371.141 265.76 372.021 267.703C375.03 271.058 375.03 266.292 376.966 265.227L378.388 265.76C379.443 267.703 375.03 268.582 376.966 270.178C379.443 270.178 382.8 267.172 384.745 268.765L384.213 270.178C383.332 270.708 380.855 270.708 379.965 271.058C381.387 274.044 385.268 269.645 387.744 272.12L387.212 273.531C386.332 274.044 384.745 273.531 383.855 274.044C386.691 277.581 393.047 277.929 394.635 283.41L392.515 284.289C390.212 281.999 388.635 278.994 385.8 277.929C386.149 278.994 387.212 280.934 386.149 281.467L384.745 280.934C383.855 278.994 385.8 275.474 380.323 274.593C380.855 275.474 382.268 278.479 381.387 278.994C377.847 279.359 379.443 272.651 375.553 272.12C376.443 274.044 377.498 275.986 376.966 277.416C376.443 278.993 375.03 278.479 374.498 277.416C374.498 274.943 375.911 272.998 373.966 271.588C373.435 270.708 372.553 271.058 372.021 270.178C373.435 272.998 376.443 276.537 373.435 280.404L372.021 279.874C370.086 275.986 372.553 268.582 367.077 267.703C368.664 270.526 370.609 274.593 367.077 277.416L365.664 276.884C364.783 272.468 367.251 265.227 360.362 266.127C359.297 269.113 361.243 272.998 360.362 275.986C358.417 272.12 358.775 268.05 358.417 264.697C357.894 263.634 355.418 263.634 354.362 264.182C353.473 267.172 355.418 271.058 354.362 274.044L352.941 273.531C352.418 269.993 352.418 267.703 352.06 264.182C351.528 263.304 349.051 263.304 349.051 263.304C346.06 267.172 349.051 270.526 348.528 274.411C347.996 273.53 347.116 274.044 346.584 272.999C345.171 269.993 347.996 266.127 346.584 263.304C346.06 262.241 343.758 262.241 342.693 262.754C341.639 263.122 342.693 265.227 344.638 266.64C345.171 267.519 344.116 268.05 344.638 269.113C340.748 268.582 342.171 264.182 340.227 262.754C338.813 262.241 336.869 263.122 335.282 262.754C340.227 272.468 345.528 283.244 350.473 293.106C350.995 293.986 353.298 293.986 354.362 293.655C355.418 290.651 352.418 287.13 352.941 283.244C352.941 283.244 353.473 281.814 354.362 281.302C356.298 285.187 355.418 290.651 358.244 293.986L360.188 293.106C358.775 290.118 357.362 287.295 358.244 284.289C358.775 287.644 363.188 289.238 361.775 293.655C362.665 293.106 363.188 293.986 364.077 293.655C363.72 290.118 361.243 285.352 362.665 283.244C366.196 277.929 364.6 284.82 365.132 285.7C365.132 288.175 366.545 291.163 365.664 293.986L367.077 294.536C369.022 291.163 367.077 287.295 368.141 284.289L369.545 284.82C372.553 288.175 369.022 291.163 369.545 294.536L370.967 295.048C370.967 292.593 370.609 289.238 372.021 287.295L373.435 287.828C375.03 290.651 370.967 292.593 373.435 295.048L374.847 295.599C376.966 292.226 372.903 289.238 375.03 285.7L376.443 286.233C376.966 289.77 378.388 292.593 377.847 296.643C381.736 294.536 375.911 290.118 381.387 291.163C382.8 291.713 380.855 295.048 380.855 297.541C383.681 296.111 382.8 291.713 385.268 291.713C387.212 293.106 383.332 295.048 383.332 297.541C383.332 297.541 384.745 298.054 385.268 298.934C386.149 296.111 388.094 295.048 390.038 294.169C391.102 296.111 390.57 297.541 387.57 299.117C390.57 299.997 393.047 297.541 394.993 299.117C395.514 299.997 394.46 300.529 393.57 301.059C395.514 302.472 399.404 300.529 399.936 303.882C399.404 305.46 397.46 303.882 396.046 303.517C397.992 304.947 399.936 306.338 400.817 308.283C401.35 309.345 400.817 310.756 399.404 310.223C395.872 308.283 394.46 305.46 391.102 303.517C391.983 305.46 393.047 307.402 393.047 309.893C388.094 307.402 390.57 299.997 383.681 301.059C385.626 302.472 387.57 303.882 387.57 306.338C387.57 306.338 387.212 307.768 386.149 308.283C385.626 304.947 381.736 301.94 380.323 298.934C380.323 298.934 378.911 298.587 377.847 298.934C377.847 301.409 381.736 304.397 379.268 304.397C376.443 305.825 377.324 298.054 373.435 297.541C373.435 299.997 374.847 302.82 375.911 304.947C374.847 305.295 373.966 305.825 373.966 305.825C371.489 303.352 374.847 298.054 368.141 296.479C366.022 299.997 372.379 302.82 369.022 305.825C368.49 302.472 368.141 298.934 365.664 296.479C365.664 296.479 364.077 296.111 363.188 296.479C365.664 298.934 364.6 301.94 365.132 305.295L363.188 306.338L362.133 304.397C364.077 300.876 360.72 298.934 361.775 295.928C360.188 295.599 359.297 295.928 357.71 295.599C359.297 298.421 360.72 301.409 360.72 303.882C360.188 305.295 358.775 304.762 358.244 303.882C357.71 300.347 356.83 298.421 355.418 295.599C354.886 294.536 352.941 295.599 351.886 295.928C355.775 303.882 357.18 311.654 361.069 319.59C361.069 319.59 363.545 319.59 364.6 319.059C362.665 317.464 362.665 312.698 365.132 312.698C366.545 313.231 365.132 317.647 367.077 319.059C367.077 319.059 368.49 319.59 369.545 319.059C371.489 317.996 367.599 315.173 369.545 314.109C371.489 313.231 372.021 316.584 371.847 319.059C372.379 319.939 373.435 319.59 374.847 320.122C373.966 317.996 373.966 315.704 374.324 314.109C374.847 312.698 376.443 313.231 376.792 314.109C379.268 316.584 373.966 320.469 379.791 320.122C382.268 320.122 379.268 316.584 380.681 314.641L382.268 315.173C380.681 317.116 381.205 320.469 382.626 321.002C385.094 321.002 383.681 315.704 386.691 316.584C387.038 317.647 386.691 319.059 385.094 321.002C388.094 322.064 388.094 317.116 390.57 317.116C391.983 317.647 391.102 320.634 388.094 322.064C390.038 323.457 391.451 321.515 392.515 321.002C393.047 319.59 394.46 317.647 395.514 319.59C396.937 320.122 394.46 322.577 392.515 323.457C394.46 322.577 396.937 322.577 398.34 323.109C399.753 323.457 399.404 325.052 398.34 325.4C397.46 325.95 396.937 325.052 395.872 325.4C399.404 327.343 403.817 328.938 405.761 332.823L403.643 333.868C401.698 332.291 400.285 329.47 397.46 328.405C398.872 331.411 399.753 333.356 401.35 336.177C401.35 336.177 400.817 337.754 399.753 338.121C397.285 333.356 395.872 327.893 391.102 325.4C393.928 328.938 394.46 332.291 392.873 336.691C392.515 335.646 390.928 335.297 390.928 335.297C391.451 331.411 390.57 326.995 386.691 324.007C388.094 326.995 388.635 330.348 388.984 333.704L387.038 334.766C385.094 330.881 386.691 326.463 383.681 322.945C383.681 322.945 382.268 322.412 381.205 322.945C381.737 326.463 383.149 329.286 383.149 331.761C382.626 333.171 381.205 332.823 380.681 331.761C380.149 328.405 380.681 324.52 378.203 322.064C377.847 321.002 375.911 322.064 374.847 322.412C376.269 325.4 378.203 329.286 377.847 333.171C371.847 333.704 376.269 327.893 373.435 326.83C372.903 325.95 372.903 323.457 373.435 322.064C371.847 321.515 370.967 322.064 369.545 321.515C369.022 325.4 371.847 328.773 372.379 332.291C366.022 331.761 369.902 324.887 367.077 321.515C365.481 321.002 363.545 321.882 362.133 321.515C365.132 329.818 368.49 339.182 370.435 347.815C377.324 349.411 369.902 344.462 374.324 341.127C375.379 343.067 375.379 345.525 376.269 347.467C380.681 343.948 375.379 340.577 378.737 337.589C380.149 340.577 380.681 343.948 378.737 347.467L380.149 347.998C379.618 344.462 382.094 342.007 384.571 339.697C386.149 342.519 380.681 343.948 382.626 347.998L384.03 348.348C387.038 346.936 387.57 343.067 390.038 340.577C392.873 344.112 387.57 345.525 388.094 348.878C390.038 345.525 393.396 344.993 395.872 342.519C396.396 343.582 396.752 344.462 396.752 344.462C395.341 346.588 393.396 347.467 391.983 349.411C395.341 348.878 398.872 343.582 400.285 346.588C402.23 347.998 397.285 347.998 395.872 349.943C399.23 351.884 402.23 345.525 405.587 347.467C406.11 348.53 406.642 349.411 405.587 349.943C403.643 350.986 402.761 351.353 400.285 351.353C402.23 355.404 404.706 350.473 406.642 351.884C407.184 352.929 407.532 353.809 407.532 353.809C407.184 355.404 405.587 354.873 404.175 354.359C406.11 355.751 409.119 356.814 410 358.759L409.477 360.169C407 360.169 406.11 355.751 402.761 356.302C403.643 358.244 403.12 359.637 404.175 361.765C405.054 361.232 407 360.169 407.532 361.232C408.055 362.112 407 362.644 406.11 363.175C407.532 363.707 410 363.707 410 366.162C409.477 367.592 408.055 367.06 407.532 366.162C408.055 367.06 408.945 369.003 408.055 369.535C404.523 370.048 405.587 364.585 403.12 364.585C402.579 366.162 403.643 368.106 403.12 369.535C402.23 370.048 401.698 369.003 400.643 369.535C402.23 367.592 402.23 365.118 400.285 363.707C398.698 363.175 397.808 363.707 396.222 363.175C396.752 364.055 399.23 366.53 397.285 367.592C394.817 367.592 394.817 365.118 393.928 363.175C392.873 363.522 391.809 364.055 391.809 364.055C391.451 365.65 396.222 368.106 392.341 370.048C391.451 367.94 390.928 364.585 389.506 364.055C385.452 363.522 387.92 368.471 388.984 370.415C387.92 370.928 387.038 371.478 387.038 371.478C385.094 369.865 385.094 367.593 385.094 365.118C384.03 365.465 383.149 365.998 382.094 366.53C384.03 367.94 387.387 372.356 385.094 374.814C384.03 375.364 384.03 372.871 382.094 371.478C381.029 369.535 380.149 365.118 377.15 369.003C384.388 393.361 377.15 374.996 385.268 399.007C381.387 400.949 384.213 403.59 381.387 405C375.03 380.11 379.618 400.767 373.261 375.876C372.204 376.244 372.204 376.244 371.315 376.757C369.902 378.699 371.847 382.585 368.848 384.16C367.784 382.053 366.903 380.11 369.371 377.819C362.48 378.699 366.37 386.47 364.958 390.868C364.426 392.464 362.48 390.868 362.48 390.868C363.013 387.002 361.417 383.997 362.48 381.172C361.417 381.705 359.482 380.11 360.013 383.647C359.482 387.533 358.949 391.419 360.013 395.819L358.601 395.286C357.004 392.464 357.004 387.533 356.656 383.997C352.592 388.413 349.235 393.874 349.766 399.704L348.179 399.172C348.179 396.697 347.822 393.361 347.822 390.868C345.345 393.361 343.758 395.286 340.933 396.697C340.401 395.819 340.933 394.242 340.933 394.242C343.409 391.933 345.345 390.868 347.822 388.413C346.234 387.883 343.409 389.476 343.409 387.002L344.813 385.058C347.289 385.058 349.235 386.47 350.647 387.002C350.299 385.938 351.18 385.59 352.244 385.058C350.299 383.647 348.702 380.642 345.877 379.579C346.758 379.232 347.289 377.636 347.289 377.636C350.299 378.699 351.18 383.117 354.178 383.997C355.06 383.647 356.656 381.705 355.592 379.579C354.712 377.636 352.244 377.636 350.647 377.306C351.711 376.757 352.244 375.181 352.244 375.181C355.06 376.244 357.18 375.364 357.537 381.172C359.482 380.11 361.417 379.232 363.362 378.187C361.958 377.636 358.068 377.306 358.068 374.814C359.482 372.871 363.013 377.306 365.839 375.694C363.013 374.814 360.013 371.295 361.069 368.471C363.902 369.351 364.958 373.751 367.784 374.814C369.371 375.364 369.371 375.364 370.259 374.814C367.957 372.356 363.545 370.928 364.958 366.53C368.315 368.471 369.902 371.478 372.204 373.751C370.435 362.644 367.957 350.291 363.013 340.577C362.665 339.532 363.013 343.067 361.6 342.519C361.6 344.993 363.013 347.815 361.6 349.758L360.188 349.411C358.601 346.405 359.655 343.397 359.655 341.127C353.83 341.457 357.18 348.348 355.234 351.701C353.656 348.878 353.298 345.342 354.178 342.519C353.298 343.067 352.244 343.397 352.244 343.397C351.711 347.283 352.244 350.823 351.711 354.708C350.299 351.701 347.822 349.228 350.299 344.462C349.409 344.993 349.409 344.993 348.354 345.342C346.41 348.878 350.822 352.764 348.877 356.118L347.289 355.751C345.877 352.764 345.877 350.29 345.345 346.935C344.465 347.283 344.465 347.283 343.409 347.815C340.933 352.764 345.345 356.649 344.813 360.517C340.052 358.062 340.933 352.764 340.575 349.228C337.575 353.114 341.997 357.181 340.052 360.517L338.455 360.004C337.043 357.181 337.043 354.708 338.108 351.701C337.043 352.233 336.163 352.764 336.163 352.764C335.107 355.586 338.987 358.574 335.64 361.58C334.576 359.454 334.576 357.181 333.695 355.239C331.217 357.529 333.162 361.58 330.685 363.89C329.631 361.947 329.631 359.454 330.154 358.062C327.686 360.517 326.796 363.522 324.328 365.832C323.273 366.345 321.852 365.832 322.384 364.403C322.916 363.01 323.796 362.46 324.86 361.947C323.796 362.46 320.971 361.397 320.439 360.517C320.971 359.125 324.86 359.454 326.796 358.574C325.393 358.062 323.273 361.397 323.273 356.649C322.916 355.586 327.338 357.181 329.273 356.118C326.796 356.118 325.393 355.586 323.449 354.176C322.916 353.114 324.86 352.233 324.86 352.233C326.796 353.644 329.273 353.644 330.685 354.176C330.685 354.176 331.751 353.644 332.631 353.114C331.217 350.291 325.741 351.701 327.338 349.758C328.209 346.77 332.099 352.233 336.163 350.291C334.576 349.758 331.751 351.171 331.217 347.815C332.631 345.892 336.163 350.291 338.631 347.815C337.043 347.283 334.218 346.405 332.631 345.892C335.107 343.397 338.631 345.342 341.464 346.405C342.52 345.892 342.52 345.892 343.409 345.342C340.575 344.462 339.519 340.062 341.464 339C343.409 338.121 341.997 342.519 343.942 343.948C344.465 344.828 345.877 345.342 346.41 343.948C346.41 341.457 343.942 341.457 343.051 339.532C342.52 338.469 343.051 337.056 344.465 337.589C346.41 339 347.474 340.942 348.354 342.885C349.409 342.519 350.299 342.007 350.299 342.007C350.299 339.532 346.933 337.589 348.877 336.526C350.822 335.646 350.299 339.532 352.244 340.942C352.244 340.942 353.298 340.577 354.178 340.062C351.353 339 348.877 334.234 352.244 331.228C352.767 334.583 354.712 340.942 360.188 339.532C356.656 337.589 356.298 334.234 354.712 331.228C354.712 331.228 355.234 329.818 356.298 329.286C357.71 332.291 359.655 336.177 362.133 338.634C361.6 332.658 358.775 326.83 357.18 321.515C357.18 321.515 354.712 321.515 353.83 321.882C352.418 323.824 353.83 326.83 351.886 327.893C350.822 325.768 349.941 323.824 352.418 321.515C346.933 320.469 347.474 326.28 345.528 329.818C343.584 328.223 343.942 324.355 345.528 322.412C344.465 322.945 341.997 322.945 341.106 323.292C338.631 325.768 339.519 327.71 338.631 330.716L337.043 330.166C336.163 328.223 335.64 327.343 338.108 324.887C332.804 323.824 335.64 329.653 333.695 333.171L332.273 332.658C331.217 330.716 331.751 329.286 331.751 326.83C326.796 326.83 330.685 332.108 328.392 334.583L326.796 334.051C326.264 333.171 326.264 330.716 326.796 329.286C322.027 329.103 326.264 335.646 321.852 336.526C320.439 335.993 320.439 333.538 320.971 332.108C318.494 334.583 314.614 336.526 312.137 339C311.082 339.532 310.724 338.469 310.192 337.406C311.082 337.056 312.669 335.114 313.55 334.583C312.137 334.051 309.66 336.526 308.247 333.538L308.789 332.108C311.605 330.716 314.082 332.989 317.091 331.596C315.146 332.658 312.669 330.166 311.605 328.223C316.026 327.178 319.907 330.166 323.972 328.223C322.027 326.83 319.907 327.71 317.614 327.71C317.614 327.71 316.026 327.178 315.67 326.28C319.559 324.355 322.384 325.235 325.916 327.178C326.796 326.83 327.861 326.28 328.741 325.768C325.916 324.887 323.449 324.887 320.971 322.412C322.027 321.882 322.916 321.349 322.916 321.349C325.916 322.412 328.741 325.768 333.695 323.292C331.217 320.819 326.447 320.819 327.861 316.419C331.751 319.407 334.749 322.945 339.161 321.882C337.575 318.875 333.695 318.527 333.337 314.989C337.758 314.109 338.108 319.939 340.052 321.349C340.052 321.349 341.997 320.469 343.051 319.939C342.52 316.584 339.695 315.539 337.227 313.048C336.163 311.103 338.631 311.103 338.631 311.103C341.997 313.048 342.52 316.584 344.996 319.059L344.465 320.469C345.528 319.939 346.933 320.469 347.996 319.939C347.474 316.584 341.639 314.641 344.996 311.654L346.41 312.168C346.933 315.539 349.409 320.469 353.83 319.407C352.418 316.584 349.941 314.109 349.409 310.59L351.886 310.756C351.353 314.641 355.234 315.173 355.775 318.527C352.767 310.223 349.409 303.352 346.584 295.048C342.52 296.991 348.528 301.409 344.465 303.352C344.465 300.876 345.528 297.871 343.051 295.416C343.051 295.416 341.639 295.048 340.575 295.416C342.171 298.421 343.051 302.82 340.052 304.232C339.695 300.876 341.639 297.541 338.282 295.416C336.694 295.048 335.814 295.416 334.749 295.928C336.163 298.934 336.694 302.287 336.163 306.172C335.814 305.295 334.218 304.762 334.218 304.762C335.282 301.757 334.218 299.814 332.804 296.991C332.804 296.991 331.393 296.478 330.329 296.991C331.751 299.814 334.218 304.762 331.393 308.648C329.457 304.762 330.86 300.347 328.392 297.871C328.392 297.871 326.447 298.934 325.393 299.302C328.925 301.409 328.392 307.768 326.447 311.103C324.502 307.237 327.338 303.352 324.502 299.814C317.614 300.876 322.916 306.705 322.916 311.654C319.559 309.71 319.036 306.172 318.678 302.82C317.614 303.187 315.67 304.232 314.614 304.762C315.146 308.117 318.145 311.654 320.09 315.539C314.614 314.476 315.67 309.18 312.669 305.642C311.257 307.585 314.082 311.103 312.669 313.048L311.257 312.533C310.724 311.471 310.724 309.18 310.192 308.117C306.311 310.058 309.66 314.476 308.789 317.464L306.844 318.361C304.9 316.934 305.78 313.926 305.78 311.471C300.487 313.048 303.303 318.875 300.487 322.76C299.423 320.819 301.01 318.875 299.945 316.934C297.477 319.407 295.001 321.699 292.175 323.292C291.644 322.23 291.644 322.23 291.12 321.349C294.12 319.754 295.001 316.934 296.946 315.869C295.533 315.356 293.588 316.419 292.533 314.476L293.056 313.048C295.533 315.356 297.477 314.476 300.487 313.048C299.065 312.533 296.065 311.471 294.653 310.938C298.001 308.117 302.422 312.003 305.78 309.18C303.486 309.18 300.487 308.117 297.477 307.053L298.001 305.642C301.358 305.11 304.9 307.053 308.247 306.705C304.9 304.762 300.487 305.642 298.001 303.187C302.422 299.814 306.311 305.11 310.192 305.642L311.788 303.699C308.789 300.347 304.9 302.287 301.541 300.347L301.89 298.751C305.953 299.302 309.843 299.814 313.725 302.82C313.725 302.82 315.67 301.757 316.558 301.244C314.255 298.751 310.724 296.826 306.844 296.296C307.899 295.928 307.368 294.883 308.247 294.351C311.257 297.871 316.2 295.416 318.678 300.347C319.559 299.814 320.613 299.302 321.503 298.934C320.613 296.826 319.036 296.478 316.2 295.416C315.67 294.536 314.788 292.41 314.255 291.53C318.145 294.536 322.558 300.876 327.512 295.928C325.035 293.471 322.558 290.998 318.678 290.466L319.21 289.055C323.449 288.175 325.916 292.94 328.392 295.416C328.392 295.416 330.329 294.536 331.393 293.986C328.925 291.53 326.98 287.644 323.09 287.13C323.971 286.58 324.502 285.188 324.502 285.188C328.925 286.58 331.393 293.986 337.227 293.471C333.869 291.53 332.804 287.13 329.979 283.759C336.336 284.289 334.749 293.471 343.051 293.106C342.693 289.585 338.282 288.175 336.694 285.188C336.336 284.289 336.694 282.695 338.282 283.244C341.639 285.188 343.584 289.055 345.528 293.106C340.748 283.244 336.336 274.411 331.393 264.697C326.98 268.05 331.393 271.936 330.86 275.823C326.089 273.348 327.512 269.113 328.034 265.062C323.09 265.062 329.979 269.113 326.089 271.058L324.502 270.526C324.144 269.462 324.144 267.007 323.622 266.127C322.558 266.64 322.558 266.64 321.678 267.007C324.502 270.526 325.035 273.878 324.502 277.764C323.971 279.359 322.027 277.764 321.678 276.884C321.155 273.348 321.678 269.462 319.21 267.007C319.21 267.007 317.265 268.05 316.2 268.582L317.265 268.05C316.733 271.936 321.155 275.823 318.145 279.689C316.2 275.823 317.614 271.405 314.788 268.05C313.725 268.582 311.788 269.462 310.908 269.993C313.725 273.348 313.202 277.233 314.255 281.632C308.431 282.182 312.311 275.291 310.908 272.468C310.366 271.405 310.366 268.948 308.963 270.893C307.368 272.833 310.366 276.353 308.789 278.296L307.368 277.764C306.486 275.823 306.844 274.411 306.844 271.936C305.953 272.468 305.953 272.468 304.9 272.833C306.486 275.823 306.844 279.177 307.368 282.695C307.368 282.695 306.844 284.125 305.953 284.637C304.009 280.752 306.486 275.823 302.955 273.878C299.065 273.348 303.486 277.233 300.487 278.809L299.065 278.296C298.542 277.233 299.597 276.884 299.065 275.823C298.542 279.689 301.541 283.244 299.597 286.58C298.001 288.523 298.001 286.067 297.651 285.188C297.651 282.695 297.651 277.764 296.598 278.296C291.644 278.296 296.598 285.517 294.653 289.055L293.239 288.523C292.175 286.58 290.763 283.574 292.708 280.239C286.351 282.182 290.763 288.523 289.176 292.94C288.819 291.878 287.763 292.41 287.231 291.346C286.351 289.403 287.231 286.58 287.231 284.125C282.462 286.58 283.874 291.878 283.341 295.763C282.462 293.821 280.342 292.41 281.396 289.403C280.517 289.935 279.452 290.466 279.452 290.466C279.452 292.94 281.396 296.826 278.929 299.302C278.049 297.357 278.049 294.883 276.984 292.94C274.516 295.231 273.627 298.236 271.15 300.694C270.095 301.244 268.682 300.694 269.214 299.302C270.095 296.296 273.095 294.883 274.516 292.94C272.04 292.94 270.095 293.821 268.151 292.41C271.15 290.833 273.984 289.403 276.984 290.466C278.049 289.935 278.397 288.523 279.452 287.992C275.571 287.46 273.095 289.935 269.214 289.403C272.04 285.517 278.049 285.004 281.928 285.517C281.928 285.517 282.462 284.125 283.341 283.574C279.452 283.062 276.452 284.637 272.572 284.125L273.095 282.529C276.984 280.587 281.396 282.182 286.351 282.182C282.818 280.239 278.58 281.119 274.516 280.587L275.039 279.177C279.452 278.296 283.341 278.644 287.763 280.239C286.351 277.233 283.341 276.171 281.396 274.778C281.396 274.778 281.396 272.285 282.992 272.833C285.286 275.291 288.296 276.354 289.698 279.177C290.763 278.644 291.294 277.233 291.294 277.233C290.763 276.354 287.763 275.291 288.296 273.878C290.763 271.405 291.644 278.296 294.12 275.823C291.818 273.348 288.296 273.878 286.882 270.893L287.405 269.462C291.818 270.893 296.598 275.823 301.01 272.468C299.065 268.398 295.707 266.457 291.818 265.942C295.707 264 301.01 267.519 302.955 271.405C304.9 270.526 305.953 269.993 307.899 268.948C305.423 264 300.487 266.457 296.598 263.634C301.541 261.177 306.486 263.634 309.312 267.007C311.788 269.462 311.788 267.007 312.853 266.457C310.366 264.182 307.018 262.057 304.009 261.177C302.606 260.646 304.009 258.704 304.009 258.704C308.431 260.114 311.788 262.241 315.32 266.64C315.32 266.64 317.265 265.577 318.145 265.062C317.787 264.182 317.265 263.122 316.733 262.241C314.788 260.646 312.311 258.171 309.485 257.291L309.843 255.696C315.843 255.348 316.2 263.634 322.558 264.182C321.678 259.767 316.2 258.704 315.843 255.348C316.2 253.773 319.21 254.818 319.732 255.881C321.155 258.704 323.09 260.297 324.502 263.122C324.502 263.122 326.98 263.122 328.034 262.754C326.98 258.356 324.502 255.881 321.678 252.343C323.622 251.463 324.678 253.405 325.035 254.286C323.622 249.008 318.678 244.059 316.376 239.109C316.376 239.109 314.788 238.596 313.908 239.109C314.788 243.527 318.678 246.515 318.32 250.4C314.255 247.412 314.255 242.649 311.43 239.109C309.485 242.649 315.843 245.47 311.43 249.008C309.843 246.002 310.366 242.116 307.899 239.642C308.431 242.997 307.899 247.065 310.908 250.4C305.423 249.338 306.486 244.059 305.953 240.539C305.073 241.054 303.128 242.116 303.128 242.116C303.128 244.59 307.018 249.887 303.128 249.338C301.541 248.825 304.009 244.059 301.541 241.584L299.597 242.464C300.129 246.002 299.597 249.887 302.606 253.223C301.541 253.773 300.129 253.223 300.129 253.223C297.651 250.95 299.065 246.515 298.717 242.997C297.651 243.527 296.24 242.997 295.184 243.527C294.304 246.515 294.653 249.887 297.121 252.343C296.24 252.893 295.184 253.223 295.184 253.223C292.708 250.768 293.762 247.945 293.239 244.407C292.359 244.939 290.763 244.407 290.763 244.407C289.35 248.825 293.239 251.83 292.708 255.696C288.296 254.286 290.763 246.882 288.296 246.882C282.462 244.939 288.819 252.893 287.405 257.108C287.405 257.108 286.351 257.641 285.46 258.171C284.937 254.818 285.46 250.768 282.992 248.293C281.58 247.945 279.993 249.887 280.517 250.768C281.58 252.71 281.928 256.229 280.517 258.171C279.452 258.704 279.103 257.641 278.049 258.171C279.103 255.166 278.049 253.223 279.103 250.4C273.627 251.83 273.627 256.596 274.69 260.994C273.627 261.526 272.214 260.994 272.214 260.994C271.15 259.052 269.747 256.229 273.095 253.223C267.269 253.773 269.747 260.994 267.802 264.532C266.737 264.879 266.214 264 265.325 264.532C265.325 262.057 267.802 259.584 266.737 257.641C264.793 256.229 263.913 261.526 261.445 261.526C262.848 264.532 260.903 265.412 259.848 268.398C259.5 267.337 258.435 265.412 258.967 264C255.967 267.885 255.967 272.833 251.013 275.108C250.665 274.228 250.134 273.163 250.134 273.163C251.546 271.222 254.023 268.765 255.078 265.942C254.023 266.457 252.601 268.398 251.198 265.412L251.546 264C252.601 263.469 255.435 264.532 256.491 264L257.023 262.424C254.546 262.424 253.491 262.937 251.198 262.937C251.198 262.937 250.666 262.057 250.134 260.994C253.491 260.482 257.023 262.424 260.38 259.584C257.913 259.584 257.023 262.424 254.546 257.641C258.435 258.171 262.848 259.584 266.389 254.103C263.38 255.696 260.38 254.653 257.023 255.166C258.967 251.83 264.793 251.28 268.333 253.223L270.278 252.178C268.333 248.293 263.38 253.223 261.445 249.338C264.793 248.825 268.333 248.293 273.095 250.768C273.095 250.768 273.627 249.338 274.69 248.825C271.692 247.945 268.333 245.819 264.444 245.47L264.793 243.875C269.214 242.997 272.746 247.412 276.635 247.945C279.103 247.945 280.517 246.002 282.992 246.002C279.103 242.997 275.571 243.527 271.15 244.407C271.15 244.407 270.801 243.527 270.278 242.464C275.213 239.989 280.517 243.527 285.993 244.407C286.882 244.059 288.819 242.997 289.883 242.464C285.46 241.054 280.517 241.054 276.635 238.048C277.691 237.534 279.636 236.654 281.048 237.168C282.992 238.596 285.46 238.596 288.469 239.642C289.883 239.989 290.415 241.054 291.818 241.584C294.304 244.059 294.304 241.584 295.184 241.054C291.818 239.109 288.819 235.591 284.937 235.224L285.46 233.648C286.524 233.283 286.882 234.163 287.937 233.648C292.359 235.224 295.184 241.054 300.661 239.642C297.651 238.596 299.238 234.163 293.762 233.283C293.762 233.283 293.239 232.238 292.881 231.338C298.717 230.825 299.238 236.654 302.606 238.596C304.009 239.109 305.073 238.596 305.953 238.231C305.606 234.711 301.183 233.283 299.597 230.295C305.073 228.883 307.018 235.224 308.431 238.231C309.485 237.698 311.43 236.654 311.43 236.654C310.908 233.283 305.606 232.238 305.073 228.883L307.018 227.82C309.485 230.295 312.853 232.238 312.853 237.168C313.908 236.654 313.908 236.654 314.788 236.288C310.366 229.947 307.018 223.054 301.716 217.061C301.716 219.526 302.064 223.054 301.183 225.877C298.185 224.997 298.717 220.939 299.771 218.116C297.303 218.116 294.826 218.116 293.762 218.646C292.881 221.469 294.304 224.466 295.707 227.288C292.359 225.347 291.818 222.001 291.469 218.463C290.415 218.994 290.415 218.994 289.35 219.526C287.057 222.002 291.294 225.877 289.35 226.94C286.524 228.352 286.524 223.412 287.057 219.526C285.993 220.058 283.515 220.058 282.634 220.406C280.517 223.944 284.579 226.94 284.057 230.825C279.636 229.232 281.048 224.814 280.7 221.469C274.16 220.939 278.222 228.883 276.635 233.118L275.213 232.768C274.69 229.232 274.16 225.877 274.16 223.412C273.269 223.944 271.334 224.814 270.278 225.347C269.389 228.352 272.214 231.705 271.334 234.711L269.747 234.163C268.333 231.173 268.333 228.7 268.333 226.409C263.032 227.82 268.333 233.648 267.802 237.534L265.857 238.596C263.38 236.104 265.857 231.173 263.38 228.7C262.499 229.232 260.554 230.295 259.5 230.643C259.5 233.118 264.444 235.591 260.903 238.596L259.5 238.048C259.5 235.591 258.967 232.238 258.086 232.585C253.143 232.585 254.197 239.476 254.546 242.997L252.601 243.875L251.729 241.934C252.078 240.539 253.665 238.596 251.198 236.104C249.784 238.048 246.776 239.476 246.244 240.869C245.721 242.464 249.253 244.407 247.666 246.35C243.776 248.293 249.784 240.539 241.832 244.407L243.244 244.754C244.299 246.882 245.189 248.825 243.776 250.768L242.363 250.235C241.832 249.172 241.832 246.882 241.308 245.819C239.364 246.882 238.832 248.293 237.419 250.235C236.529 250.768 234.942 250.235 235.474 248.825C237.942 246.35 240.418 243.875 242.896 241.419C241.832 241.934 239.364 241.934 237.942 241.419L238.474 239.989C240.952 237.534 244.831 240.539 247.84 236.471C246.776 236.984 244.299 236.984 242.896 236.471L243.427 235.058C246.776 234.528 249.784 233.118 252.252 233.118C248.721 231.173 245.721 235.058 242.363 233.118L242.896 231.705C246.776 232.053 250.308 229.232 254.197 232.238C255.078 231.705 254.546 230.643 255.61 230.295C254.197 229.762 249.784 230.643 250.308 229.232C252.252 225.877 258.086 230.295 261.445 227.288C259.5 225.877 256.665 227.288 255.078 226.757C254.73 225.877 252.601 224.292 255.078 224.292C257.555 224.292 258.967 224.814 261.445 224.814C263.38 223.944 261.967 228.352 265.325 225.347C263.032 222.879 259.5 223.412 257.023 220.939C258.086 220.406 259.143 219.884 260.554 220.406C263.913 219.884 267.444 226.757 271.334 222.349C269.389 220.939 266.389 219.884 263.38 218.994L263.913 217.584C268.856 217.584 272.746 222.879 277.691 220.406C275.746 216.531 271.334 217.584 268.333 216.531L268.856 215.118C269.92 214.587 270.801 214.056 272.214 214.587C276.635 215.998 279.636 222.002 285.112 218.116C281.048 215.118 277.158 214.587 273.269 211.591C274.333 211.233 275.213 210.702 276.635 211.233C282.634 213.176 286.524 218.463 292.881 216.531C288.469 215.118 287.405 210.702 282.634 210.702C282.634 210.702 280.167 208.228 282.634 208.228C284.057 208.759 285.46 209.291 287.057 209.823C289.525 212.113 293.414 215.118 297.303 215.651C296.24 211.233 291.818 209.823 288.469 207.705C290.415 206.816 290.936 207.705 292.359 208.228C294.304 209.823 295.882 210.171 297.827 211.765C299.238 212.287 297.303 215.651 300.661 215.118C293.946 208.759 290.415 199.412 284.057 194.115C282.634 198.532 285.46 201.877 284.057 206.294L282.634 205.762C282.112 202.409 280.167 198.532 282.112 195.003C280.167 196.058 278.755 195.526 276.277 195.526C278.222 199.412 276.277 202.94 278.222 206.816C273.81 205.24 275.213 200.823 274.865 197.469C273.81 195.526 271.865 196.406 270.801 196.936C268.856 200.465 272.398 204.883 270.801 209.291C267.444 207.174 267.445 202.409 268.856 198C267.975 198.349 266.389 198 265.507 198.349C263.913 202.765 263.032 205.762 263.913 210.171C263.913 210.171 261.967 211.06 261.618 210.171C260.031 207.174 261.618 202.765 262.499 199.934C255.61 200.823 257.555 209.648 257.197 213.534C252.785 212.113 256.141 206.643 255.61 203.297C248.896 204.177 252.252 211.059 250.666 215.467C250.308 214.587 249.253 214.936 248.721 214.056C248.721 211.591 248.721 209.117 248.896 206.643C242.896 207.174 247.84 212.113 245.895 215.467C244.299 217.411 243.427 215.467 242.896 214.587C242.005 212.471 243.427 210.528 243.95 209.117C237.942 209.648 242.005 214.936 239.887 218.463C238.474 220.406 238.474 217.941 237.942 216.878C237.593 215.998 237.942 214.587 238.474 212.993C235.125 213.534 237.593 218.463 235.125 220.939L233.529 220.406C233.18 219.351 233.18 216.878 233.529 215.467C229.64 217.411 231.585 221.296 231.585 223.759L229.64 224.814C228.227 224.292 228.227 221.826 228.759 220.406C227.695 220.764 226.823 221.296 226.823 221.296C226.823 223.759 230.172 225.695 226.282 227.637L224.705 227.122C224.348 226.244 224.705 224.814 224.348 223.759C222.76 225.695 222.402 227.122 220.283 228.187C219.393 228.7 217.98 228.187 218.338 226.757C219.925 224.639 222.76 223.237 224.348 221.296C221.87 221.296 218.338 224.292 219.393 218.821C218.87 217.941 222.76 218.463 225.759 219.351C226.823 218.821 227.172 217.411 228.227 216.878C226.823 216.346 225.227 218.463 223.283 214.404C227.172 212.471 230.172 218.463 232.65 213.534C231.236 212.993 226.823 214.056 226.823 211.591C228.227 209.648 232.117 212.471 234.585 212.471C235.648 212.113 235.997 210.528 235.997 210.528C235.125 208.585 229.64 209.996 229.64 207.705C231.236 205.762 235.125 208.585 237.942 209.648C239.006 209.117 240.952 208.228 242.005 207.705C240.061 206.11 237.061 205.24 234.061 204.177L234.585 202.765C238.126 202.235 240.952 205.762 243.95 206.643C244.831 206.294 246.776 205.24 247.84 204.709C245.363 202.235 242.005 202.765 240.418 199.759C245.363 199.759 247.84 204.709 252.785 202.235C251.198 199.412 247.308 201.354 245.895 198.349C248.896 196.936 251.729 200.292 254.73 201.354C255.61 200.823 257.728 199.934 258.61 199.412C255.61 198.349 253.316 198.349 250.84 195.884C253.665 194.463 257.728 197.469 260.554 198.349C261.618 198 261.618 198 262.499 197.469C261.618 195.526 258.086 195.884 256.665 193.061C261.087 191.998 263.032 196.058 266.031 196.936C266.911 196.406 270.801 196.936 268.508 194.463C266.563 193.061 263.563 191.998 260.554 191.118C261.618 190.587 261.087 189.523 262.151 189.175C265.507 188.643 267.445 192.529 270.453 193.584L271.334 195.526C272.398 195.003 273.269 194.463 274.333 194.115C272.398 192.529 271.865 191.64 269.92 190.055C268.508 189.706 267.975 191.118 266.563 188.113C270.976 187.233 273.81 190.587 276.81 194.115C278.222 194.463 280.167 193.584 281.223 193.061C279.278 189.175 275.746 187.233 272.398 185.29C277.691 183.704 279.636 190.229 283.168 192.172C279.278 186.71 275.397 181.413 270.453 176.474C270.453 176.474 269.389 176.996 268.508 177.354C267.445 180.349 270.976 182.293 267.445 185.29C266.031 182.293 266.031 179.819 266.031 177.354C264.967 177.877 263.563 177.354 263.563 177.354C262.674 180.349 266.563 183.347 264.096 185.647L262.499 185.29C262.499 182.825 260.206 180.349 261.087 177.354C260.206 177.877 259.143 178.407 258.261 178.764C256.142 182.293 260.206 185.29 259.143 188.113C254.73 186.71 256.142 182.293 255.794 178.764C249.426 178.407 254.73 186.71 252.785 190.055L251.372 189.523C250.84 186.179 250.308 182.825 250.308 180.349C243.95 182.293 249.426 188.113 248.896 191.998C244.483 190.587 247.491 184.236 243.95 182.293C243.069 182.65 241.124 183.704 241.124 183.704C241.482 187.058 244.483 193.061 240.952 195.884C240.594 195.003 240.061 193.941 240.061 193.941C242.005 190.587 241.482 187.058 239.006 184.585C239.006 184.585 237.061 185.647 236.181 186.179C237.593 189 239.006 194.463 235.648 197.294C235.125 196.406 234.585 195.351 234.585 195.351C235.648 192.529 236.181 188.643 234.236 187.058C233.18 187.59 231.236 188.643 230.172 189C230.172 191.466 234.585 195.351 231.236 198.349C229.814 195.351 230.172 191.466 228.759 190.943C223.457 190.055 229.814 195.351 227.695 198.88L225.759 199.759C223.815 198.349 225.401 193.941 223.815 193.409C219.393 194.463 222.933 198.88 220.989 202.235C219.925 200.292 219.393 199.237 219.393 196.764C216.036 197.294 214.632 201.702 216.925 204.177C216.036 204.709 216.036 204.709 214.981 205.24C215.513 203.645 211.623 203.114 214.632 201.702C211.091 202.235 211.623 208.053 206.147 207C205.798 206.11 206.679 205.588 207.734 205.057C205.798 206.11 205.266 205.057 204.734 204.177C207.734 202.765 210.568 203.645 212.513 200.292C211.623 200.823 209.156 200.639 208.274 198.706C208.624 197.294 210.21 197.817 213.036 198.706C213.036 198.706 214.1 198.349 214.981 197.817C214.1 198.349 211.623 198.349 211.091 197.294C211.623 193.409 216.036 197.294 218.521 194.821C217.457 195.351 216.576 195.884 215.513 193.941L216.036 192.355C218.521 192.529 219.925 192.886 221.87 191.998C220.989 192.529 218.521 192.529 218.521 190.055C220.457 186.527 224.348 191.998 227.346 188.113C225.759 187.59 222.933 189 222.933 186.527C224.348 184.585 228.227 187.59 231.236 186.179C228.759 186.179 226.282 186.179 224.348 184.585C227.346 183.172 231.236 183.704 234.236 184.585C235.125 184.236 235.125 184.236 236.181 183.704C234.236 182.293 229.814 183.172 229.814 180.707C231.759 177.354 236.181 183.704 240.061 181.762C238.649 181.229 236.181 181.229 236.181 178.764C236.181 178.764 237.061 178.233 238.126 177.877C240.594 177.877 241.482 182.293 245.895 178.764C243.427 178.764 241.124 178.764 238.649 176.291C239.538 175.933 239.538 175.933 240.594 175.411C244.483 175.933 247.84 180.349 251.372 177.354C248.896 177.354 246.959 175.933 245.014 174.348C249.959 174.348 253.316 178.764 258.261 176.474C255.794 174 250.84 176.474 248.362 171.526C254.372 170.993 259.143 175.933 264.967 175.411C263.563 172.588 260.729 171.526 259.143 168.528C264.619 167.118 264.619 174.531 268.508 174.878C263.563 170.113 261.087 160.234 252.427 159.704C253.316 161.647 256.317 165.174 253.849 167.649C252.427 164.642 251.904 161.289 249.959 159.704C249.959 159.704 248.015 160.767 246.959 161.115C246.959 163.579 251.904 166.055 248.362 169.06L246.959 168.528C246.959 166.055 246.428 162.7 244.483 161.115C243.602 161.647 241.658 162.7 240.594 163.057C240.594 165.522 243.069 167.997 243.95 169.94L242.005 170.993C240.594 167.997 240.061 164.642 238.126 163.057C238.126 163.057 236.181 164.119 235.3 164.642C237.245 166.055 238.126 167.997 239.19 169.94L238.649 171.526C234.236 172.413 239.19 162.7 230.347 167.118C232.292 168.528 232.823 169.408 233.703 171.526L233.18 172.936C230.704 172.936 230.347 167.118 227.346 168.528C225.935 170.471 232.292 173.468 228.402 175.411C225.935 175.411 225.401 171.883 225.401 169.408C219.925 170.993 226.282 173.826 222.933 176.822L221.512 176.291C220.989 175.411 221.512 173.826 220.989 172.936C217.1 174.878 220.457 176.822 219.577 179.644C219.044 181.229 217.1 179.644 216.576 178.764L217.1 177.354C216.036 177.701 216.036 177.701 215.155 178.233C216.036 180.177 216.036 182.65 215.513 184.052C215.155 185.647 213.036 184.052 212.687 183.172C212.155 182.11 213.21 181.587 213.568 180.177C210.742 184.052 206.679 188.47 203.853 192.355C202.266 194.288 202.266 191.998 201.908 190.943C202.266 189.523 204.385 188.47 204.734 187.058C203.321 186.527 202.266 187.058 201.908 185.995L202.266 184.585C204.385 183.529 207.21 184.585 208.274 181.587C207.21 182.11 206.679 183.529 204.385 181.229C206.33 180.177 209.678 179.644 211.623 178.764C210.21 178.233 208.798 177.701 208.274 176.822C210.21 175.769 211.623 176.291 214.1 176.291L214.632 174.878C213.568 175.236 211.623 176.291 211.275 175.236L211.623 173.826C213.568 172.936 215.687 171.883 218.521 172.936L219.044 171.351C217.98 171.883 216.576 171.351 214.632 169.94C217.632 168.528 220.457 171.883 222.933 169.408C220.457 169.408 219.044 168.877 217.1 167.465C219.044 166.585 222.045 165 223.457 167.997C224.348 167.465 224.348 167.465 225.401 166.942C223.989 166.585 222.045 165 220.989 163.057C223.989 164.119 226.823 167.465 230.347 164.642C228.402 163.057 225.401 162.177 222.933 159.704C225.935 160.583 230.347 159.704 232.292 163.579C232.292 163.579 233.18 163.057 234.236 162.7C231.236 161.647 228.943 159.171 226.823 157.761C230.888 155.826 233.703 159.171 235.3 162.177C236.181 161.647 237.245 161.115 238.126 160.767C237.245 158.649 235.3 157.238 233.355 155.826C232.823 154.764 230.888 153.353 233.355 153.353C236.181 154.406 239.19 157.761 240.594 160.767C241.658 160.234 243.602 159.171 244.483 158.823C242.538 154.764 238.126 155.826 236.181 151.941C241.658 150.356 242.538 157.238 246.959 158.823C248.362 159.171 250.482 158.291 251.372 157.761C249.426 153.883 243.602 154.406 241.124 149.468C244.125 150.356 246.428 152.82 249.426 153.883C243.602 149.468 239.19 143.116 233.355 138.709C233.355 141.174 234.236 143.116 235.3 145.05C234.236 145.59 232.823 145.05 232.823 145.05C231.759 143.116 231.411 142.062 230.347 140.119H227.879C226.998 143.116 229.466 145.59 230.347 147.523C226.998 147.881 225.053 143.996 225.935 141.174C219.044 142.062 227.879 147.523 225.053 148.935C222.933 149.824 222.933 145.05 220.989 143.473C220.1 143.996 219.044 144.527 218.163 145.05C219.577 147.881 218.521 150.878 220.989 153.353C220.1 153.883 218.521 153.353 218.521 153.353C216.576 151.767 216.219 148.412 216.219 145.939C215.155 146.47 214.274 146.993 214.274 146.993C214.632 150.356 218.163 152.289 217.632 156.175C214.632 155.296 214.632 150.356 212.687 148.935C211.798 149.293 209.852 150.356 209.852 150.356C210.21 153.701 212.687 156.175 214.1 159.171C210.21 158.649 209.678 155.296 208.274 152.289C207.386 152.82 206.852 154.232 206.852 154.232C208.274 157.238 210.21 161.115 207.734 161.115C204.908 162.526 207.386 155.296 205.441 156.175C198.908 158.118 207.386 162.526 205.798 166.942C202.973 166.055 202.44 162.526 201.376 160.583C200.496 161.115 199.964 162.526 199.964 162.526C200.853 164.468 201.908 166.411 202.789 168.354C202.789 168.354 200.853 169.408 200.496 168.354C199.964 167.465 198.908 165.522 198.551 164.468C198.028 166.055 196.964 166.411 197.487 167.465C198.551 169.408 200.496 173.293 198.908 175.236C198.028 175.769 196.432 172.762 196.083 169.408C195.019 172.413 194.487 173.826 193.607 176.648C192.551 177.17 191.662 177.701 191.129 176.648C191.662 175.236 192.019 173.826 192.019 171.351L191.662 172.762C190.607 173.293 189.185 172.762 189.726 171.351C190.075 169.94 191.129 169.408 192.019 168.877L193.607 169.408L194.139 167.997C192.019 168.877 190.075 169.94 188.13 168.354L188.662 166.942C191.129 166.942 195.019 167.465 196.083 164.468C193.607 164.468 191.662 165.522 189.726 163.937L190.075 162.526C192.193 161.471 195.019 162.526 196.964 161.647C198.028 161.115 197.487 160.06 198.551 159.529C195.551 158.649 192.551 162.526 189.185 160.583L189.726 159.171C193.607 157.238 198.551 159.529 202.44 155.296C198.908 155.644 195.019 157.586 191.662 155.644L192.193 154.232C197.487 152.821 202.44 155.296 207.386 150.356C202.973 148.935 198.551 152.289 194.671 151.767C198.028 146.47 205.441 148.935 210.742 147.35C207.386 147.881 203.853 148.412 200.496 146.47L201.028 144.885C206.33 143.473 210.742 147.35 215.155 143.996C212.329 142.942 208.798 143.473 205.972 142.584C206.852 142.062 207.386 140.468 207.386 140.468C212.329 140.642 215.687 145.05 220.989 140.999C217.632 139.057 214.274 142.062 211.275 138.525C214.632 138.176 219.044 137.114 223.109 140.119C223.109 140.119 223.989 139.587 225.053 139.057C223.109 137.645 220.1 136.766 218.696 133.768C222.576 134.291 225.053 139.057 229.466 138.176C227.521 136.766 225.401 135.171 224.521 133.237L225.053 131.825C228.402 131.294 228.943 137.114 232.292 136.766C226.465 132.348 222.576 126.877 215.687 123.001C214.274 122.469 213.21 123 212.329 123.532C212.862 124.412 214.807 125.824 215.155 126.877L214.807 128.288C212.329 125.824 207.916 121.938 205.972 125.475C205.972 127.766 209.852 130.763 208.798 133.768C204.385 132.174 208.449 125.475 200.496 126.877C201.028 127.766 207.386 130.763 202.973 134.117C201.908 132.174 201.551 128.82 198.551 127.766C197.67 128.288 196.606 128.82 195.551 129.351C198.551 130.232 199.084 133.768 199.964 135.702C199.084 136.06 199.084 136.06 198.028 136.581C197.139 134.639 196.606 131.294 193.607 130.232C192.726 130.763 190.782 131.651 190.782 131.651C190.782 134.117 192.726 135.702 193.607 137.645C193.607 137.645 191.662 138.525 191.129 137.645C190.249 135.702 189.726 134.639 188.837 132.705C187.781 133.237 187.24 134.639 187.24 134.639C187.24 137.114 190.782 139.057 188.662 139.946C186.717 140.999 186.717 136.06 185.836 136.581C178.415 136.581 184.773 139.587 185.304 142.942L184.773 144.353C182.305 144.353 180.883 141.531 180.002 139.587C178.938 139.946 178.415 141.531 178.415 141.531C179.479 143.473 180.883 146.296 181.947 148.239C181.947 148.239 181.415 149.824 180.36 150.356C180.36 150.356 178.938 149.824 178.415 148.761C178.415 146.296 178.415 143.822 177.002 143.473C172.581 144.353 177.002 148.239 177.534 151.767C177.002 153.169 175.415 152.647 175.058 151.767C174.526 150.704 173.471 148.761 173.113 147.881C172.581 149.293 172.058 150.704 171.177 151.226L169.582 150.704C168.7 148.761 170.636 147.881 171.177 146.296C169.232 147.35 168.168 147.881 165.701 145.407C168.7 143.822 173.471 146.296 175.058 141.879C173.113 142.942 170.113 144.353 168.168 142.942L168.7 141.346C171.526 139.946 175.59 140.468 178.067 138.002C176.47 137.471 174.003 137.471 172.581 137.114C175.59 135.528 178.067 135.528 180.883 136.581C180.883 136.581 181.415 135.171 182.48 134.639C180.002 134.639 177.002 136.06 175.59 133.053C179.479 131.12 183.359 136.581 187.781 130.763C185.304 130.763 184.425 128.82 180.535 130.763C180.535 130.763 178.938 130.232 178.415 129.177C182.828 128.288 186.369 127.766 189.726 129.709C190.782 129.177 191.662 128.82 192.726 128.288C189.726 127.235 186.891 126.345 183.891 125.292C184.946 124.76 185.304 123.358 185.304 123.358C189.368 123.88 190.782 126.877 194.671 127.235C195.725 126.877 195.725 126.877 196.606 126.345C193.607 125.292 191.303 122.817 188.304 121.938C189.368 121.415 189.368 121.415 190.249 120.874C193.249 121.938 195.194 123.358 198.551 125.292L200.496 124.412C200.496 121.938 198.551 120.526 196.083 120.526C197.139 119.994 197.139 119.994 198.028 119.473C200.496 119.473 202.44 121.058 202.973 124.412C204.908 123.358 206.852 122.469 209.33 122.469C207.386 121.058 204.908 121.058 203.496 118.051C207.916 116.999 209.33 122.469 213.743 121.415C211.275 119.115 208.449 115.587 204.908 113.644C200.148 113.644 199.084 106.762 194.671 107.825C195.725 109.758 198.203 112.233 197.139 115.055C194.139 114.176 195.194 108.705 192.193 107.825C191.303 108.173 189.368 109.236 188.304 109.758C190.249 111.179 192.193 112.59 192.193 115.055C191.662 116.466 190.249 116.118 189.726 115.055C187.781 113.644 189.368 109.236 183.002 111.179C184.425 113.993 185.304 116.118 186.891 118.941L184.946 119.994C183.359 116.999 182.48 115.055 181.057 112.058L178.938 113.122C178.938 115.587 183.891 120.526 180.535 120.874C177.534 122.287 180.535 116.118 177.002 113.993C176.123 114.523 175.058 115.055 174.177 115.587C173.645 116.999 175.59 118.409 176.47 120.351C176.47 120.351 176.123 121.938 175.058 122.287C174.177 120.351 174.177 118.051 172.581 117.529C166.224 116.999 173.645 121.938 170.636 123.358C169.232 125.292 168.168 120.874 167.82 119.821C163.398 120.874 166.756 125.292 168.168 128.288C167.288 128.645 165.701 128.288 165.701 128.288C164.811 126.172 164.279 125.292 163.398 123.358C162.334 123.88 161.811 125.292 160.93 125.824L161.811 125.292C161.279 126.702 162.334 128.645 164.279 130.232C164.811 131.12 164.279 132.705 162.866 132.174C161.279 131.651 160.398 129.709 159.344 127.766C158.454 128.115 157.399 128.645 157.399 128.645C157.399 131.12 159.866 133.586 158.454 135.528C157.399 136.06 155.977 133.053 155.454 132.174C153.509 133.053 152.445 136.06 151.041 138.002C150.151 138.525 148.565 138.002 149.097 136.409C151.041 133.053 152.097 130.057 154.922 128.645C154.032 129.177 151.565 129.177 151.041 128.115L151.565 126.702C154.032 126.702 155.454 127.235 157.399 126.172C156.509 126.702 154.922 126.172 152.977 124.76C154.922 123.707 158.454 125.824 159.866 123.88C158.454 123.358 157.041 122.817 155.454 122.287C158.454 120.874 160.93 123.358 163.398 120.874C161.811 120.351 160.398 119.821 158.454 118.409C159.344 117.878 159.344 117.878 160.398 117.529C163.756 116.999 165.343 119.821 167.82 117.529C165.343 117.529 162.866 117.529 160.93 115.936C164.279 113.122 167.82 117.529 171.7 115.587C170.287 115.055 166.756 115.587 166.224 112.058C169.232 113.122 172.581 115.055 175.058 112.59C173.113 111.179 170.636 111.179 169.232 108.173C171.7 108.173 175.59 108.705 177.002 111.7C178.067 111.179 178.067 111.179 178.938 110.647C177.534 107.642 175.058 107.642 172.233 106.762C173.113 106.229 172.755 105.177 173.645 104.828C177.002 104.287 178.067 108.705 181.057 109.585C182.48 110.115 183.359 109.758 184.425 109.236C181.947 106.762 180.002 105.351 177.002 104.287C180.535 103.764 183.891 105.699 186.369 108.173C186.369 108.173 188.304 107.293 189.368 106.762C188.304 104.828 184.946 105.351 183.543 102.344C186.369 103.407 188.837 103.407 191.846 106.762C191.846 106.762 192.726 106.229 193.78 105.699C185.836 102.344 181.057 94.9401 172.755 92.9975C174.7 94.4081 175.59 96.5258 177.534 97.9359C173.113 98.826 173.113 94.0603 170.287 92.9975C169.232 93.5283 169.232 93.5283 168.342 94.0603C171.177 94.9401 171.7 98.4685 172.755 100.411C171.7 100.769 170.636 101.292 170.636 101.292C168.7 99.8791 169.232 96.0035 166.398 94.9401C165.343 95.471 164.811 94.4081 163.931 94.9401C165.343 97.9359 167.288 99.3483 167.82 102.702C167.82 102.702 165.876 103.764 165.343 102.702C163.398 101.292 163.398 96.3508 160.041 96.8833C160.93 98.826 164.811 101.822 161.463 104.644L159.866 104.287C160.041 101.822 158.985 99.8791 157.922 97.9359C155.629 100.236 158.985 104.644 157.041 105.699C155.454 107.642 154.032 102.344 154.032 99.8791C150.151 101.822 154.032 107.119 151.041 108.521C149.62 110.647 148.207 107.642 149.62 103.234C148.739 103.764 148.739 103.764 147.675 104.287C146.262 106.229 150.683 107.642 147.152 110.647C146.794 109.585 145.73 107.642 145.207 106.587L143.263 107.642C143.263 110.115 144.318 112.058 143.794 113.47C143.263 114.881 141.318 113.47 140.795 112.59C140.254 111.528 141.318 111.005 140.795 110.115C136.372 111.005 140.254 113.993 138.85 115.936C137.96 116.466 137.428 115.413 136.905 114.523C133.016 116.466 131.952 121.764 127.54 122.817C126.126 122.287 127.54 120.351 128.603 119.821C127.54 120.351 124.714 121.764 124.714 119.299C126.126 117.356 129.484 116.824 132.493 115.413C130.016 115.413 128.07 116.466 126.126 114.881C128.603 112.407 132.493 115.413 135.492 111.528C133.548 112.407 131.603 113.47 129.484 112.058L130.016 110.464C133.548 110.115 136.905 109.585 139.905 108.173C136.905 107.119 133.548 110.115 130.016 107.999L130.548 106.587C134.96 105.699 140.795 107.642 143.794 103.764C141.318 103.764 139.373 104.644 137.428 105.699C137.428 105.699 136.016 105.177 135.492 104.113C138.85 101.292 142.381 103.234 145.73 102.702C146.794 102.17 147.675 101.822 148.739 101.292C145.73 100.236 142.739 101.822 140.795 100.236L141.318 98.826C145.207 96.8833 148.739 101.292 153.161 97.9359C150.683 97.9359 147.152 98.2934 144.859 95.8194C149.272 94.9401 152.619 96.8833 157.041 96.0035C154.564 93.5283 150.683 97.9359 149.272 92.4655C153.161 90.5325 156.509 94.9401 160.93 93.8767C158.985 92.4655 157.041 91.0548 154.564 91.0548C158.096 88.0573 161.985 93.5283 165.343 92.9975C164.453 91.0548 162.866 90.5325 160.041 89.6425C160.041 89.6425 159.518 88.5899 158.985 87.5259C160.041 87.1775 160.398 88.0573 161.463 87.5259C164.453 88.5899 167.82 92.9975 171.7 91.0548C167.288 87.1775 161.463 85.2343 156.151 81.7065C154.564 81.1751 152.097 81.1751 150.151 82.2391C149.272 82.7614 151.216 84.172 149.272 85.0615C146.794 85.0615 148.207 80.6437 144.318 82.5863C145.381 84.704 146.794 87.5259 147.675 89.4685C144.318 89.9914 141.85 87.5259 142.381 83.6491C141.318 84.172 141.318 84.172 140.437 84.529C139.024 86.6467 143.263 90.5325 140.97 90.5325C137.96 91.9341 139.024 86.6467 136.905 85.0615C136.905 85.0615 136.016 85.5833 134.96 86.1147C134.613 87.5259 134.613 89.9914 136.016 90.5325C137.428 90.8804 138.85 91.4112 137.96 94.4081C134.96 93.355 134.613 89.9914 132.135 87.5259L130.19 88.5899C129.126 91.4112 132.493 93.355 132.493 95.8194C131.603 96.3508 130.548 96.8833 130.016 95.8194C129.126 93.8767 128.603 90.5325 127.714 90.8804C122.769 90.8804 126.658 96.3508 128.603 97.7626C127.714 98.2934 125.246 100.769 123.301 94.4081C118.888 95.2879 121.357 100.236 118.357 101.649C117.293 102.17 116.944 101.116 116.412 100.236C114.825 102.17 112.88 105.525 112.522 104.644C108.991 102.702 113.944 100.236 115.348 98.2934C113.944 97.7626 112.522 97.2312 111.999 96.3508C113.944 95.288 116.412 97.7626 118.888 95.2879C117.824 95.8194 116.412 95.2879 114.467 93.8767C117.293 92.4655 121.356 95.288 122.769 90.8804C120.825 91.9341 117.824 93.355 115.879 91.9341L116.412 90.3489C120.301 88.4148 124.181 88.9377 128.245 86.9945C126.126 88.0573 125.246 88.4148 122.769 86.1147C125.246 83.6492 129.126 86.4722 132.135 85.0615C129.658 85.0615 128.245 84.529 126.126 83.1177C128.603 80.6437 132.135 85.0615 136.016 83.1177C134.613 82.5863 133.016 82.2391 132.135 80.1122C134.613 80.1122 137.08 80.2964 138.492 83.1177C139.373 82.5863 139.373 82.5863 140.437 82.2391C139.905 81.1751 137.96 79.7639 137.428 78.701C138.492 78.1782 139.905 78.701 139.905 78.701C141.318 81.7065 142.915 82.2391 145.73 80.6437C143.794 79.2324 140.437 79.7639 139.024 76.7669C143.794 76.7669 147.675 82.2391 152.619 79.7639C145.73 75.878 139.373 72.8816 131.603 69.3533C130.722 69.8847 129.658 70.4076 128.777 70.939C128.777 73.4039 130.19 73.7614 132.135 75.3466L131.603 76.7669C129.126 76.7669 127.714 73.7614 126.658 71.8188C125.769 72.3502 124.714 72.8816 123.833 73.4039C124.714 75.3466 127.714 76.2355 127.19 77.8212C126.658 79.2324 124.181 76.7669 121.888 74.2928C121.888 74.2928 120.825 74.8243 119.943 75.3466C120.301 76.2355 121.356 78.1782 120.301 78.701C119.411 79.2324 118.357 77.2898 117.824 76.2355C114.999 77.6382 118.357 79.5808 117.824 81.1751C117.467 82.5863 115.879 82.0555 115.522 81.1751C114.999 80.1123 115.522 78.701 114.999 77.6382C113.944 78.1781 113.054 78.701 111.999 79.2324C112.522 80.1122 113.944 80.6437 114.467 81.524L113.944 83.1177C111.999 83.9981 111.458 78.1781 109.165 80.6437C108.641 82.0555 111.458 85.5833 107.046 86.4722C106.697 85.5833 106.165 84.529 106.697 83.1177C103.697 84.529 102.285 88.9377 99.275 90.3489C97.863 87.5259 101.753 85.4093 101.753 83.1177C99.808 83.9981 99.275 83.1177 98.744 82.0555C100.689 81.1751 103.697 82.0555 105.632 81.1751C104.22 80.6437 101.22 82.0555 101.22 79.5808C102.808 77.6382 106.697 80.6437 108.109 78.701C106.697 78.1782 103.697 79.5808 103.697 77.1159C105.101 75.1732 107.577 77.6382 109.165 78.1782C110.055 77.6382 110.055 77.6382 111.109 77.1159C108.641 77.1159 107.046 76.7669 105.101 75.1732C108.109 73.7614 111.109 74.8243 113.944 75.7041C112.522 75.1732 110.055 75.1732 110.587 73.7614C111.999 71.8188 115.522 73.7614 117.824 73.7614C116.412 73.2306 113.586 72.3502 113.944 70.939C116.412 68.4735 118.357 72.3502 120.825 72.3502C119.411 71.8188 115.522 71.2965 115.879 69.8847C118.357 67.4106 121.356 70.939 123.833 70.939C122.42 70.4076 118.888 70.939 118.357 67.4106C122.769 66.5308 125.769 72.3502 129.658 67.942C125.246 66.5308 119.411 64.5881 114.999 62.9939C115.522 64.0567 119.411 64.5882 115.522 66.5308C113.054 66.5308 113.054 64.0567 112.522 62.9939C107.219 62.1141 111.999 66.8792 109.165 68.4735L107.577 67.942C107.219 66.8792 106.697 65.9994 107.219 64.4142C106.165 64.9365 105.274 65.468 104.22 65.9994C104.752 66.8792 105.632 68.8224 106.165 69.8847C106.165 69.8847 105.632 71.2965 104.752 71.8188C103.156 71.2965 102.285 69.3533 102.285 66.8792C100.863 66.3472 99.275 63.5253 98.395 71.2965L96.45 72.3502C94.854 71.8188 95.395 70.2325 95.918 68.8224C93.982 69.8847 92.91 70.2325 93.982 74.6407C93.982 74.6407 92.386 76.5833 89.919 74.2928L90.442 72.7077C88.497 73.7614 87.974 77.6382 84.608 78.1782L83.552 76.2355C86.03 73.7614 87.974 72.7077 90.442 70.2325C87.974 70.2325 86.03 71.2965 84.084 69.8847C87.616 69.3533 90.442 67.942 94.506 68.2899C94.506 68.2899 94.854 66.8792 95.918 66.3472C94.506 65.9994 93.451 66.3472 92.386 66.8792C91.506 67.4106 90.442 65.468 90.442 65.468C93.982 62.471 97.863 65.468 101.22 64.9366C99.808 64.4143 96.8 65.9994 97.33 61.939C97.863 60.5284 100.863 64.0567 103.156 64.0567C104.22 63.5253 104.22 63.5253 105.274 62.9939C103.697 62.471 102.285 61.939 100.863 61.5827C98.917 59.9964 101.22 59.9964 102.285 59.6486C105.274 60.5284 108.109 64.0567 113.054 61.5827C108.641 57.7059 103.697 57.7059 98.395 56.6431C95.918 56.6431 98.395 59.1172 97.863 60.5284C97.33 61.939 95.918 61.5827 95.395 60.5284C94.854 59.4661 95.395 58.0532 94.854 57.1745C90.973 56.6431 95.395 60.5284 92.561 61.939L90.973 61.5827C90.442 60.5284 90.973 59.1171 90.442 58.0532C87.616 57.1745 89.028 62.471 88.497 63.8817C87.616 64.4143 86.553 64.9366 86.03 63.8817C85.68 62.9939 92.038 61.0512 83.204 60.5284C82.671 61.939 86.03 63.8817 83.204 65.468L81.617 64.9366C81.259 63.8817 81.791 62.471 81.259 61.4088C80.195 61.939 79.315 62.471 78.251 62.9939C78.781 63.8817 81.617 64.9365 78.781 66.3472C77.728 66.8792 76.837 64.9366 76.306 63.8817C75.25 64.4143 75.25 64.4143 74.369 64.9366C74.902 65.8243 75.783 65.2844 76.306 66.3472C74.902 68.2898 72.424 65.8243 70.48 69.3533C69.425 69.7022 66.948 69.7022 67.481 68.2899C68.004 66.8792 69.949 65.8243 71.893 64.9366C70.48 64.4143 70.48 64.4143 68.893 63.8817C71.893 62.471 74.369 62.471 77.378 61.0512C76.306 61.4088 75.434 59.4661 75.434 59.4661C77.379 58.5857 80.726 60.5284 82.671 59.4661C81.791 59.9964 80.195 59.4661 80.726 58.0532C81.259 56.6431 82.671 57.0006 85.68 58.0532C85.68 58.0532 86.553 57.5309 87.616 57.1745C86.553 57.5309 85.148 57.0006 85.68 55.5882L87.616 54.7004C90.093 57.1745 92.91 55.5882 95.395 55.5882C90.973 54.1776 88.148 53.1153 83.736 51.7029C83.204 55.5882 78.781 54.1775 76.837 57.5309L74.902 56.1208C76.837 55.0579 78.781 54.1776 80.195 52.2349C76.306 54.1776 72.957 52.2349 72.957 57.0006C72.424 58.5857 71.012 58.0532 70.48 57.0006C69.949 56.1208 71.012 55.5882 71.37 54.1776C70.48 54.5254 69.425 55.0579 68.534 55.5882L69.425 57.5309C69.067 58.9432 66.6 58.9432 66.067 58.0532C65.536 57.0006 66.6 56.4686 66.067 55.5882C64.122 56.4686 64.655 57.5309 65.013 58.4113C61.123 58.0532 58.288 59.4661 54.766 62.471C53.876 62.8188 52.822 60.8762 52.822 60.8762C55.289 58.4113 57.765 58.4112 60.59 57.0006C59.702 57.5309 58.288 57.0006 56.169 55.5882C59.179 54.0031 63.591 55.5882 66.6 54.1776C65.536 54.5254 64.655 55.0579 63.068 52.0599C66.6 51.7029 68.534 53.1153 71.893 52.5827C70.48 52.2349 68.004 52.0599 68.534 50.6401C68.534 50.6401 69.425 50.1172 70.48 49.7597C73.838 49.2294 74.902 53.6456 79.846 51.1721C76.306 49.2294 71.893 47.8273 68.534 48.1746C67.481 48.6974 69.067 51.7029 66.6 51.7029C65.013 51.1721 64.122 51.7029 65.536 47.2947C63.068 47.2947 63.068 49.7597 62.71 51.1721L60.59 52.0599C59.179 51.7029 60.766 49.7597 61.123 48.1746C56.711 46.7639 57.234 52.5827 53.876 53.1153C52.822 53.6456 50.877 54.5254 50.877 52.0599C51.4 50.6401 52.288 50.1172 53.344 49.5869C48.932 50.6401 45.923 52.0599 42.042 54.0031C41.161 54.5254 40.097 52.5827 40.097 52.5827C42.575 50.1172 45.043 50.1172 48.399 49.5869C46.987 49.2294 46.464 48.1745 45.923 47.1117C49.463 46.7639 52.822 51.1721 56.353 48.1746C53.344 47.2947 52.822 43.7664 49.463 44.2892C47.518 45.1788 45.573 46.2319 44.52 49.2294C43.098 48.6974 43.098 48.6974 41.51 48.1746C42.575 47.6431 42.042 46.7639 43.098 46.2319C40.63 46.2319 39.216 50.6401 36.741 50.6401C35.153 50.1172 35.676 48.6974 36.741 48.1746C33.208 48.6974 31.795 53.1153 28.439 50.9976C32.328 49.055 36.741 45.7096 41.51 45.7096C38.685 44.6468 38.162 41.2935 33.74 42.3461C34.273 43.2361 35.153 45.1788 34.273 45.7096C33.208 46.2319 32.328 44.2893 31.795 43.2361C29.85 44.2893 31.795 45.7096 31.795 45.7096C29.318 48.1746 26.494 44.6468 24.026 47.1117C24.026 44.6468 27.915 45.1788 27.915 42.7041L29.318 43.2361C28.439 41.2935 25.971 41.2935 24.374 40.7615C23.493 41.2935 22.438 44.1154 19.604 43.2361C20.494 42.7041 21.548 42.1727 22.082 40.7615C19.604 40.7615 16.604 39.7072 14.136 39.7072C13.247 40.2295 13.604 43.7664 12.192 43.2361C10.247 41.6498 15.191 39.3497 6.35699 38.8183L6.88901 39.7072C5.30301 39.3497 3.357 37.7645 3 36.8756Z" fill="white" fill-opacity="0.15"/>
</g>
</g>
<defs>
<clipPath id="clip0_676_32">
<rect width="173" height="87" fill="white"/>
</clipPath>
</defs>
</svg>
