<svg width="1139" height="345" viewBox="0 0 1139 345" fill="none" xmlns="http://www.w3.org/2000/svg">
<g filter="url(#filter0_d_1_2462)">
<path fill-rule="evenodd" clip-rule="evenodd" d="M40 43.155V296.02H63.7984V263.977H64.5148C81.3344 288.492 106.21 300.479 136.989 300.479C193.888 300.479 237.024 258.793 237.024 203.5C237.024 157.686 206.238 104.709 137.704 104.709C109.602 104.709 82.5896 115.629 65.9446 141.221H65.2294V43.155H40ZM137.704 127.616C179.576 127.616 211.785 160.011 211.785 203.5C211.785 246.08 177.606 277.582 136.989 277.582C96.3697 277.582 63.7984 244.835 63.7984 203.853C63.7984 161.089 95.6544 127.616 137.704 127.616Z" fill="white"/>
<path fill-rule="evenodd" clip-rule="evenodd" d="M251.687 109.199H275.486V136.201H276.211C286.405 115.999 306.978 104.357 329.885 105.072V130.311C305.911 131.724 276.926 147.483 276.926 185.251V296.02H251.687V109.199Z" fill="white"/>
<path fill-rule="evenodd" clip-rule="evenodd" d="M517.786 109.199H493.801V141.574H493.263C470.719 107.042 435.824 104.709 419.719 104.709C352.794 104.709 320.409 156.964 320.409 201.346C320.409 259.518 364.429 300.48 420.436 300.48C461.064 300.48 482.53 277.21 493.263 261.115H493.801V296.02H517.786V109.199ZM419.719 127.616C462.132 127.616 493.801 161.441 493.801 203.853C493.801 244.835 461.416 277.583 420.436 277.583C380.532 277.583 345.639 246.08 345.639 203.501C345.639 160.011 379.102 127.616 419.719 127.616Z" fill="white"/>
<path fill-rule="evenodd" clip-rule="evenodd" d="M534.241 109.199H558.226V136.201H558.766C573.263 114.922 595.443 104.709 619.958 104.709C662.37 104.709 701.566 131.018 701.566 197.591V296.02H676.327V197.591C676.327 183.986 675.249 127.616 616.928 127.616C590.965 127.616 559.471 140.867 559.471 193.465V296.02H534.241V109.199Z" fill="white"/>
<path fill-rule="evenodd" clip-rule="evenodd" d="M913.44 109.199H889.465V141.574H888.74C866.195 107.042 831.479 104.709 815.365 104.709C748.439 104.709 716.064 156.964 716.064 201.346C716.064 259.518 760.074 300.48 816.091 300.48C856.7 300.48 878.183 277.21 888.74 261.115H889.465V296.02H913.44V109.199ZM815.365 127.616C857.778 127.616 889.465 161.441 889.465 203.853C889.465 244.835 857.053 277.583 816.091 277.583C776.169 277.583 741.284 246.08 741.284 203.501C741.284 160.011 774.756 127.616 815.365 127.616Z" fill="white"/>
<path fill-rule="evenodd" clip-rule="evenodd" d="M931.694 109.199H955.484V136.201H956.189C970.519 114.922 992.709 104.709 1017.41 104.709C1059.82 104.709 1099 131.018 1099 197.591V296.02H1073.76V197.591C1073.76 183.986 1072.68 127.616 1014.36 127.616C988.416 127.616 956.914 140.867 956.914 193.465V296.02H931.694V109.199Z" fill="white"/>
<path fill-rule="evenodd" clip-rule="evenodd" d="M725.357 77.1572C725.172 80.0198 721.603 84.8517 715.34 84.8517C707.998 84.8517 704.245 80.1955 704.245 71.9719H732.512C732.512 58.3671 726.973 49.4172 715.878 49.4172C702.98 49.4172 697.255 58.906 697.255 71.07C697.255 82.166 703.705 90.3995 714.447 90.3995C720.71 90.3995 723.2 88.9684 725.005 87.7132C730.002 84.4984 731.787 78.9495 731.972 77.1572H725.357ZM704.245 66.7774C704.245 60.8758 708.89 55.3194 714.985 55.3194C722.865 55.3194 725.357 60.8758 725.728 66.7774H704.245Z" fill="white"/>
<path fill-rule="evenodd" clip-rule="evenodd" d="M771.894 89.3298H765.259V65.5222C765.259 58.7198 763.474 55.3194 757.026 55.3194C753.271 55.3194 746.841 57.6518 746.841 68.2073V89.3298H740.206V50.4962H746.469V56.0439C747.919 53.8971 751.672 49.4172 758.289 49.4172C764.199 49.4172 771.894 51.9272 771.894 62.8371V89.3298Z" fill="white"/>
<path fill-rule="evenodd" clip-rule="evenodd" d="M804.456 50.4966H811.611L796.948 89.3302H789.958L775.815 50.4966H783.343L793.36 82.1665H793.526L804.456 50.4966Z" fill="white"/>
<path fill-rule="evenodd" clip-rule="evenodd" d="M817.169 43.5177V36H823.785V43.5177H817.169ZM823.785 89.3301H817.169V50.4964H823.785V89.3301Z" fill="white"/>
<path fill-rule="evenodd" clip-rule="evenodd" d="M840.96 89.3298H834.343V50.4962H840.588V56.936H840.773C843.302 52.466 846.685 49.4172 851.517 49.4172C852.408 49.4172 852.78 49.4172 853.301 49.6046V56.3972H850.81C844.713 56.3972 840.96 61.0522 840.96 66.7775V89.3298Z" fill="white"/>
<path fill-rule="evenodd" clip-rule="evenodd" d="M855.993 69.8158C855.993 79.8423 861.551 90.3995 874.076 90.3995C886.418 90.3995 891.955 79.8423 891.955 69.8158C891.955 59.7975 886.418 49.4172 874.076 49.4172C861.551 49.4172 855.993 59.7975 855.993 69.8158ZM862.778 69.8158C862.778 64.63 864.58 55.1523 874.076 55.1523C883.37 55.1523 885.155 64.63 885.155 69.8158C885.155 75.0097 883.37 84.6748 874.076 84.6748C864.58 84.6748 862.778 75.0097 862.778 69.8158Z" fill="white"/>
<path fill-rule="evenodd" clip-rule="evenodd" d="M930.969 89.3298H924.519V65.5222C924.519 58.7198 922.549 55.3194 916.119 55.3194C912.364 55.3194 905.916 57.6518 905.916 68.2073V89.3298H899.467V50.4962H905.562V56.0439H905.749C907.161 53.8971 910.748 49.4172 917.364 49.4172C923.441 49.4172 930.969 51.9272 930.969 62.8371V89.3298Z" fill="white"/>
<path fill-rule="evenodd" clip-rule="evenodd" d="M940.634 50.4962H946.711V56.0439H946.897C948.329 53.8971 951.729 49.4172 958.717 49.4172C965.519 49.4172 967.824 53.7121 968.902 55.682C972.136 52.1035 974.811 49.4172 980.722 49.4172C985.016 49.4172 992.709 51.5647 992.709 62.4838V89.3298H986.261V64.2773C986.261 58.9059 984.661 55.3194 979.106 55.3194C973.548 55.3194 969.981 60.5139 969.981 65.7084V89.3298H963.364V62.4838C963.364 59.2598 962.099 55.3194 957.454 55.3194C953.699 55.3194 947.082 57.6518 947.082 68.2073V89.3298H940.634V50.4962Z" fill="white"/>
<path fill-rule="evenodd" clip-rule="evenodd" d="M1028.67 77.1572C1028.49 80.0198 1024.92 84.8517 1018.66 84.8517C1011.31 84.8517 1007.56 80.1955 1007.56 71.9719H1035.83C1035.83 58.3671 1030.29 49.4172 1019.19 49.4172C1006.3 49.4172 1000.57 58.906 1000.57 71.07C1000.57 82.166 1007.02 90.3995 1017.93 90.3995C1024.03 90.3995 1026.52 88.9684 1028.32 87.7132C1033.32 84.4984 1035.1 78.9495 1035.29 77.1572H1028.67ZM1007.56 66.7774C1007.56 60.8758 1012.21 55.3194 1018.3 55.3194C1026.18 55.3194 1028.67 60.8758 1029.03 66.7774H1007.56Z" fill="white"/>
<path fill-rule="evenodd" clip-rule="evenodd" d="M1075.21 89.3298H1068.57V65.5222C1068.57 58.7198 1066.6 55.3194 1060.34 55.3194C1056.59 55.3194 1050.16 57.6518 1050.16 68.2073V89.3298H1043.52V50.4962H1049.78V56.0439C1051.23 53.8971 1054.99 49.4172 1061.6 49.4172C1067.51 49.4172 1075.21 51.9272 1075.21 62.8371V89.3298Z" fill="white"/>
<path fill-rule="evenodd" clip-rule="evenodd" d="M1092.73 55.8679V81.0973C1092.73 84.1363 1095.43 84.1363 1096.67 84.1363H1099V89.3301C1096.67 89.5071 1094.7 89.8598 1094.16 89.8598C1087.73 89.8598 1086.28 86.1061 1086.28 81.45V55.8679H1080.93V50.4965H1086.28V39.7537H1092.73V50.4965H1099V55.8679H1092.73Z" fill="white"/>
</g>
<defs>
<filter id="filter0_d_1_2462" x="0" y="0" width="1139" height="344.479" filterUnits="userSpaceOnUse" color-interpolation-filters="sRGB">
<feFlood flood-opacity="0" result="BackgroundImageFix"/>
<feColorMatrix in="SourceAlpha" type="matrix" values="0 0 0 0 0 0 0 0 0 0 0 0 0 0 0 0 0 0 127 0" result="hardAlpha"/>
<feOffset dy="4"/>
<feGaussianBlur stdDeviation="20"/>
<feComposite in2="hardAlpha" operator="out"/>
<feColorMatrix type="matrix" values="0 0 0 0 0.549635 0 0 0 0 0.720833 0 0 0 0 0.652354 0 0 0 1 0"/>
<feBlend mode="normal" in2="BackgroundImageFix" result="effect1_dropShadow_1_2462"/>
<feBlend mode="normal" in="SourceGraphic" in2="effect1_dropShadow_1_2462" result="shape"/>
</filter>
</defs>
</svg>
