<svg width="32" height="33" viewBox="0 0 32 33" fill="none" xmlns="http://www.w3.org/2000/svg">
<path d="M5.5 21C4.10218 21 3.40326 21 2.85195 20.7716C2.11687 20.4672 1.53284 19.8831 1.22836 19.148C1 18.5967 1 17.8978 1 16.5V6.3C1 4.61984 1 3.77976 1.32698 3.13803C1.6146 2.57354 2.07354 2.1146 2.63803 1.82698C3.27976 1.5 4.11984 1.5 5.8 1.5H16C17.3978 1.5 18.0967 1.5 18.648 1.72836C19.3831 2.03284 19.9672 2.61687 20.2716 3.35195C20.5 3.90326 20.5 4.60218 20.5 6M16.3 31.5H26.2C27.8802 31.5 28.7202 31.5 29.362 31.173C29.9265 30.8854 30.3854 30.4265 30.673 29.862C31 29.2202 31 28.3802 31 26.7V16.8C31 15.1198 31 14.2798 30.673 13.638C30.3854 13.0735 29.9265 12.6146 29.362 12.327C28.7202 12 27.8802 12 26.2 12H16.3C14.6198 12 13.7798 12 13.138 12.327C12.5735 12.6146 12.1146 13.0735 11.827 13.638C11.5 14.2798 11.5 15.1198 11.5 16.8V26.7C11.5 28.3802 11.5 29.2202 11.827 29.862C12.1146 30.4265 12.5735 30.8854 13.138 31.173C13.7798 31.5 14.6198 31.5 16.3 31.5Z" stroke="#98A24C" stroke-width="2" stroke-linecap="round" stroke-linejoin="round"/>
</svg>
